<?xml version="1.0" encoding="UTF-8" standalone="no"?>
<!DOCTYPE svg PUBLIC "-//W3C//DTD SVG 1.1//EN"
 "http://www.w3.org/Graphics/SVG/1.1/DTD/svg11.dtd">
<!-- Generated by graphviz version 5.0.0 (20220707.1540)
 -->
<!-- Title: dependencies Pages: 1 -->
<svg width="648pt" height="312pt"
 viewBox="0.00 0.00 648.00 311.80" xmlns="http://www.w3.org/2000/svg" xmlns:xlink="http://www.w3.org/1999/xlink">
<g id="graph0" class="graph" transform="scale(1 1) rotate(0) translate(4 307.8)">
<title>dependencies</title>
<polygon fill="white" stroke="transparent" points="-4,4 -4,-307.8 644,-307.8 644,4 -4,4"/>
<text text-anchor="middle" x="320" y="-8.2" font-family="sans-serif" font-size="14.00">dependencies</text>
<g id="clust1" class="cluster">
<title>cluster_UiPopoverModule</title>
<polygon fill="none" stroke="black" stroke-dasharray="1,5" points="8,-32.8 8,-295.8 632,-295.8 632,-32.8 8,-32.8"/>
</g>
<g id="clust2" class="cluster">
<title>cluster_UiPopoverModule_declarations</title>
<polygon fill="none" stroke="black" points="16,-105.8 16,-157.8 504,-157.8 504,-105.8 16,-105.8"/>
</g>
<g id="clust4" class="cluster">
<title>cluster_UiPopoverModule_UiPopoverContent_providers</title>
<polygon fill="none" stroke="black" points="16,-40.8 16,-92.8 624,-92.8 624,-40.8 16,-40.8"/>
</g>
<g id="clust8" class="cluster">
<title>cluster_UiPopoverModule_exports</title>
<polygon fill="none" stroke="black" points="69,-235.8 69,-287.8 571,-287.8 571,-235.8 69,-235.8"/>
</g>
<!-- UiPopover -->
<g id="node1" class="node">
<title>UiPopover</title>
<polygon fill="#ffffb3" stroke="black" points="496.16,-149.8 419.84,-149.8 419.84,-113.8 496.16,-113.8 496.16,-149.8"/>
<text text-anchor="middle" x="458" y="-127.6" font-family="Times,serif" font-size="14.00">UiPopover</text>
</g>
<!-- UiPopoverModule -->
<g id="node5" class="node">
<title>UiPopoverModule</title>
<polygon fill="#8dd3c7" stroke="black" points="365.21,-214.8 362.21,-218.8 341.21,-218.8 338.21,-214.8 244.79,-214.8 244.79,-178.8 365.21,-178.8 365.21,-214.8"/>
<text text-anchor="middle" x="305" y="-192.6" font-family="Times,serif" font-size="14.00">UiPopoverModule</text>
</g>
<!-- UiPopover&#45;&gt;UiPopoverModule -->
<g id="edge1" class="edge">
<title>UiPopover&#45;&gt;UiPopoverModule</title>
<path fill="none" stroke="black" d="M442.46,-149.82C442.46,-167.17 442.46,-190.8 442.46,-190.8 442.46,-190.8 375.29,-190.8 375.29,-190.8"/>
<polygon fill="black" stroke="black" points="375.29,-187.3 365.29,-190.8 375.29,-194.3 375.29,-187.3"/>
</g>
<!-- UiPopoverContent -->
<g id="node2" class="node">
<title>UiPopoverContent</title>
<polygon fill="#ffffb3" stroke="black" points="401.49,-149.8 280.51,-149.8 280.51,-113.8 401.49,-113.8 401.49,-149.8"/>
<text text-anchor="middle" x="341" y="-127.6" font-family="Times,serif" font-size="14.00">UiPopoverContent</text>
</g>
<!-- UiPopoverContent&#45;&gt;UiPopoverModule -->
<g id="edge2" class="edge">
<title>UiPopoverContent&#45;&gt;UiPopoverModule</title>
<path fill="none" stroke="black" d="M322.81,-149.91C322.81,-149.91 322.81,-168.79 322.81,-168.79"/>
<polygon fill="black" stroke="black" points="319.31,-168.79 322.81,-178.79 326.31,-168.79 319.31,-168.79"/>
</g>
<!-- UiPopoverItem -->
<g id="node3" class="node">
<title>UiPopoverItem</title>
<polygon fill="#ffffb3" stroke="black" points="262.32,-149.8 159.68,-149.8 159.68,-113.8 262.32,-113.8 262.32,-149.8"/>
<text text-anchor="middle" x="211" y="-127.6" font-family="Times,serif" font-size="14.00">UiPopoverItem</text>
</g>
<!-- UiPopoverItem&#45;&gt;UiPopoverModule -->
<g id="edge4" class="edge">
<title>UiPopoverItem&#45;&gt;UiPopoverModule</title>
<path fill="none" stroke="black" d="M253.53,-149.91C253.53,-149.91 253.53,-168.79 253.53,-168.79"/>
<polygon fill="black" stroke="black" points="250.03,-168.79 253.53,-178.79 257.03,-168.79 250.03,-168.79"/>
</g>
<!-- UiPopoverTrigger -->
<g id="node4" class="node">
<title>UiPopoverTrigger</title>
<polygon fill="#ffffb3" stroke="black" points="142.14,-149.8 23.86,-149.8 23.86,-113.8 142.14,-113.8 142.14,-149.8"/>
<text text-anchor="middle" x="83" y="-127.6" font-family="Times,serif" font-size="14.00">UiPopoverTrigger</text>
</g>
<!-- UiPopoverTrigger&#45;&gt;UiPopoverModule -->
<g id="edge5" class="edge">
<title>UiPopoverTrigger&#45;&gt;UiPopoverModule</title>
<path fill="none" stroke="black" d="M109.62,-149.82C109.62,-167.17 109.62,-190.8 109.62,-190.8 109.62,-190.8 234.79,-190.8 234.79,-190.8"/>
<polygon fill="black" stroke="black" points="234.79,-194.3 244.79,-190.8 234.79,-187.3 234.79,-194.3"/>
</g>
<!-- UiPopover  -->
<g id="node7" class="node">
<title>UiPopover </title>
<polygon fill="#fb8072" stroke="black" points="563.16,-279.8 482.84,-279.8 482.84,-243.8 563.16,-243.8 563.16,-279.8"/>
<text text-anchor="middle" x="523" y="-257.6" font-family="Times,serif" font-size="14.00">UiPopover </text>
</g>
<!-- UiPopoverModule&#45;&gt;UiPopover  -->
<g id="edge6" class="edge">
<title>UiPopoverModule&#45;&gt;UiPopover </title>
<path fill="none" stroke="black" stroke-dasharray="5,2" d="M365.2,-202.8C419.07,-202.8 489.62,-202.8 489.62,-202.8 489.62,-202.8 489.62,-233.78 489.62,-233.78"/>
<polygon fill="black" stroke="black" points="486.13,-233.78 489.62,-243.78 493.13,-233.78 486.13,-233.78"/>
</g>
<!-- UiPopoverContent  -->
<g id="node8" class="node">
<title>UiPopoverContent </title>
<polygon fill="#fb8072" stroke="black" points="465.49,-279.8 340.51,-279.8 340.51,-243.8 465.49,-243.8 465.49,-279.8"/>
<text text-anchor="middle" x="403" y="-257.6" font-family="Times,serif" font-size="14.00">UiPopoverContent </text>
</g>
<!-- UiPopoverModule&#45;&gt;UiPopoverContent  -->
<g id="edge7" class="edge">
<title>UiPopoverModule&#45;&gt;UiPopoverContent </title>
<path fill="none" stroke="black" stroke-dasharray="5,2" d="M352.93,-214.91C352.93,-214.91 352.93,-233.79 352.93,-233.79"/>
<polygon fill="black" stroke="black" points="349.43,-233.79 352.93,-243.79 356.43,-233.79 349.43,-233.79"/>
</g>
<!-- UiPopoverItem  -->
<g id="node9" class="node">
<title>UiPopoverItem </title>
<polygon fill="#fb8072" stroke="black" points="322.82,-279.8 217.18,-279.8 217.18,-243.8 322.82,-243.8 322.82,-279.8"/>
<text text-anchor="middle" x="270" y="-257.6" font-family="Times,serif" font-size="14.00">UiPopoverItem </text>
</g>
<!-- UiPopoverModule&#45;&gt;UiPopoverItem  -->
<g id="edge8" class="edge">
<title>UiPopoverModule&#45;&gt;UiPopoverItem </title>
<path fill="none" stroke="black" stroke-dasharray="5,2" d="M283.9,-214.91C283.9,-214.91 283.9,-233.79 283.9,-233.79"/>
<polygon fill="black" stroke="black" points="280.4,-233.79 283.9,-243.79 287.4,-233.79 280.4,-233.79"/>
</g>
<!-- UiPopoverTrigger  -->
<g id="node10" class="node">
<title>UiPopoverTrigger </title>
<polygon fill="#fb8072" stroke="black" points="199.14,-279.8 76.86,-279.8 76.86,-243.8 199.14,-243.8 199.14,-279.8"/>
<text text-anchor="middle" x="138" y="-257.6" font-family="Times,serif" font-size="14.00">UiPopoverTrigger </text>
</g>
<!-- UiPopoverModule&#45;&gt;UiPopoverTrigger  -->
<g id="edge9" class="edge">
<title>UiPopoverModule&#45;&gt;UiPopoverTrigger </title>
<path fill="none" stroke="black" stroke-dasharray="5,2" d="M244.8,-202.8C212.58,-202.8 179.46,-202.8 179.46,-202.8 179.46,-202.8 179.46,-233.78 179.46,-233.78"/>
<polygon fill="black" stroke="black" points="175.96,-233.78 179.46,-243.78 182.96,-233.78 175.96,-233.78"/>
</g>
<!-- { provide: UI_POPOVER_CONTENT, useExisting: UiPopoverContent } -->
<g id="node6" class="node">
<title>{ provide: UI_POPOVER_CONTENT, useExisting: UiPopoverContent }</title>
<ellipse fill="#fdb462" stroke="black" cx="320" cy="-66.8" rx="296.11" ry="18"/>
<text text-anchor="middle" x="320" y="-62.6" font-family="Times,serif" font-size="14.00">{ provide: UI_POPOVER_CONTENT, useExisting: UiPopoverContent }</text>
</g>
<!-- { provide: UI_POPOVER_CONTENT, useExisting: UiPopoverContent }&#45;&gt;UiPopoverContent -->
<g id="edge3" class="edge">
<title>{ provide: UI_POPOVER_CONTENT, useExisting: UiPopoverContent }&#45;&gt;UiPopoverContent</title>
<path fill="none" stroke="black" d="M341,-84.91C341,-84.91 341,-103.79 341,-103.79"/>
<polygon fill="black" stroke="black" points="337.5,-103.79 341,-113.79 344.5,-103.79 337.5,-103.79"/>
</g>
</g>
</svg>
