<svg width="187" height="200" viewBox="0 0 187 200" fill="none" xmlns="http://www.w3.org/2000/svg">
  <g clip-path="url(#clip0_205_26)">
    <path d="M93.1 0L0 33.2L14.2 156.3L93.1 200L172 156.3L186.2 33.2L93.1 0Z" fill="#4F46E5"/>
    <path d="M93.1 0V22.2V22.1V123.4V200L172 156.3L186.2 33.2L93.1 0Z" fill="#312E81"/>
    <path
      d="M76.7292 159.167L74.3625 140.233C73.0806 139.74 71.8726 139.149 70.7385 138.458C69.6045 137.768 68.4951 137.028 67.4104 136.24L49.8083 143.635L33.5375 115.531L48.7729 103.994C48.6743 103.303 48.625 102.638 48.625 101.997V98.0031C48.625 97.3621 48.6743 96.6965 48.7729 96.0062L33.5375 84.4687L49.8083 56.3646L67.4104 63.7604C68.4951 62.9715 69.6292 62.2319 70.8125 61.5416C71.9958 60.8514 73.1792 60.2597 74.3625 59.7666L76.7292 40.8333H109.271L111.638 59.7666C112.919 60.2597 114.127 60.8514 115.261 61.5416C116.395 62.2319 117.505 62.9715 118.59 63.7604L136.192 56.3646L152.463 84.4687L137.227 96.0062C137.326 96.6965 137.375 97.3621 137.375 98.0031V101.997C137.375 102.638 137.276 103.303 137.079 103.994L152.315 115.531L136.044 143.635L118.59 136.24C117.505 137.028 116.371 137.768 115.188 138.458C114.004 139.149 112.821 139.74 111.638 140.233L109.271 159.167H76.7292ZM93.2958 120.708C99.0153 120.708 103.897 118.687 107.94 114.644C111.983 110.601 114.004 105.719 114.004 100C114.004 94.2805 111.983 89.3993 107.94 85.3562C103.897 81.3132 99.0153 79.2916 93.2958 79.2916C87.4778 79.2916 82.5719 81.3132 78.5781 85.3562C74.5844 89.3993 72.5875 94.2805 72.5875 100C72.5875 105.719 74.5844 110.601 78.5781 114.644C82.5719 118.687 87.4778 120.708 93.2958 120.708ZM93.2958 108.875C90.8306 108.875 88.7351 108.012 87.0094 106.286C85.2837 104.561 84.4208 102.465 84.4208 100C84.4208 97.5347 85.2837 95.4392 87.0094 93.7135C88.7351 91.9878 90.8306 91.125 93.2958 91.125C95.7611 91.125 97.8566 91.9878 99.5823 93.7135C101.308 95.4392 102.171 97.5347 102.171 100C102.171 102.465 101.308 104.561 99.5823 106.286C97.8566 108.012 95.7611 108.875 93.2958 108.875ZM87.0833 147.333H98.7688L100.84 131.654C103.897 130.865 106.732 129.707 109.345 128.178C111.958 126.65 114.349 124.801 116.519 122.631L131.163 128.696L136.931 118.637L124.21 109.023C124.703 107.642 125.049 106.188 125.246 104.659C125.443 103.131 125.542 101.578 125.542 100C125.542 98.4222 125.443 96.8691 125.246 95.3406C125.049 93.8121 124.703 92.3576 124.21 90.9771L136.931 81.3625L131.163 71.3041L116.519 77.5166C114.349 75.2486 111.958 73.3503 109.345 71.8219C106.732 70.2934 103.897 69.1347 100.84 68.3458L98.9167 52.6666H87.2313L85.1604 68.3458C82.1035 69.1347 79.2684 70.2934 76.6552 71.8219C74.042 73.3503 71.6507 75.1993 69.4813 77.3687L54.8375 71.3041L49.0687 81.3625L61.7896 90.8291C61.2965 92.3083 60.9514 93.7875 60.7542 95.2666C60.5569 96.7458 60.4583 98.3236 60.4583 100C60.4583 101.578 60.5569 103.106 60.7542 104.585C60.9514 106.065 61.2965 107.544 61.7896 109.023L49.0687 118.637L54.8375 128.696L69.4813 122.483C71.6507 124.751 74.042 126.65 76.6552 128.178C79.2684 129.707 82.1035 130.865 85.1604 131.654L87.0833 147.333Z"
      fill="white" fill-opacity="0.8"/>
  </g>
  <defs>
    <clipPath id="clip0_205_26">
      <rect width="187" height="200" fill="white"/>
    </clipPath>
  </defs>
</svg>
