<svg width="250" height="250" viewBox="0 0 250 250" fill="none" xmlns="http://www.w3.org/2000/svg">
<path d="M125 30L31.9 63.2L46.1 186.3L125 230L203.9 186.3L218.1 63.2L125 30Z" fill="#00897B"/>
<path d="M125 30V52.2V52.1V153.4V230L203.9 186.3L218.1 63.2L125 30Z" fill="#00796B"/>
<path d="M83.5782 185.884L83.5782 175.857L99.1682 147.248C102.895 149.337 104.388 150.381 107.521 151.425L92.2403 180.663L83.5782 185.884Z" fill="white"/>
<path d="M166.854 185.884L166.854 175.857L151.264 147.248C147.537 149.337 146.043 150.381 142.911 151.425L158.192 180.663L166.854 185.884Z" fill="white"/>
<path d="M115.157 151.788L113.069 139.076C111.746 138.606 110.354 137.967 108.892 137.16C107.431 136.353 106.143 135.512 105.029 134.637L92.7097 140.085L83 123.54L94.2757 115.57C94.1365 114.965 94.0495 114.275 94.0147 113.502C93.9799 112.728 93.9625 112.039 93.9625 111.434C93.9625 110.828 93.9799 110.139 94.0147 109.366C94.0495 108.592 94.1365 107.903 94.2757 107.297L83 99.3275L92.7097 82.7822L105.029 88.23C106.143 87.3557 107.431 86.515 108.892 85.7079C110.354 84.9008 111.746 84.2955 113.069 83.892L115.157 61.9998H134.367L136.455 83.7911C137.778 84.2619 139.187 84.884 140.684 85.6575C142.18 86.4309 143.45 87.2884 144.495 88.23L156.814 82.7822L166.524 99.3275L155.248 107.096C155.387 107.768 155.474 108.491 155.509 109.265C155.544 110.038 155.561 110.761 155.561 111.434C155.561 112.106 155.544 112.813 155.509 113.552C155.474 114.292 155.387 114.998 155.248 115.671L166.524 123.54L156.814 140.085L144.495 134.637C143.381 135.512 142.111 136.369 140.684 137.21C139.257 138.051 137.847 138.673 136.455 139.076L134.367 151.788H115.157ZM124.762 124.549C128.521 124.549 131.722 123.271 134.367 120.715C137.012 118.159 138.335 115.066 138.335 111.434C138.335 107.802 137.012 104.708 134.367 102.152C131.722 99.5965 128.521 98.3186 124.762 98.3186C121.003 98.3186 117.802 99.5965 115.157 102.152C112.512 104.708 111.189 107.802 111.189 111.434C111.189 115.066 112.512 118.159 115.157 120.715C117.802 123.271 121.003 124.549 124.762 124.549ZM124.762 118.496C122.743 118.496 121.021 117.806 119.594 116.428C118.167 115.049 117.454 113.384 117.454 111.434C117.454 109.483 118.167 107.819 119.594 106.44C121.021 105.061 122.743 104.372 124.762 104.372C126.78 104.372 128.503 105.061 129.93 106.44C131.357 107.819 132.07 109.483 132.07 111.434C132.07 113.384 131.357 115.049 129.93 116.428C128.503 117.806 126.78 118.496 124.762 118.496ZM120.168 145.735H129.356L130.817 134.436C133.114 133.898 135.289 133.057 137.343 131.914C139.396 130.77 141.258 129.391 142.928 127.777L153.995 132.418L158.172 125.154L148.358 118.193C148.636 117.05 148.862 115.923 149.036 114.813C149.21 113.704 149.297 112.577 149.297 111.434C149.297 110.29 149.228 109.164 149.088 108.054C148.949 106.944 148.706 105.818 148.358 104.674L158.172 97.7133L153.995 90.4495L142.928 95.0903C141.328 93.3416 139.518 91.8787 137.499 90.7017C135.481 89.5247 133.254 88.7681 130.817 88.4318L129.356 68.0529H120.168L118.707 88.4318C116.34 88.9026 114.13 89.7097 112.077 90.8531C110.023 91.9964 108.196 93.4088 106.596 95.0903L95.5286 90.4495L91.3524 97.7133L101.166 104.674C100.888 105.818 100.662 106.944 100.488 108.054C100.314 109.164 100.227 110.29 100.227 111.434C100.227 112.577 100.314 113.704 100.488 114.813C100.662 115.923 100.888 117.05 101.166 118.193L91.3524 125.154L95.5286 132.418L106.596 127.777C108.266 129.391 110.128 130.77 112.181 131.914C114.234 133.057 116.41 133.898 118.707 134.436L120.168 145.735Z" fill="white"/>
</svg>
