<svg width="250" height="250" viewBox="0 0 250 250" fill="none" xmlns="http://www.w3.org/2000/svg">
<path fill-rule="evenodd" clip-rule="evenodd" d="M31.9 63.2L125 30L218.1 63.2L203.9 186.3L125 230L46.1 186.3L31.9 63.2ZM83.5782 175.857V185.884L92.2403 180.663L107.521 151.425C105.017 150.59 103.56 149.755 101.172 148.387L101.172 148.387C100.573 148.044 99.9155 147.667 99.1682 147.248L83.5782 175.857ZM166.854 185.884V175.857L151.264 147.248C150.516 147.667 149.859 148.044 149.26 148.387L149.259 148.387C146.872 149.755 145.415 150.59 142.911 151.425L158.192 180.663L166.854 185.884ZM113.069 139.076L115.157 151.788H134.367L136.455 139.076C137.847 138.673 139.257 138.051 140.684 137.21C142.111 136.369 143.381 135.512 144.495 134.637L156.814 140.085L166.524 123.54L155.248 115.671C155.387 114.998 155.474 114.292 155.509 113.552C155.544 112.813 155.561 112.106 155.561 111.434C155.561 110.761 155.544 110.038 155.509 109.265C155.474 108.491 155.387 107.768 155.248 107.096L166.524 99.3275L156.814 82.7822L144.495 88.23C143.45 87.2884 142.18 86.4309 140.684 85.6575C139.187 84.884 137.778 84.2619 136.455 83.7911L134.367 61.9998H115.157L113.069 83.892C111.746 84.2955 110.354 84.9008 108.892 85.7079C107.431 86.515 106.143 87.3557 105.029 88.23L92.7097 82.7822L83 99.3275L94.2757 107.297C94.1365 107.903 94.0495 108.592 94.0147 109.366C93.9799 110.139 93.9625 110.828 93.9625 111.434C93.9625 112.039 93.9799 112.728 94.0147 113.502C94.0495 114.275 94.1365 114.965 94.2757 115.57L83 123.54L92.7097 140.085L105.029 134.637C106.143 135.512 107.431 136.353 108.892 137.16C110.354 137.967 111.746 138.606 113.069 139.076ZM134.367 120.715C131.722 123.271 128.521 124.549 124.762 124.549C121.003 124.549 117.802 123.271 115.157 120.715C112.512 118.159 111.189 115.066 111.189 111.434C111.189 107.802 112.512 104.708 115.157 102.152C117.802 99.5965 121.003 98.3186 124.762 98.3186C128.521 98.3186 131.722 99.5965 134.367 102.152C137.012 104.708 138.335 107.802 138.335 111.434C138.335 115.066 137.012 118.159 134.367 120.715ZM119.594 116.428C121.021 117.806 122.743 118.496 124.762 118.496C126.78 118.496 128.503 117.806 129.93 116.428C131.357 115.049 132.07 113.384 132.07 111.434C132.07 109.483 131.357 107.819 129.93 106.44C128.503 105.061 126.78 104.372 124.762 104.372C122.743 104.372 121.021 105.061 119.594 106.44C118.167 107.819 117.454 109.483 117.454 111.434C117.454 113.384 118.167 115.049 119.594 116.428ZM129.356 145.735H120.168L118.707 134.436C116.41 133.898 114.234 133.057 112.181 131.914C110.128 130.77 108.266 129.391 106.596 127.777L95.5286 132.418L91.3524 125.154L101.166 118.193C100.888 117.05 100.662 115.923 100.488 114.813C100.314 113.704 100.227 112.577 100.227 111.434C100.227 110.29 100.314 109.164 100.488 108.054C100.662 106.944 100.888 105.818 101.166 104.674L91.3524 97.7133L95.5286 90.4495L106.596 95.0903C108.196 93.4088 110.023 91.9964 112.077 90.8531C114.13 89.7097 116.34 88.9026 118.707 88.4318L120.168 68.0529H129.356L130.817 88.4318C133.254 88.7681 135.481 89.5247 137.499 90.7017C139.518 91.8787 141.328 93.3416 142.928 95.0903L153.995 90.4495L158.172 97.7133L148.358 104.674C148.706 105.818 148.949 106.944 149.088 108.054C149.228 109.164 149.297 110.29 149.297 111.434C149.297 112.577 149.21 113.704 149.036 114.813C148.862 115.923 148.636 117.05 148.358 118.193L158.172 125.154L153.995 132.418L142.928 127.777C141.258 129.391 139.396 130.77 137.343 131.914C135.289 133.057 133.114 133.898 130.817 134.436L129.356 145.735Z" fill="white"/>
<path opacity="0.12" fill-rule="evenodd" clip-rule="evenodd" d="M125 52.1V30L218.1 63.2L203.9 186.3L125 230V153.4V151.788H134.367L136.455 139.076C137.847 138.673 139.257 138.051 140.684 137.21C142.111 136.369 143.381 135.512 144.495 134.637L156.814 140.085L166.524 123.54L155.248 115.671C155.387 114.998 155.474 114.292 155.509 113.552C155.544 112.813 155.561 112.106 155.561 111.434C155.561 110.761 155.544 110.038 155.509 109.265C155.474 108.491 155.387 107.768 155.248 107.096L166.524 99.3275L156.814 82.7822L144.495 88.23C143.45 87.2884 142.18 86.4309 140.684 85.6575C139.187 84.884 137.778 84.2619 136.455 83.7911L134.367 61.9998H125V52.2V52.1ZM125 145.735H129.356L130.817 134.436C133.114 133.898 135.289 133.057 137.343 131.914C139.396 130.77 141.258 129.391 142.928 127.777L153.995 132.418L158.172 125.154L148.358 118.193C148.636 117.05 148.862 115.923 149.036 114.813C149.21 113.704 149.297 112.577 149.297 111.434C149.297 110.29 149.228 109.164 149.088 108.054C148.949 106.944 148.706 105.818 148.358 104.674L158.172 97.7133L153.995 90.4495L142.928 95.0903C141.328 93.3416 139.518 91.8787 137.499 90.7017C135.481 89.5247 133.254 88.7681 130.817 88.4318L129.356 68.0529H125V98.3203C128.656 98.3733 131.778 99.6506 134.367 102.152C137.012 104.708 138.335 107.802 138.335 111.434C138.335 115.066 137.012 118.159 134.367 120.715C131.778 123.217 128.656 124.494 125 124.547V145.735ZM125 118.493C126.916 118.44 128.56 117.752 129.93 116.428C131.357 115.049 132.07 113.384 132.07 111.434C132.07 109.483 131.357 107.819 129.93 106.44C128.56 105.116 126.916 104.427 125 104.375V118.493ZM166.854 185.884V175.857L151.264 147.248C150.516 147.667 149.859 148.044 149.26 148.387L149.259 148.387C146.872 149.755 145.415 150.59 142.911 151.425L158.192 180.663L166.854 185.884Z" fill="black"/>
</svg>
