<svg width="187" height="200" viewBox="0 0 187 200" fill="none" xmlns="http://www.w3.org/2000/svg">
<g clip-path="url(#clip0_205_38)">
<path fill-rule="evenodd" clip-rule="evenodd" d="M0 33.2L93.1 0L186.2 33.2L172 156.3L93.1 200L14.2 156.3L0 33.2ZM74.825 140.4L77.1917 159.333H109.733L112.1 140.4C113.283 139.907 114.467 139.315 115.65 138.625C116.833 137.935 117.967 137.195 119.052 136.406L136.506 143.802L152.777 115.698L137.542 104.16C137.739 103.47 137.838 102.805 137.838 102.164V98.1698C137.838 97.5288 137.788 96.8632 137.69 96.1729L152.925 84.6354L136.654 56.5312L119.052 63.9271C117.967 63.1382 116.858 62.3986 115.724 61.7083C114.59 61.0181 113.382 60.4264 112.1 59.9333L109.733 41H77.1917L74.825 59.9333C73.6417 60.4264 72.4583 61.0181 71.275 61.7083C70.0917 62.3986 68.9576 63.1382 67.8729 63.9271L50.2708 56.5312L34 84.6354L49.2354 96.1729C49.1368 96.8632 49.0875 97.5288 49.0875 98.1698V102.164C49.0875 102.805 49.1368 103.47 49.2354 104.16L34 115.698L50.2708 143.802L67.8729 136.406C68.9576 137.195 70.067 137.935 71.201 138.625C72.3351 139.315 73.5431 139.907 74.825 140.4ZM108.402 114.81C104.359 118.853 99.4778 120.875 93.7583 120.875C87.9403 120.875 83.0344 118.853 79.0406 114.81C75.0469 110.767 73.05 105.886 73.05 100.167C73.05 94.4472 75.0469 89.566 79.0406 85.5229C83.0344 81.4799 87.9403 79.4583 93.7583 79.4583C99.4778 79.4583 104.359 81.4799 108.402 85.5229C112.445 89.566 114.467 94.4472 114.467 100.167C114.467 105.886 112.445 110.767 108.402 114.81ZM87.4719 106.453C89.1976 108.179 91.2931 109.042 93.7583 109.042C96.2236 109.042 98.3191 108.179 100.045 106.453C101.77 104.727 102.633 102.632 102.633 100.167C102.633 97.7014 101.77 95.6059 100.045 93.8802C98.3191 92.1545 96.2236 91.2917 93.7583 91.2917C91.2931 91.2917 89.1976 92.1545 87.4719 93.8802C85.7462 95.6059 84.8833 97.7014 84.8833 100.167C84.8833 102.632 85.7462 104.727 87.4719 106.453ZM99.2313 147.5H87.5458L85.6229 131.821C82.566 131.032 79.7309 129.873 77.1177 128.345C74.5045 126.816 72.1132 124.918 69.9437 122.65L55.3 128.863L49.5312 118.804L62.2521 109.19C61.759 107.71 61.4139 106.231 61.2167 104.752C61.0194 103.273 60.9208 101.744 60.9208 100.167C60.9208 98.4903 61.0194 96.9125 61.2167 95.4333C61.4139 93.9542 61.759 92.475 62.2521 90.9958L49.5312 81.5292L55.3 71.4708L69.9437 77.5354C72.1132 75.366 74.5045 73.517 77.1177 71.9885C79.7309 70.4601 82.566 69.3014 85.6229 68.5125L87.6938 52.8333H99.3792L101.302 68.5125C104.359 69.3014 107.194 70.4601 109.807 71.9885C112.42 73.517 114.812 75.4153 116.981 77.6833L131.625 71.4708L137.394 81.5292L124.673 91.1437C125.166 92.5243 125.511 93.9788 125.708 95.5073C125.906 97.0358 126.004 98.5889 126.004 100.167C126.004 101.744 125.906 103.298 125.708 104.826C125.511 106.355 125.166 107.809 124.673 109.19L137.394 118.804L131.625 128.863L116.981 122.798C114.812 124.967 112.42 126.816 109.807 128.345C107.194 129.873 104.359 131.032 101.302 131.821L99.2313 147.5Z" fill="white"/>
<path opacity="0.12" fill-rule="evenodd" clip-rule="evenodd" d="M93 22.1V0L186.1 33.2L171.9 156.3L93 200V159.333H109.733L112.1 140.4C113.283 139.907 114.467 139.315 115.65 138.625C116.833 137.935 117.967 137.195 119.052 136.406L136.506 143.802L152.777 115.698L137.542 104.16C137.739 103.47 137.838 102.805 137.838 102.164V98.1698C137.838 97.5288 137.788 96.8632 137.69 96.1729L152.925 84.6354L136.654 56.5312L119.052 63.9271C117.967 63.1382 116.858 62.3986 115.724 61.7083C114.59 61.0181 113.382 60.4264 112.1 59.9333L109.733 41H93V22.2V22.1ZM93 147.5H99.2313L101.302 131.821C104.359 131.032 107.194 129.873 109.807 128.345C112.42 126.816 114.812 124.967 116.981 122.798L131.625 128.863L137.394 118.804L124.673 109.19C125.166 107.809 125.511 106.355 125.708 104.826C125.906 103.298 126.004 101.744 126.004 100.167C126.004 98.5889 125.906 97.0358 125.708 95.5073C125.511 93.9788 125.166 92.5243 124.673 91.1437L137.394 81.5292L131.625 71.4708L116.981 77.6833C114.812 75.4153 112.42 73.517 109.807 71.9885C107.194 70.4601 104.359 69.3014 101.302 68.5125L99.3792 52.8333H93V79.4699C93.251 79.4622 93.5038 79.4583 93.7583 79.4583C99.4778 79.4583 104.359 81.4799 108.402 85.5229C112.445 89.566 114.467 94.4472 114.467 100.167C114.467 105.886 112.445 110.767 108.402 114.81C104.359 118.853 99.4778 120.875 93.7583 120.875C93.5038 120.875 93.251 120.871 93 120.863V123.4V147.5ZM93 109.014C93.2488 109.032 93.5015 109.042 93.7583 109.042C96.2236 109.042 98.3191 108.179 100.045 106.453C101.77 104.727 102.633 102.632 102.633 100.167C102.633 97.7014 101.77 95.6059 100.045 93.8802C98.3191 92.1545 96.2236 91.2917 93.7583 91.2917C93.5015 91.2917 93.2488 91.301 93 91.3197V109.014Z" fill="black"/>
</g>
<defs>
<clipPath id="clip0_205_38">
<rect width="187" height="200" fill="white"/>
</clipPath>
</defs>
</svg>
