<svg width="250" height="250" viewBox="0 0 250 250" fill="none" xmlns="http://www.w3.org/2000/svg">
<path d="M125 30L31.9 63.2L46.1 186.3L125 230L203.9 186.3L218.1 63.2L125 30Z" fill="#00897B"/>
<path d="M125 30V52.2V52.1V153.4V230L203.9 186.3L218.1 63.2L125 30Z" fill="#00796B"/>
<path d="M83.6165 183.085L83.6165 175.319L105.481 129.434C108.368 131.051 109.525 131.86 111.95 132.669L90.3254 179.041L83.6165 183.085Z" fill="white"/>
<path d="M168.554 183.085L168.554 175.319L146.689 129.434C143.802 131.051 142.646 131.86 140.22 132.669L161.845 179.041L168.554 183.085Z" fill="white"/>
<path d="M117.865 132.95L116.247 123.105C115.223 122.74 114.145 122.245 113.013 121.62C111.881 120.995 110.883 120.344 110.021 119.667L100.479 123.886L92.959 111.072L101.692 104.899C101.584 104.43 101.517 103.896 101.49 103.297C101.463 102.698 101.45 102.164 101.45 101.696C101.45 101.227 101.463 100.693 101.49 100.094C101.517 99.4947 101.584 98.9607 101.692 98.4919L92.959 92.3192L100.479 79.5048L110.021 83.7242C110.883 83.047 111.881 82.3958 113.013 81.7707C114.145 81.1457 115.223 80.6768 116.247 80.3643L117.865 63.4087H132.743L134.36 80.2861C135.385 80.6508 136.476 81.1326 137.635 81.7317C138.794 82.3307 139.778 82.9949 140.587 83.7242L150.129 79.5048L157.649 92.3192L148.916 98.3357C149.023 98.8566 149.091 99.4165 149.118 100.016C149.145 100.615 149.158 101.175 149.158 101.696C149.158 102.216 149.145 102.763 149.118 103.336C149.091 103.909 149.023 104.456 148.916 104.977L157.649 111.072L150.129 123.886L140.587 119.667C139.724 120.344 138.74 121.008 137.635 121.659C136.53 122.311 135.439 122.792 134.36 123.105L132.743 132.95H117.865ZM125.304 111.853C128.215 111.853 130.695 110.864 132.743 108.884C134.792 106.905 135.816 104.508 135.816 101.696C135.816 98.8826 134.792 96.4864 132.743 94.507C130.695 92.5275 128.215 91.5378 125.304 91.5378C122.393 91.5378 119.913 92.5275 117.865 94.507C115.816 96.4864 114.792 98.8826 114.792 101.696C114.792 104.508 115.816 106.905 117.865 108.884C119.913 110.864 122.393 111.853 125.304 111.853ZM125.304 107.165C123.741 107.165 122.406 106.631 121.301 105.563C120.196 104.495 119.644 103.206 119.644 101.696C119.644 100.185 120.196 98.8956 121.301 97.8278C122.406 96.7599 123.741 96.226 125.304 96.226C126.867 96.226 128.201 96.7599 129.307 97.8278C130.412 98.8956 130.964 100.185 130.964 101.696C130.964 103.206 130.412 104.495 129.307 105.563C128.201 106.631 126.867 107.165 125.304 107.165ZM121.746 128.262H128.862L129.994 119.511C131.773 119.094 133.457 118.443 135.048 117.557C136.638 116.672 138.08 115.604 139.374 114.354L147.945 117.948L151.18 112.322L143.579 106.931C143.794 106.045 143.97 105.173 144.104 104.313C144.239 103.454 144.306 102.581 144.306 101.696C144.306 100.81 144.253 99.9375 144.145 99.078C144.037 98.2185 143.848 97.3459 143.579 96.4604L151.18 91.069L147.945 85.4432L139.374 89.0374C138.134 87.6831 136.732 86.5501 135.169 85.6385C133.606 84.7269 131.881 84.1409 129.994 83.8804L128.862 68.0969H121.746L120.614 83.8804C118.781 84.2451 117.069 84.8702 115.479 85.7557C113.889 86.6412 112.474 87.7352 111.234 89.0374L102.662 85.4432L99.428 91.069L107.029 96.4604C106.813 97.3459 106.638 98.2185 106.503 99.078C106.369 99.9375 106.301 100.81 106.301 101.696C106.301 102.581 106.369 103.454 106.503 104.313C106.638 105.173 106.813 106.045 107.029 106.931L99.428 112.322L102.662 117.948L111.234 114.354C112.528 115.604 113.97 116.672 115.56 117.557C117.15 118.443 118.835 119.094 120.614 119.511L121.746 128.262Z" fill="white"/>
</svg>
