<svg width="354" height="46" viewBox="0 0 354 46" fill="none" xmlns="http://www.w3.org/2000/svg">
<path d="M20.7344 10.25V33H15.2656L7.21875 18.8438V33H1.73438V10.25H7.21875L15.2656 24.4062V10.25H20.7344ZM34.5781 16.0938H39.3594V32.3438C39.3594 33.9062 39 35.2292 38.2812 36.3125C37.5625 37.4062 36.5573 38.2344 35.2656 38.7969C33.9844 39.3698 32.4844 39.6562 30.7656 39.6562C30.0052 39.6562 29.2292 39.5573 28.4375 39.3594C27.6458 39.1719 26.9062 38.8906 26.2188 38.5156C25.5312 38.1406 24.9531 37.6771 24.4844 37.125L26.6875 34.0312C27.1146 34.5104 27.651 34.9167 28.2969 35.25C28.9427 35.5938 29.7031 35.7656 30.5781 35.7656C31.3385 35.7656 31.974 35.6302 32.4844 35.3594C33.0052 35.0885 33.401 34.6927 33.6719 34.1719C33.9427 33.6615 34.0781 33.0417 34.0781 32.3125V20.0938L34.5781 16.0938ZM23.3438 24.75V24.4219C23.3438 23.1406 23.5 21.974 23.8125 20.9219C24.1354 19.8594 24.5938 18.9479 25.1875 18.1875C25.7917 17.4167 26.5208 16.8229 27.375 16.4062C28.2292 15.9896 29.1927 15.7812 30.2656 15.7812C31.4219 15.7812 32.3698 16.0052 33.1094 16.4531C33.8594 16.8906 34.4583 17.5052 34.9062 18.2969C35.3646 19.0885 35.7188 20.0156 35.9688 21.0781C36.2292 22.1302 36.4479 23.2656 36.625 24.4844V24.875C36.4479 26.0208 36.2031 27.1042 35.8906 28.125C35.5885 29.1354 35.1927 30.0312 34.7031 30.8125C34.2135 31.5938 33.599 32.2083 32.8594 32.6562C32.1302 33.0938 31.2552 33.3125 30.2344 33.3125C29.1719 33.3125 28.2135 33.099 27.3594 32.6719C26.5156 32.2448 25.7917 31.6458 25.1875 30.875C24.5938 30.1042 24.1354 29.1979 23.8125 28.1562C23.5 27.1146 23.3438 25.9792 23.3438 24.75ZM28.6094 24.4219V24.75C28.6094 25.3854 28.6667 25.974 28.7812 26.5156C28.9062 27.0573 29.0938 27.5365 29.3438 27.9531C29.5938 28.3594 29.901 28.6771 30.2656 28.9062C30.6406 29.1354 31.0781 29.25 31.5781 29.25C32.3385 29.25 32.9531 29.0885 33.4219 28.7656C33.8906 28.4427 34.2292 27.9844 34.4375 27.3906C34.6458 26.7969 34.7344 26.099 34.7031 25.2969V24.0625C34.724 23.375 34.6771 22.7708 34.5625 22.25C34.4479 21.7188 34.2656 21.276 34.0156 20.9219C33.776 20.5677 33.4531 20.3021 33.0469 20.125C32.651 19.9375 32.1719 19.8438 31.6094 19.8438C31.1198 19.8438 30.6875 19.9583 30.3125 20.1875C29.9375 20.4167 29.625 20.7396 29.375 21.1562C29.125 21.5625 28.9323 22.0469 28.7969 22.6094C28.6719 23.1615 28.6094 23.7656 28.6094 24.4219ZM59.6875 25.2812H54.0312V21.0469H59.6875C60.4583 21.0469 61.0833 20.9167 61.5625 20.6562C62.0417 20.3958 62.3906 20.0365 62.6094 19.5781C62.8385 19.1094 62.9531 18.5833 62.9531 18C62.9531 17.375 62.8385 16.7969 62.6094 16.2656C62.3906 15.7344 62.0417 15.3073 61.5625 14.9844C61.0833 14.651 60.4583 14.4844 59.6875 14.4844H56.0938V33H50.6094V10.25H59.6875C61.5104 10.25 63.0781 10.5833 64.3906 11.25C65.7135 11.9167 66.7292 12.8333 67.4375 14C68.1458 15.1562 68.5 16.4792 68.5 17.9688C68.5 19.4375 68.1458 20.7188 67.4375 21.8125C66.7292 22.9062 65.7135 23.7604 64.3906 24.375C63.0781 24.9792 61.5104 25.2812 59.6875 25.2812ZM79.7969 28.75V21.7812C79.7969 21.3021 79.7292 20.8906 79.5938 20.5469C79.4583 20.2031 79.2448 19.9375 78.9531 19.75C78.6615 19.5521 78.2708 19.4531 77.7812 19.4531C77.3854 19.4531 77.0469 19.5208 76.7656 19.6562C76.4844 19.7917 76.2708 19.9948 76.125 20.2656C75.9792 20.5365 75.9062 20.8802 75.9062 21.2969H70.6406C70.6406 20.5156 70.8125 19.7917 71.1562 19.125C71.5104 18.4479 72.0104 17.8594 72.6562 17.3594C73.3125 16.8594 74.0938 16.474 75 16.2031C75.9167 15.9219 76.9375 15.7812 78.0625 15.7812C79.4062 15.7812 80.6042 16.0052 81.6562 16.4531C82.7188 16.901 83.5573 17.5729 84.1719 18.4688C84.7865 19.3542 85.0938 20.4688 85.0938 21.8125V28.7344C85.0938 29.8385 85.1562 30.6771 85.2812 31.25C85.4062 31.8125 85.5833 32.3073 85.8125 32.7344V33H80.5312C80.2812 32.4792 80.0938 31.8438 79.9688 31.0938C79.8542 30.3333 79.7969 29.5521 79.7969 28.75ZM80.4375 22.6719L80.4688 25.4844H78.1406C77.651 25.4844 77.2344 25.5521 76.8906 25.6875C76.5573 25.8229 76.2865 26.0104 76.0781 26.25C75.8802 26.4792 75.7344 26.7396 75.6406 27.0312C75.5573 27.3229 75.5156 27.6302 75.5156 27.9531C75.5156 28.2656 75.5885 28.5469 75.7344 28.7969C75.8906 29.0365 76.099 29.224 76.3594 29.3594C76.6198 29.4948 76.9115 29.5625 77.2344 29.5625C77.8177 29.5625 78.3125 29.4531 78.7188 29.2344C79.1354 29.0052 79.4531 28.7292 79.6719 28.4062C79.8906 28.0833 80 27.7812 80 27.5L81.1562 29.6562C80.9479 30.0729 80.7083 30.4948 80.4375 30.9219C80.1771 31.349 79.849 31.7448 79.4531 32.1094C79.0677 32.4635 78.5938 32.7552 78.0312 32.9844C77.4688 33.2031 76.7865 33.3125 75.9844 33.3125C74.9427 33.3125 73.9844 33.099 73.1094 32.6719C72.2448 32.2448 71.5521 31.651 71.0312 30.8906C70.5104 30.1198 70.25 29.2344 70.25 28.2344C70.25 27.3594 70.4062 26.5781 70.7188 25.8906C71.0417 25.2031 71.526 24.6198 72.1719 24.1406C72.8177 23.6615 73.6406 23.2969 74.6406 23.0469C75.6406 22.7969 76.8177 22.6719 78.1719 22.6719H80.4375ZM96.9219 16.0938V19.75H86.7344V16.0938H96.9219ZM88.875 11.8906H94.1406V27.4844C94.1406 27.9323 94.1927 28.2812 94.2969 28.5312C94.401 28.7708 94.5781 28.9427 94.8281 29.0469C95.0885 29.1406 95.4323 29.1875 95.8594 29.1875C96.1615 29.1875 96.4115 29.1823 96.6094 29.1719C96.8073 29.151 96.9948 29.125 97.1719 29.0938V32.8594C96.724 33.0052 96.2552 33.1146 95.7656 33.1875C95.276 33.2708 94.7552 33.3125 94.2031 33.3125C93.0781 33.3125 92.1146 33.1354 91.3125 32.7812C90.5208 32.4271 89.9167 31.8698 89.5 31.1094C89.0833 30.349 88.875 29.3594 88.875 28.1406V11.8906ZM107.922 16.0938V19.75H97.7344V16.0938H107.922ZM99.875 11.8906H105.141V27.4844C105.141 27.9323 105.193 28.2812 105.297 28.5312C105.401 28.7708 105.578 28.9427 105.828 29.0469C106.089 29.1406 106.432 29.1875 106.859 29.1875C107.161 29.1875 107.411 29.1823 107.609 29.1719C107.807 29.151 107.995 29.125 108.172 29.0938V32.8594C107.724 33.0052 107.255 33.1146 106.766 33.1875C106.276 33.2708 105.755 33.3125 105.203 33.3125C104.078 33.3125 103.115 33.1354 102.312 32.7812C101.521 32.4271 100.917 31.8698 100.5 31.1094C100.083 30.349 99.875 29.3594 99.875 28.1406V11.8906ZM118.203 33.3125C116.828 33.3125 115.599 33.099 114.516 32.6719C113.432 32.2344 112.516 31.6354 111.766 30.875C111.026 30.1146 110.458 29.2396 110.062 28.25C109.677 27.2604 109.484 26.2135 109.484 25.1094V24.5156C109.484 23.276 109.656 22.1302 110 21.0781C110.344 20.0156 110.854 19.0885 111.531 18.2969C112.208 17.5052 113.057 16.8906 114.078 16.4531C115.099 16.0052 116.286 15.7812 117.641 15.7812C118.839 15.7812 119.911 15.974 120.859 16.3594C121.807 16.7448 122.609 17.2969 123.266 18.0156C123.932 18.7344 124.438 19.6042 124.781 20.625C125.135 21.6458 125.312 22.7917 125.312 24.0625V26.2031H111.5V22.9062H120.172V22.5C120.182 21.9375 120.083 21.4583 119.875 21.0625C119.677 20.6667 119.385 20.3646 119 20.1562C118.615 19.9479 118.146 19.8438 117.594 19.8438C117.021 19.8438 116.547 19.9688 116.172 20.2188C115.807 20.4688 115.521 20.8125 115.312 21.25C115.115 21.6771 114.974 22.1719 114.891 22.7344C114.807 23.2969 114.766 23.8906 114.766 24.5156V25.1094C114.766 25.7344 114.849 26.3021 115.016 26.8125C115.193 27.3229 115.443 27.7604 115.766 28.125C116.099 28.4792 116.495 28.7552 116.953 28.9531C117.422 29.151 117.953 29.25 118.547 29.25C119.266 29.25 119.974 29.1146 120.672 28.8438C121.37 28.5729 121.969 28.125 122.469 27.5L124.859 30.3438C124.516 30.8333 124.026 31.3073 123.391 31.7656C122.766 32.224 122.016 32.599 121.141 32.8906C120.266 33.1719 119.286 33.3125 118.203 33.3125ZM132.766 20.2812V33H127.5V16.0938H132.422L132.766 20.2812ZM137.766 15.9688L137.672 20.8594C137.464 20.8385 137.182 20.8125 136.828 20.7812C136.474 20.75 136.177 20.7344 135.938 20.7344C135.323 20.7344 134.792 20.8073 134.344 20.9531C133.906 21.0885 133.542 21.2969 133.25 21.5781C132.969 21.849 132.76 22.1927 132.625 22.6094C132.5 23.026 132.443 23.5104 132.453 24.0625L131.5 23.4375C131.5 22.3021 131.609 21.2708 131.828 20.3438C132.057 19.4062 132.38 18.599 132.797 17.9219C133.214 17.2344 133.719 16.7083 134.312 16.3438C134.906 15.9688 135.573 15.7812 136.312 15.7812C136.573 15.7812 136.828 15.7969 137.078 15.8281C137.339 15.8594 137.568 15.9062 137.766 15.9688ZM144.75 19.7031V33H139.484V16.0938H144.422L144.75 19.7031ZM144.125 23.9688L142.891 24C142.891 22.7083 143.047 21.5573 143.359 20.5469C143.672 19.526 144.115 18.6615 144.688 17.9531C145.26 17.2448 145.943 16.7083 146.734 16.3438C147.536 15.9688 148.427 15.7812 149.406 15.7812C150.188 15.7812 150.901 15.8958 151.547 16.125C152.203 16.3542 152.766 16.724 153.234 17.2344C153.714 17.7448 154.078 18.4219 154.328 19.2656C154.589 20.099 154.719 21.1302 154.719 22.3594V33H149.422V22.3438C149.422 21.6667 149.328 21.151 149.141 20.7969C148.953 20.4323 148.682 20.1823 148.328 20.0469C147.974 19.9115 147.542 19.8438 147.031 19.8438C146.49 19.8438 146.031 19.9479 145.656 20.1562C145.281 20.3646 144.979 20.6562 144.75 21.0312C144.531 21.3958 144.37 21.8281 144.266 22.3281C144.172 22.8281 144.125 23.375 144.125 23.9688ZM166.5 28.25C166.5 27.9583 166.401 27.7083 166.203 27.5C166.016 27.2812 165.682 27.0833 165.203 26.9062C164.724 26.7188 164.052 26.5312 163.188 26.3438C162.365 26.1667 161.589 25.9323 160.859 25.6406C160.141 25.349 159.51 24.9948 158.969 24.5781C158.427 24.1615 158 23.6667 157.688 23.0938C157.385 22.5208 157.234 21.8646 157.234 21.125C157.234 20.4062 157.385 19.7292 157.688 19.0938C158 18.4479 158.453 17.8802 159.047 17.3906C159.651 16.8906 160.385 16.5 161.25 16.2188C162.115 15.9271 163.099 15.7812 164.203 15.7812C165.724 15.7812 167.036 16.0156 168.141 16.4844C169.245 16.9427 170.094 17.5885 170.688 18.4219C171.292 19.2448 171.594 20.1979 171.594 21.2812H166.328C166.328 20.8542 166.255 20.4896 166.109 20.1875C165.974 19.8854 165.75 19.6562 165.438 19.5C165.125 19.3333 164.708 19.25 164.188 19.25C163.823 19.25 163.49 19.3177 163.188 19.4531C162.896 19.5885 162.661 19.776 162.484 20.0156C162.307 20.2552 162.219 20.5365 162.219 20.8594C162.219 21.0885 162.271 21.2969 162.375 21.4844C162.49 21.6615 162.661 21.8281 162.891 21.9844C163.12 22.1302 163.411 22.2656 163.766 22.3906C164.12 22.5052 164.547 22.6094 165.047 22.7031C166.182 22.9115 167.245 23.2083 168.234 23.5938C169.224 23.9792 170.026 24.526 170.641 25.2344C171.266 25.9427 171.578 26.8958 171.578 28.0938C171.578 28.8438 171.406 29.5365 171.062 30.1719C170.719 30.7969 170.224 31.349 169.578 31.8281C168.932 32.2969 168.156 32.6615 167.25 32.9219C166.344 33.1823 165.323 33.3125 164.188 33.3125C162.573 33.3125 161.208 33.026 160.094 32.4531C158.979 31.8698 158.135 31.1406 157.562 30.2656C157 29.3802 156.719 28.4844 156.719 27.5781H161.625C161.646 28.099 161.771 28.526 162 28.8594C162.24 29.1927 162.557 29.4375 162.953 29.5938C163.349 29.75 163.807 29.8281 164.328 29.8281C164.807 29.8281 165.203 29.7604 165.516 29.625C165.839 29.4896 166.083 29.3073 166.25 29.0781C166.417 28.8385 166.5 28.5625 166.5 28.25Z" fill="white"/>
<path d="M187.536 28.8846L191.426 16.494H192.411L191.379 20.4158L187.207 33.4002H186.207L187.536 28.8846ZM182.504 16.494L186.004 28.9002L187.067 33.4002H186.067L181.161 16.494H182.504ZM198.036 28.8846L201.489 16.494H202.848L197.926 33.4002H196.926L198.036 28.8846ZM192.582 16.494L196.457 28.8377L197.786 33.4002H196.786L192.551 20.4158L191.582 16.494H192.582ZM208.223 16.494V33.4002H206.973V16.494H208.223ZM206.582 11.369C206.582 11.0877 206.676 10.8481 206.864 10.6502C207.062 10.4419 207.312 10.3377 207.614 10.3377C207.905 10.3377 208.15 10.4419 208.348 10.6502C208.546 10.8481 208.645 11.0877 208.645 11.369C208.645 11.6502 208.546 11.8898 208.348 12.0877C208.15 12.2752 207.905 12.369 207.614 12.369C207.312 12.369 207.062 12.2752 206.864 12.0877C206.676 11.8898 206.582 11.6502 206.582 11.369ZM219.614 16.494V17.619H211.52V16.494H219.614ZM214.645 12.0252H215.895V29.3221C215.895 30.2283 216.004 30.9158 216.223 31.3846C216.452 31.8429 216.749 32.1554 217.114 32.3221C217.489 32.4783 217.89 32.5565 218.317 32.5565C218.619 32.5565 218.895 32.5408 219.145 32.5096C219.405 32.4783 219.666 32.4419 219.926 32.4002L220.036 33.494C219.806 33.5669 219.509 33.619 219.145 33.6502C218.78 33.6919 218.457 33.7127 218.176 33.7127C217.468 33.7127 216.848 33.5825 216.317 33.3221C215.786 33.0617 215.374 32.6137 215.082 31.9783C214.791 31.3325 214.645 30.4471 214.645 29.3221V12.0252ZM225.036 9.40021V33.4002H223.801V9.40021H225.036ZM224.801 23.6502L224.192 22.9315C224.286 22.0356 224.504 21.1815 224.848 20.369C225.202 19.5565 225.666 18.8377 226.239 18.2127C226.822 17.5877 227.499 17.0929 228.27 16.7283C229.051 16.3637 229.911 16.1815 230.848 16.1815C231.692 16.1815 232.447 16.3012 233.114 16.5408C233.78 16.77 234.343 17.1346 234.801 17.6346C235.27 18.1346 235.624 18.7804 235.864 19.5721C236.103 20.3533 236.223 21.3065 236.223 22.4315V33.4002H234.989V22.4315C234.989 21.0981 234.806 20.0669 234.442 19.3377C234.077 18.5981 233.567 18.0773 232.911 17.7752C232.265 17.4731 231.509 17.3221 230.645 17.3221C229.645 17.3221 228.78 17.546 228.051 17.994C227.332 18.4315 226.739 18.9887 226.27 19.6658C225.801 20.3325 225.442 21.0252 225.192 21.744C224.952 22.4627 224.822 23.0981 224.801 23.6502ZM256.395 11.619L248.301 33.4002H246.957L255.504 10.6502H256.551L256.395 11.619ZM264.051 33.4002L255.973 11.619L255.817 10.6502H256.848L265.411 33.4002H264.051ZM262.051 25.6033V26.7752H250.379V25.6033H262.051ZM269.754 20.1033V33.4002H268.52V16.494H269.739L269.754 20.1033ZM269.52 23.6502L268.911 22.9315C269.004 22.0356 269.223 21.1815 269.567 20.369C269.921 19.5565 270.384 18.8377 270.957 18.2127C271.541 17.5877 272.218 17.0929 272.989 16.7283C273.77 16.3637 274.629 16.1815 275.567 16.1815C276.411 16.1815 277.166 16.3012 277.832 16.5408C278.499 16.77 279.062 17.1346 279.52 17.6346C279.989 18.1346 280.343 18.7804 280.582 19.5721C280.822 20.3533 280.942 21.3065 280.942 22.4315V33.4002H279.707V22.4315C279.707 21.0981 279.525 20.0669 279.161 19.3377C278.796 18.5981 278.286 18.0773 277.629 17.7752C276.983 17.4731 276.228 17.3221 275.364 17.3221C274.364 17.3221 273.499 17.546 272.77 17.994C272.051 18.4315 271.457 18.9887 270.989 19.6658C270.52 20.3325 270.161 21.0252 269.911 21.744C269.671 22.4627 269.541 23.0981 269.52 23.6502ZM297.317 16.494H298.52V33.1346C298.52 34.5825 298.254 35.8325 297.723 36.8846C297.192 37.9471 296.437 38.7596 295.457 39.3221C294.489 39.895 293.327 40.1815 291.973 40.1815C291.202 40.1815 290.463 40.0669 289.754 39.8377C289.056 39.6085 288.411 39.2752 287.817 38.8377C287.233 38.4106 286.728 37.9054 286.301 37.3221L287.067 36.5408C287.733 37.3637 288.457 37.9887 289.239 38.4158C290.03 38.8429 290.921 39.0565 291.911 39.0565C293.077 39.0565 294.056 38.8169 294.848 38.3377C295.64 37.8585 296.239 37.1762 296.645 36.2908C297.051 35.4158 297.254 34.3742 297.254 33.1658V20.2127L297.317 16.494ZM285.301 25.1033V24.7752C285.301 23.4523 285.447 22.2648 285.739 21.2127C286.03 20.1502 286.452 19.2492 287.004 18.5096C287.556 17.7596 288.228 17.1867 289.02 16.7908C289.822 16.3846 290.728 16.1815 291.739 16.1815C292.687 16.1815 293.525 16.3325 294.254 16.6346C294.994 16.9262 295.634 17.3481 296.176 17.9002C296.728 18.4419 297.176 19.0825 297.52 19.8221C297.874 20.5512 298.14 21.3585 298.317 22.244V28.0721C298.181 28.8533 297.947 29.5877 297.614 30.2752C297.28 30.9523 296.838 31.5512 296.286 32.0721C295.733 32.5825 295.077 32.9835 294.317 33.2752C293.556 33.5669 292.687 33.7127 291.707 33.7127C290.707 33.7127 289.812 33.5044 289.02 33.0877C288.228 32.671 287.556 32.0825 287.004 31.3221C286.452 30.5617 286.03 29.6554 285.739 28.6033C285.447 27.5512 285.301 26.3846 285.301 25.1033ZM286.567 24.7752V25.1033C286.567 26.1762 286.671 27.1658 286.879 28.0721C287.098 28.9783 287.421 29.7648 287.848 30.4315C288.286 31.0981 288.838 31.619 289.504 31.994C290.171 32.369 290.947 32.5565 291.832 32.5565C292.978 32.5565 293.942 32.3481 294.723 31.9315C295.504 31.5148 296.129 30.9627 296.598 30.2752C297.067 29.5877 297.395 28.8273 297.582 27.994V22.4783C297.468 21.9471 297.291 21.3846 297.051 20.7908C296.812 20.1867 296.473 19.6242 296.036 19.1033C295.608 18.5825 295.056 18.1606 294.379 17.8377C293.702 17.5044 292.864 17.3377 291.864 17.3377C290.968 17.3377 290.181 17.5252 289.504 17.9002C288.838 18.2752 288.286 18.796 287.848 19.4627C287.421 20.1294 287.098 20.9158 286.879 21.8221C286.671 22.7283 286.567 23.7127 286.567 24.7752ZM314.848 29.494V16.494H316.098V33.4002H314.864L314.848 29.494ZM315.067 26.619L315.879 26.5877C315.879 27.619 315.749 28.5669 315.489 29.4315C315.239 30.296 314.843 31.0512 314.301 31.6971C313.77 32.3325 313.082 32.8273 312.239 33.1815C311.395 33.5356 310.384 33.7127 309.207 33.7127C308.384 33.7127 307.629 33.5981 306.942 33.369C306.265 33.1294 305.676 32.7544 305.176 32.244C304.687 31.7335 304.306 31.0669 304.036 30.244C303.775 29.421 303.645 28.4262 303.645 27.2596V16.494H304.879V27.2908C304.879 28.27 304.989 29.0981 305.207 29.7752C305.437 30.4523 305.749 30.994 306.145 31.4002C306.541 31.8065 307.004 32.1033 307.536 32.2908C308.067 32.4679 308.645 32.5565 309.27 32.5565C310.728 32.5565 311.879 32.2752 312.723 31.7127C313.577 31.1502 314.181 30.4158 314.536 29.5096C314.89 28.6033 315.067 27.6398 315.067 26.619ZM322.723 9.40021V33.4002H321.473V9.40021H322.723ZM338.598 30.2908V21.5565C338.598 20.671 338.411 19.9106 338.036 19.2752C337.661 18.6398 337.114 18.1554 336.395 17.8221C335.676 17.4783 334.796 17.3065 333.754 17.3065C332.786 17.3065 331.916 17.4783 331.145 17.8221C330.384 18.1554 329.786 18.6137 329.348 19.1971C328.911 19.7804 328.692 20.4315 328.692 21.1502L327.442 21.1346C327.442 20.4887 327.593 19.869 327.895 19.2752C328.207 18.6815 328.645 18.1554 329.207 17.6971C329.78 17.2283 330.452 16.8585 331.223 16.5877C332.004 16.3169 332.858 16.1815 333.786 16.1815C334.973 16.1815 336.02 16.3846 336.926 16.7908C337.843 17.1867 338.556 17.7856 339.067 18.5877C339.577 19.3898 339.832 20.3898 339.832 21.5877V29.9315C339.832 30.5356 339.874 31.145 339.957 31.7596C340.041 32.3742 340.155 32.869 340.301 33.244V33.4002H338.942C338.827 33.0044 338.739 32.52 338.676 31.9471C338.624 31.3742 338.598 30.8221 338.598 30.2908ZM339.004 23.8065L339.036 24.8846H334.911C333.869 24.8846 332.937 24.9835 332.114 25.1815C331.291 25.3794 330.593 25.6606 330.02 26.0252C329.447 26.3898 329.009 26.8221 328.707 27.3221C328.405 27.8221 328.254 28.3846 328.254 29.0096C328.254 29.6554 328.426 30.2492 328.77 30.7908C329.114 31.3325 329.598 31.7648 330.223 32.0877C330.848 32.4002 331.572 32.5565 332.395 32.5565C333.52 32.5565 334.515 32.3637 335.379 31.9783C336.254 31.5825 336.989 31.0512 337.582 30.3846C338.176 29.7075 338.608 28.9262 338.879 28.0408L339.426 28.9471C339.249 29.4992 338.973 30.0565 338.598 30.619C338.223 31.1815 337.739 31.6971 337.145 32.1658C336.551 32.6242 335.853 32.9992 335.051 33.2908C334.249 33.5721 333.338 33.7127 332.317 33.7127C331.244 33.7127 330.306 33.5148 329.504 33.119C328.713 32.7127 328.098 32.1606 327.661 31.4627C327.223 30.7544 327.004 29.9471 327.004 29.0408C327.004 28.2596 327.181 27.546 327.536 26.9002C327.89 26.2544 328.4 25.7023 329.067 25.244C329.744 24.7752 330.562 24.421 331.52 24.1815C332.489 23.9315 333.577 23.8065 334.786 23.8065H339.004ZM346.348 19.369V33.4002H345.114V16.494H346.332L346.348 19.369ZM352.786 16.369L352.707 17.494C352.52 17.4627 352.332 17.4367 352.145 17.4158C351.957 17.395 351.759 17.3846 351.551 17.3846C350.655 17.3846 349.869 17.5617 349.192 17.9158C348.525 18.27 347.963 18.7544 347.504 19.369C347.056 19.9835 346.718 20.6971 346.489 21.5096C346.259 22.3221 346.14 23.1919 346.129 24.119L345.52 24.244C345.52 23.0877 345.64 22.02 345.879 21.0408C346.129 20.0617 346.504 19.2075 347.004 18.4783C347.504 17.7492 348.134 17.1867 348.895 16.7908C349.655 16.3846 350.551 16.1815 351.582 16.1815C351.832 16.1815 352.062 16.2023 352.27 16.244C352.478 16.2752 352.65 16.3169 352.786 16.369Z" fill="white"/>
</svg>
