<svg width="352" height="32" viewBox="0 0 352 32" fill="none" xmlns="http://www.w3.org/2000/svg">
<path d="M19.7344 1.25V24H14.2656L6.21875 9.84375V24H0.734375V1.25H6.21875L14.2656 15.4062V1.25H19.7344Z" fill="white"/>
<path d="M33.5781 7.09375H38.3594V23.3438C38.3594 24.9062 38 26.2292 37.2812 27.3125C36.5625 28.4062 35.5573 29.2344 34.2656 29.7969C32.9844 30.3698 31.4844 30.6562 29.7656 30.6562C29.0052 30.6562 28.2292 30.5573 27.4375 30.3594C26.6458 30.1719 25.9062 29.8906 25.2188 29.5156C24.5312 29.1406 23.9531 28.6771 23.4844 28.125L25.6875 25.0312C26.1146 25.5104 26.651 25.9167 27.2969 26.25C27.9427 26.5938 28.7031 26.7656 29.5781 26.7656C30.3385 26.7656 30.974 26.6302 31.4844 26.3594C32.0052 26.0885 32.401 25.6927 32.6719 25.1719C32.9427 24.6615 33.0781 24.0417 33.0781 23.3125V11.0938L33.5781 7.09375ZM22.3438 15.75V15.4219C22.3438 14.1406 22.5 12.974 22.8125 11.9219C23.1354 10.8594 23.5938 9.94792 24.1875 9.1875C24.7917 8.41667 25.5208 7.82292 26.375 7.40625C27.2292 6.98958 28.1927 6.78125 29.2656 6.78125C30.4219 6.78125 31.3698 7.00521 32.1094 7.45312C32.8594 7.89062 33.4583 8.50521 33.9062 9.29688C34.3646 10.0885 34.7188 11.0156 34.9688 12.0781C35.2292 13.1302 35.4479 14.2656 35.625 15.4844V15.875C35.4479 17.0208 35.2031 18.1042 34.8906 19.125C34.5885 20.1354 34.1927 21.0312 33.7031 21.8125C33.2135 22.5938 32.599 23.2083 31.8594 23.6562C31.1302 24.0938 30.2552 24.3125 29.2344 24.3125C28.1719 24.3125 27.2135 24.099 26.3594 23.6719C25.5156 23.2448 24.7917 22.6458 24.1875 21.875C23.5938 21.1042 23.1354 20.1979 22.8125 19.1562C22.5 18.1146 22.3438 16.9792 22.3438 15.75ZM27.6094 15.4219V15.75C27.6094 16.3854 27.6667 16.974 27.7812 17.5156C27.9062 18.0573 28.0938 18.5365 28.3438 18.9531C28.5938 19.3594 28.901 19.6771 29.2656 19.9062C29.6406 20.1354 30.0781 20.25 30.5781 20.25C31.3385 20.25 31.9531 20.0885 32.4219 19.7656C32.8906 19.4427 33.2292 18.9844 33.4375 18.3906C33.6458 17.7969 33.7344 17.099 33.7031 16.2969V15.0625C33.724 14.375 33.6771 13.7708 33.5625 13.25C33.4479 12.7188 33.2656 12.276 33.0156 11.9219C32.776 11.5677 32.4531 11.3021 32.0469 11.125C31.651 10.9375 31.1719 10.8438 30.6094 10.8438C30.1198 10.8438 29.6875 10.9583 29.3125 11.1875C28.9375 11.4167 28.625 11.7396 28.375 12.1562C28.125 12.5625 27.9323 13.0469 27.7969 13.6094C27.6719 14.1615 27.6094 14.7656 27.6094 15.4219Z" fill="white"/>
<path d="M58.6875 16.2812H53.0312V12.0469H58.6875C59.4583 12.0469 60.0833 11.9167 60.5625 11.6562C61.0417 11.3958 61.3906 11.0365 61.6094 10.5781C61.8385 10.1094 61.9531 9.58333 61.9531 9C61.9531 8.375 61.8385 7.79688 61.6094 7.26562C61.3906 6.73438 61.0417 6.30729 60.5625 5.98438C60.0833 5.65104 59.4583 5.48438 58.6875 5.48438H55.0938V24H49.6094V1.25H58.6875C60.5104 1.25 62.0781 1.58333 63.3906 2.25C64.7135 2.91667 65.7292 3.83333 66.4375 5C67.1458 6.15625 67.5 7.47917 67.5 8.96875C67.5 10.4375 67.1458 11.7188 66.4375 12.8125C65.7292 13.9062 64.7135 14.7604 63.3906 15.375C62.0781 15.9792 60.5104 16.2812 58.6875 16.2812Z" fill="white"/>
<path d="M78.7969 19.75V12.7812C78.7969 12.3021 78.7292 11.8906 78.5938 11.5469C78.4583 11.2031 78.2448 10.9375 77.9531 10.75C77.6615 10.5521 77.2708 10.4531 76.7812 10.4531C76.3854 10.4531 76.0469 10.5208 75.7656 10.6562C75.4844 10.7917 75.2708 10.9948 75.125 11.2656C74.9792 11.5365 74.9062 11.8802 74.9062 12.2969H69.6406C69.6406 11.5156 69.8125 10.7917 70.1562 10.125C70.5104 9.44792 71.0104 8.85938 71.6562 8.35938C72.3125 7.85938 73.0938 7.47396 74 7.20312C74.9167 6.92188 75.9375 6.78125 77.0625 6.78125C78.4062 6.78125 79.6042 7.00521 80.6562 7.45312C81.7188 7.90104 82.5573 8.57292 83.1719 9.46875C83.7865 10.3542 84.0938 11.4688 84.0938 12.8125V19.7344C84.0938 20.8385 84.1562 21.6771 84.2812 22.25C84.4062 22.8125 84.5833 23.3073 84.8125 23.7344V24H79.5312C79.2812 23.4792 79.0938 22.8438 78.9688 22.0938C78.8542 21.3333 78.7969 20.5521 78.7969 19.75ZM79.4375 13.6719L79.4688 16.4844H77.1406C76.651 16.4844 76.2344 16.5521 75.8906 16.6875C75.5573 16.8229 75.2865 17.0104 75.0781 17.25C74.8802 17.4792 74.7344 17.7396 74.6406 18.0312C74.5573 18.3229 74.5156 18.6302 74.5156 18.9531C74.5156 19.2656 74.5885 19.5469 74.7344 19.7969C74.8906 20.0365 75.099 20.224 75.3594 20.3594C75.6198 20.4948 75.9115 20.5625 76.2344 20.5625C76.8177 20.5625 77.3125 20.4531 77.7188 20.2344C78.1354 20.0052 78.4531 19.7292 78.6719 19.4062C78.8906 19.0833 79 18.7812 79 18.5L80.1562 20.6562C79.9479 21.0729 79.7083 21.4948 79.4375 21.9219C79.1771 22.349 78.849 22.7448 78.4531 23.1094C78.0677 23.4635 77.5938 23.7552 77.0312 23.9844C76.4688 24.2031 75.7865 24.3125 74.9844 24.3125C73.9427 24.3125 72.9844 24.099 72.1094 23.6719C71.2448 23.2448 70.5521 22.651 70.0312 21.8906C69.5104 21.1198 69.25 20.2344 69.25 19.2344C69.25 18.3594 69.4062 17.5781 69.7188 16.8906C70.0417 16.2031 70.526 15.6198 71.1719 15.1406C71.8177 14.6615 72.6406 14.2969 73.6406 14.0469C74.6406 13.7969 75.8177 13.6719 77.1719 13.6719H79.4375Z" fill="white"/>
<path d="M95.9219 7.09375V10.75H85.7344V7.09375H95.9219ZM87.875 2.89062H93.1406V18.4844C93.1406 18.9323 93.1927 19.2812 93.2969 19.5312C93.401 19.7708 93.5781 19.9427 93.8281 20.0469C94.0885 20.1406 94.4323 20.1875 94.8594 20.1875C95.1615 20.1875 95.4115 20.1823 95.6094 20.1719C95.8073 20.151 95.9948 20.125 96.1719 20.0938V23.8594C95.724 24.0052 95.2552 24.1146 94.7656 24.1875C94.276 24.2708 93.7552 24.3125 93.2031 24.3125C92.0781 24.3125 91.1146 24.1354 90.3125 23.7812C89.5208 23.4271 88.9167 22.8698 88.5 22.1094C88.0833 21.349 87.875 20.3594 87.875 19.1406V2.89062Z" fill="white"/>
<path d="M106.922 7.09375V10.75H96.7344V7.09375H106.922ZM98.875 2.89062H104.141V18.4844C104.141 18.9323 104.193 19.2812 104.297 19.5312C104.401 19.7708 104.578 19.9427 104.828 20.0469C105.089 20.1406 105.432 20.1875 105.859 20.1875C106.161 20.1875 106.411 20.1823 106.609 20.1719C106.807 20.151 106.995 20.125 107.172 20.0938V23.8594C106.724 24.0052 106.255 24.1146 105.766 24.1875C105.276 24.2708 104.755 24.3125 104.203 24.3125C103.078 24.3125 102.115 24.1354 101.312 23.7812C100.521 23.4271 99.9167 22.8698 99.5 22.1094C99.0833 21.349 98.875 20.3594 98.875 19.1406V2.89062Z" fill="white"/>
<path d="M117.203 24.3125C115.828 24.3125 114.599 24.099 113.516 23.6719C112.432 23.2344 111.516 22.6354 110.766 21.875C110.026 21.1146 109.458 20.2396 109.062 19.25C108.677 18.2604 108.484 17.2135 108.484 16.1094V15.5156C108.484 14.276 108.656 13.1302 109 12.0781C109.344 11.0156 109.854 10.0885 110.531 9.29688C111.208 8.50521 112.057 7.89062 113.078 7.45312C114.099 7.00521 115.286 6.78125 116.641 6.78125C117.839 6.78125 118.911 6.97396 119.859 7.35938C120.807 7.74479 121.609 8.29688 122.266 9.01562C122.932 9.73438 123.438 10.6042 123.781 11.625C124.135 12.6458 124.312 13.7917 124.312 15.0625V17.2031H110.5V13.9062H119.172V13.5C119.182 12.9375 119.083 12.4583 118.875 12.0625C118.677 11.6667 118.385 11.3646 118 11.1562C117.615 10.9479 117.146 10.8438 116.594 10.8438C116.021 10.8438 115.547 10.9688 115.172 11.2188C114.807 11.4688 114.521 11.8125 114.312 12.25C114.115 12.6771 113.974 13.1719 113.891 13.7344C113.807 14.2969 113.766 14.8906 113.766 15.5156V16.1094C113.766 16.7344 113.849 17.3021 114.016 17.8125C114.193 18.3229 114.443 18.7604 114.766 19.125C115.099 19.4792 115.495 19.7552 115.953 19.9531C116.422 20.151 116.953 20.25 117.547 20.25C118.266 20.25 118.974 20.1146 119.672 19.8438C120.37 19.5729 120.969 19.125 121.469 18.5L123.859 21.3438C123.516 21.8333 123.026 22.3073 122.391 22.7656C121.766 23.224 121.016 23.599 120.141 23.8906C119.266 24.1719 118.286 24.3125 117.203 24.3125Z" fill="white"/>
<path d="M131.766 11.2812V24H126.5V7.09375H131.422L131.766 11.2812ZM136.766 6.96875L136.672 11.8594C136.464 11.8385 136.182 11.8125 135.828 11.7812C135.474 11.75 135.177 11.7344 134.938 11.7344C134.323 11.7344 133.792 11.8073 133.344 11.9531C132.906 12.0885 132.542 12.2969 132.25 12.5781C131.969 12.849 131.76 13.1927 131.625 13.6094C131.5 14.026 131.443 14.5104 131.453 15.0625L130.5 14.4375C130.5 13.3021 130.609 12.2708 130.828 11.3438C131.057 10.4062 131.38 9.59896 131.797 8.92188C132.214 8.23438 132.719 7.70833 133.312 7.34375C133.906 6.96875 134.573 6.78125 135.312 6.78125C135.573 6.78125 135.828 6.79688 136.078 6.82812C136.339 6.85938 136.568 6.90625 136.766 6.96875Z" fill="white"/>
<path d="M143.75 10.7031V24H138.484V7.09375H143.422L143.75 10.7031ZM143.125 14.9688L141.891 15C141.891 13.7083 142.047 12.5573 142.359 11.5469C142.672 10.526 143.115 9.66146 143.688 8.95312C144.26 8.24479 144.943 7.70833 145.734 7.34375C146.536 6.96875 147.427 6.78125 148.406 6.78125C149.188 6.78125 149.901 6.89583 150.547 7.125C151.203 7.35417 151.766 7.72396 152.234 8.23438C152.714 8.74479 153.078 9.42188 153.328 10.2656C153.589 11.099 153.719 12.1302 153.719 13.3594V24H148.422V13.3438C148.422 12.6667 148.328 12.151 148.141 11.7969C147.953 11.4323 147.682 11.1823 147.328 11.0469C146.974 10.9115 146.542 10.8438 146.031 10.8438C145.49 10.8438 145.031 10.9479 144.656 11.1562C144.281 11.3646 143.979 11.6562 143.75 12.0312C143.531 12.3958 143.37 12.8281 143.266 13.3281C143.172 13.8281 143.125 14.375 143.125 14.9688Z" fill="white"/>
<path d="M165.5 19.25C165.5 18.9583 165.401 18.7083 165.203 18.5C165.016 18.2812 164.682 18.0833 164.203 17.9062C163.724 17.7188 163.052 17.5312 162.188 17.3438C161.365 17.1667 160.589 16.9323 159.859 16.6406C159.141 16.349 158.51 15.9948 157.969 15.5781C157.427 15.1615 157 14.6667 156.688 14.0938C156.385 13.5208 156.234 12.8646 156.234 12.125C156.234 11.4062 156.385 10.7292 156.688 10.0938C157 9.44792 157.453 8.88021 158.047 8.39062C158.651 7.89062 159.385 7.5 160.25 7.21875C161.115 6.92708 162.099 6.78125 163.203 6.78125C164.724 6.78125 166.036 7.01562 167.141 7.48438C168.245 7.94271 169.094 8.58854 169.688 9.42188C170.292 10.2448 170.594 11.1979 170.594 12.2812H165.328C165.328 11.8542 165.255 11.4896 165.109 11.1875C164.974 10.8854 164.75 10.6562 164.438 10.5C164.125 10.3333 163.708 10.25 163.188 10.25C162.823 10.25 162.49 10.3177 162.188 10.4531C161.896 10.5885 161.661 10.776 161.484 11.0156C161.307 11.2552 161.219 11.5365 161.219 11.8594C161.219 12.0885 161.271 12.2969 161.375 12.4844C161.49 12.6615 161.661 12.8281 161.891 12.9844C162.12 13.1302 162.411 13.2656 162.766 13.3906C163.12 13.5052 163.547 13.6094 164.047 13.7031C165.182 13.9115 166.245 14.2083 167.234 14.5938C168.224 14.9792 169.026 15.526 169.641 16.2344C170.266 16.9427 170.578 17.8958 170.578 19.0938C170.578 19.8438 170.406 20.5365 170.062 21.1719C169.719 21.7969 169.224 22.349 168.578 22.8281C167.932 23.2969 167.156 23.6615 166.25 23.9219C165.344 24.1823 164.323 24.3125 163.188 24.3125C161.573 24.3125 160.208 24.026 159.094 23.4531C157.979 22.8698 157.135 22.1406 156.562 21.2656C156 20.3802 155.719 19.4844 155.719 18.5781H160.625C160.646 19.099 160.771 19.526 161 19.8594C161.24 20.1927 161.557 20.4375 161.953 20.5938C162.349 20.75 162.807 20.8281 163.328 20.8281C163.807 20.8281 164.203 20.7604 164.516 20.625C164.839 20.4896 165.083 20.3073 165.25 20.0781C165.417 19.8385 165.5 19.5625 165.5 19.25Z" fill="white"/>
<path d="M186.536 19.8846L190.426 7.49396H191.411L190.379 11.4158L186.207 24.4002H185.207L186.536 19.8846ZM181.504 7.49396L185.004 19.9002L186.067 24.4002H185.067L180.161 7.49396H181.504ZM197.036 19.8846L200.489 7.49396H201.848L196.926 24.4002H195.926L197.036 19.8846ZM191.582 7.49396L195.457 19.8377L196.786 24.4002H195.786L191.551 11.4158L190.582 7.49396H191.582Z" fill="white"/>
<path d="M207.223 7.49396V24.4002H205.973V7.49396H207.223ZM205.582 2.36896C205.582 2.08771 205.676 1.84812 205.864 1.65021C206.062 1.44187 206.312 1.33771 206.614 1.33771C206.905 1.33771 207.15 1.44187 207.348 1.65021C207.546 1.84812 207.645 2.08771 207.645 2.36896C207.645 2.65021 207.546 2.88979 207.348 3.08771C207.15 3.27521 206.905 3.36896 206.614 3.36896C206.312 3.36896 206.062 3.27521 205.864 3.08771C205.676 2.88979 205.582 2.65021 205.582 2.36896Z" fill="white"/>
<path d="M218.614 7.49396V8.61896H210.52V7.49396H218.614ZM213.645 3.02521H214.895V20.3221C214.895 21.2283 215.004 21.9158 215.223 22.3846C215.452 22.8429 215.749 23.1554 216.114 23.3221C216.489 23.4783 216.89 23.5565 217.317 23.5565C217.619 23.5565 217.895 23.5408 218.145 23.5096C218.405 23.4783 218.666 23.4419 218.926 23.4002L219.036 24.494C218.806 24.5669 218.509 24.619 218.145 24.6502C217.78 24.6919 217.457 24.7127 217.176 24.7127C216.468 24.7127 215.848 24.5825 215.317 24.3221C214.786 24.0617 214.374 23.6137 214.082 22.9783C213.791 22.3325 213.645 21.4471 213.645 20.3221V3.02521Z" fill="white"/>
<path d="M224.036 0.400208V24.4002H222.801V0.400208H224.036ZM223.801 14.6502L223.192 13.9315C223.286 13.0356 223.504 12.1815 223.848 11.369C224.202 10.5565 224.666 9.83771 225.239 9.21271C225.822 8.58771 226.499 8.09292 227.27 7.72833C228.051 7.36375 228.911 7.18146 229.848 7.18146C230.692 7.18146 231.447 7.30125 232.114 7.54083C232.78 7.77 233.343 8.13458 233.801 8.63458C234.27 9.13458 234.624 9.78042 234.864 10.5721C235.103 11.3533 235.223 12.3065 235.223 13.4315V24.4002H233.989V13.4315C233.989 12.0981 233.806 11.0669 233.442 10.3377C233.077 9.59812 232.567 9.07729 231.911 8.77521C231.265 8.47312 230.509 8.32208 229.645 8.32208C228.645 8.32208 227.78 8.54604 227.051 8.99396C226.332 9.43146 225.739 9.98875 225.27 10.6658C224.801 11.3325 224.442 12.0252 224.192 12.744C223.952 13.4627 223.822 14.0981 223.801 14.6502Z" fill="white"/>
<path d="M255.395 2.61896L247.301 24.4002H245.957L254.504 1.65021H255.551L255.395 2.61896ZM263.051 24.4002L254.973 2.61896L254.817 1.65021H255.848L264.411 24.4002H263.051ZM261.051 16.6033V17.7752H249.379V16.6033H261.051Z" fill="white"/>
<path d="M268.754 11.1033V24.4002H267.52V7.49396H268.739L268.754 11.1033ZM268.52 14.6502L267.911 13.9315C268.004 13.0356 268.223 12.1815 268.567 11.369C268.921 10.5565 269.384 9.83771 269.957 9.21271C270.541 8.58771 271.218 8.09292 271.989 7.72833C272.77 7.36375 273.629 7.18146 274.567 7.18146C275.411 7.18146 276.166 7.30125 276.832 7.54083C277.499 7.77 278.062 8.13458 278.52 8.63458C278.989 9.13458 279.343 9.78042 279.582 10.5721C279.822 11.3533 279.942 12.3065 279.942 13.4315V24.4002H278.707V13.4315C278.707 12.0981 278.525 11.0669 278.161 10.3377C277.796 9.59812 277.286 9.07729 276.629 8.77521C275.983 8.47312 275.228 8.32208 274.364 8.32208C273.364 8.32208 272.499 8.54604 271.77 8.99396C271.051 9.43146 270.457 9.98875 269.989 10.6658C269.52 11.3325 269.161 12.0252 268.911 12.744C268.671 13.4627 268.541 14.0981 268.52 14.6502Z" fill="white"/>
<path d="M296.317 7.49396H297.52V24.1346C297.52 25.5825 297.254 26.8325 296.723 27.8846C296.192 28.9471 295.437 29.7596 294.457 30.3221C293.489 30.895 292.327 31.1815 290.973 31.1815C290.202 31.1815 289.463 31.0669 288.754 30.8377C288.056 30.6085 287.411 30.2752 286.817 29.8377C286.233 29.4106 285.728 28.9054 285.301 28.3221L286.067 27.5408C286.733 28.3637 287.457 28.9887 288.239 29.4158C289.03 29.8429 289.921 30.0565 290.911 30.0565C292.077 30.0565 293.056 29.8169 293.848 29.3377C294.64 28.8585 295.239 28.1762 295.645 27.2908C296.051 26.4158 296.254 25.3742 296.254 24.1658V11.2127L296.317 7.49396ZM284.301 16.1033V15.7752C284.301 14.4523 284.447 13.2648 284.739 12.2127C285.03 11.1502 285.452 10.2492 286.004 9.50958C286.556 8.75958 287.228 8.18667 288.02 7.79083C288.822 7.38458 289.728 7.18146 290.739 7.18146C291.687 7.18146 292.525 7.3325 293.254 7.63458C293.994 7.92625 294.634 8.34812 295.176 8.90021C295.728 9.44187 296.176 10.0825 296.52 10.8221C296.874 11.5512 297.14 12.3585 297.317 13.244V19.0721C297.181 19.8533 296.947 20.5877 296.614 21.2752C296.28 21.9523 295.838 22.5512 295.286 23.0721C294.733 23.5825 294.077 23.9835 293.317 24.2752C292.556 24.5669 291.687 24.7127 290.707 24.7127C289.707 24.7127 288.812 24.5044 288.02 24.0877C287.228 23.671 286.556 23.0825 286.004 22.3221C285.452 21.5617 285.03 20.6554 284.739 19.6033C284.447 18.5512 284.301 17.3846 284.301 16.1033ZM285.567 15.7752V16.1033C285.567 17.1762 285.671 18.1658 285.879 19.0721C286.098 19.9783 286.421 20.7648 286.848 21.4315C287.286 22.0981 287.838 22.619 288.504 22.994C289.171 23.369 289.947 23.5565 290.832 23.5565C291.978 23.5565 292.942 23.3481 293.723 22.9315C294.504 22.5148 295.129 21.9627 295.598 21.2752C296.067 20.5877 296.395 19.8273 296.582 18.994V13.4783C296.468 12.9471 296.291 12.3846 296.051 11.7908C295.812 11.1867 295.473 10.6242 295.036 10.1033C294.608 9.5825 294.056 9.16062 293.379 8.83771C292.702 8.50437 291.864 8.33771 290.864 8.33771C289.968 8.33771 289.181 8.52521 288.504 8.90021C287.838 9.27521 287.286 9.79604 286.848 10.4627C286.421 11.1294 286.098 11.9158 285.879 12.8221C285.671 13.7283 285.567 14.7127 285.567 15.7752Z" fill="white"/>
<path d="M313.848 20.494V7.49396H315.098V24.4002H313.864L313.848 20.494ZM314.067 17.619L314.879 17.5877C314.879 18.619 314.749 19.5669 314.489 20.4315C314.239 21.296 313.843 22.0512 313.301 22.6971C312.77 23.3325 312.082 23.8273 311.239 24.1815C310.395 24.5356 309.384 24.7127 308.207 24.7127C307.384 24.7127 306.629 24.5981 305.942 24.369C305.265 24.1294 304.676 23.7544 304.176 23.244C303.687 22.7335 303.306 22.0669 303.036 21.244C302.775 20.421 302.645 19.4262 302.645 18.2596V7.49396H303.879V18.2908C303.879 19.27 303.989 20.0981 304.207 20.7752C304.437 21.4523 304.749 21.994 305.145 22.4002C305.541 22.8065 306.004 23.1033 306.536 23.2908C307.067 23.4679 307.645 23.5565 308.27 23.5565C309.728 23.5565 310.879 23.2752 311.723 22.7127C312.577 22.1502 313.181 21.4158 313.536 20.5096C313.89 19.6033 314.067 18.6398 314.067 17.619Z" fill="white"/>
<path d="M321.723 0.400208V24.4002H320.473V0.400208H321.723Z" fill="white"/>
<path d="M337.598 21.2908V12.5565C337.598 11.671 337.411 10.9106 337.036 10.2752C336.661 9.63979 336.114 9.15542 335.395 8.82208C334.676 8.47833 333.796 8.30646 332.754 8.30646C331.786 8.30646 330.916 8.47833 330.145 8.82208C329.384 9.15542 328.786 9.61375 328.348 10.1971C327.911 10.7804 327.692 11.4315 327.692 12.1502L326.442 12.1346C326.442 11.4887 326.593 10.869 326.895 10.2752C327.207 9.68146 327.645 9.15542 328.207 8.69708C328.78 8.22833 329.452 7.85854 330.223 7.58771C331.004 7.31687 331.858 7.18146 332.786 7.18146C333.973 7.18146 335.02 7.38458 335.926 7.79083C336.843 8.18667 337.556 8.78562 338.067 9.58771C338.577 10.3898 338.832 11.3898 338.832 12.5877V20.9315C338.832 21.5356 338.874 22.145 338.957 22.7596C339.041 23.3742 339.155 23.869 339.301 24.244V24.4002H337.942C337.827 24.0044 337.739 23.52 337.676 22.9471C337.624 22.3742 337.598 21.8221 337.598 21.2908ZM338.004 14.8065L338.036 15.8846H333.911C332.869 15.8846 331.937 15.9835 331.114 16.1815C330.291 16.3794 329.593 16.6606 329.02 17.0252C328.447 17.3898 328.009 17.8221 327.707 18.3221C327.405 18.8221 327.254 19.3846 327.254 20.0096C327.254 20.6554 327.426 21.2492 327.77 21.7908C328.114 22.3325 328.598 22.7648 329.223 23.0877C329.848 23.4002 330.572 23.5565 331.395 23.5565C332.52 23.5565 333.515 23.3637 334.379 22.9783C335.254 22.5825 335.989 22.0512 336.582 21.3846C337.176 20.7075 337.608 19.9262 337.879 19.0408L338.426 19.9471C338.249 20.4992 337.973 21.0565 337.598 21.619C337.223 22.1815 336.739 22.6971 336.145 23.1658C335.551 23.6242 334.853 23.9992 334.051 24.2908C333.249 24.5721 332.338 24.7127 331.317 24.7127C330.244 24.7127 329.306 24.5148 328.504 24.119C327.713 23.7127 327.098 23.1606 326.661 22.4627C326.223 21.7544 326.004 20.9471 326.004 20.0408C326.004 19.2596 326.181 18.546 326.536 17.9002C326.89 17.2544 327.4 16.7023 328.067 16.244C328.744 15.7752 329.562 15.421 330.52 15.1815C331.489 14.9315 332.577 14.8065 333.786 14.8065H338.004Z" fill="white"/>
<path d="M345.348 10.369V24.4002H344.114V7.49396H345.332L345.348 10.369ZM351.786 7.36896L351.707 8.49396C351.52 8.46271 351.332 8.43667 351.145 8.41583C350.957 8.395 350.759 8.38458 350.551 8.38458C349.655 8.38458 348.869 8.56167 348.192 8.91583C347.525 9.27 346.963 9.75437 346.504 10.369C346.056 10.9835 345.718 11.6971 345.489 12.5096C345.259 13.3221 345.14 14.1919 345.129 15.119L344.52 15.244C344.52 14.0877 344.64 13.02 344.879 12.0408C345.129 11.0617 345.504 10.2075 346.004 9.47833C346.504 8.74917 347.134 8.18667 347.895 7.79083C348.655 7.38458 349.551 7.18146 350.582 7.18146C350.832 7.18146 351.062 7.20229 351.27 7.24396C351.478 7.27521 351.65 7.31687 351.786 7.36896Z" fill="white"/>
</svg>
