<svg width="273" height="46" viewBox="0 0 273 46" fill="none" xmlns="http://www.w3.org/2000/svg">
<path d="M20.916 10.378V33.128H15.4473L7.40042 18.9717V33.128H1.91605V10.378H7.40042L15.4473 24.5342V10.378H20.916ZM34.7598 16.2217H39.541V32.4717C39.541 34.0342 39.1817 35.3572 38.4629 36.4405C37.7442 37.5342 36.739 38.3624 35.4473 38.9249C34.166 39.4978 32.666 39.7842 30.9473 39.7842C30.1869 39.7842 29.4108 39.6853 28.6192 39.4874C27.8275 39.2999 27.0879 39.0186 26.4004 38.6436C25.7129 38.2686 25.1348 37.8051 24.666 37.253L26.8692 34.1592C27.2963 34.6384 27.8327 35.0447 28.4785 35.378C29.1244 35.7217 29.8848 35.8936 30.7598 35.8936C31.5202 35.8936 32.1556 35.7582 32.666 35.4874C33.1869 35.2165 33.5827 34.8207 33.8535 34.2999C34.1244 33.7894 34.2598 33.1697 34.2598 32.4405V20.2217L34.7598 16.2217ZM23.5254 24.878V24.5499C23.5254 23.2686 23.6817 22.1019 23.9942 21.0499C24.3171 19.9874 24.7754 19.0759 25.3692 18.3155C25.9733 17.5447 26.7025 16.9509 27.5567 16.5342C28.4108 16.1176 29.3744 15.9092 30.4473 15.9092C31.6035 15.9092 32.5515 16.1332 33.291 16.5811C34.041 17.0186 34.64 17.6332 35.0879 18.4249C35.5463 19.2165 35.9004 20.1436 36.1504 21.2061C36.4108 22.2582 36.6296 23.3936 36.8067 24.6124V25.003C36.6296 26.1488 36.3848 27.2322 36.0723 28.253C35.7702 29.2634 35.3744 30.1592 34.8848 30.9405C34.3952 31.7217 33.7806 32.3363 33.041 32.7842C32.3119 33.2217 31.4369 33.4405 30.416 33.4405C29.3535 33.4405 28.3952 33.2269 27.541 32.7999C26.6973 32.3728 25.9733 31.7738 25.3692 31.003C24.7754 30.2322 24.3171 29.3259 23.9942 28.2842C23.6817 27.2426 23.5254 26.1072 23.5254 24.878ZM28.791 24.5499V24.878C28.791 25.5134 28.8483 26.1019 28.9629 26.6436C29.0879 27.1853 29.2754 27.6644 29.5254 28.0811C29.7754 28.4874 30.0827 28.8051 30.4473 29.0342C30.8223 29.2634 31.2598 29.378 31.7598 29.378C32.5202 29.378 33.1348 29.2165 33.6035 28.8936C34.0723 28.5707 34.4108 28.1124 34.6192 27.5186C34.8275 26.9249 34.916 26.2269 34.8848 25.4249V24.1905C34.9056 23.503 34.8588 22.8988 34.7442 22.378C34.6296 21.8467 34.4473 21.404 34.1973 21.0499C33.9577 20.6957 33.6348 20.4301 33.2285 20.253C32.8327 20.0655 32.3535 19.9717 31.791 19.9717C31.3015 19.9717 30.8692 20.0863 30.4942 20.3155C30.1192 20.5447 29.8067 20.8676 29.5567 21.2842C29.3067 21.6905 29.114 22.1749 28.9785 22.7374C28.8535 23.2894 28.791 23.8936 28.791 24.5499ZM51.9004 25.4092H46.2442V21.1749H51.9004C52.6713 21.1749 53.2963 21.0447 53.7754 20.7842C54.2546 20.5238 54.6035 20.1644 54.8223 19.7061C55.0515 19.2374 55.166 18.7113 55.166 18.128C55.166 17.503 55.0515 16.9249 54.8223 16.3936C54.6035 15.8624 54.2546 15.4353 53.7754 15.1124C53.2963 14.779 52.6713 14.6124 51.9004 14.6124H48.3067V33.128H42.8223V10.378H51.9004C53.7233 10.378 55.291 10.7113 56.6035 11.378C57.9265 12.0447 58.9421 12.9613 59.6504 14.128C60.3588 15.2842 60.7129 16.6072 60.7129 18.0967C60.7129 19.5655 60.3588 20.8467 59.6504 21.9405C58.9421 23.0342 57.9265 23.8884 56.6035 24.503C55.291 25.1072 53.7233 25.4092 51.9004 25.4092ZM72.0098 28.878V21.9092C72.0098 21.4301 71.9421 21.0186 71.8067 20.6749C71.6713 20.3311 71.4577 20.0655 71.166 19.878C70.8744 19.6801 70.4838 19.5811 69.9942 19.5811C69.5983 19.5811 69.2598 19.6488 68.9785 19.7842C68.6973 19.9197 68.4838 20.1228 68.3379 20.3936C68.1921 20.6644 68.1192 21.0082 68.1192 21.4249H62.8535C62.8535 20.6436 63.0254 19.9197 63.3692 19.253C63.7233 18.5759 64.2233 17.9874 64.8692 17.4874C65.5254 16.9874 66.3067 16.6019 67.2129 16.3311C68.1296 16.0499 69.1504 15.9092 70.2754 15.9092C71.6192 15.9092 72.8171 16.1332 73.8692 16.5811C74.9317 17.029 75.7702 17.7009 76.3848 18.5967C76.9994 19.4822 77.3067 20.5967 77.3067 21.9405V28.8624C77.3067 29.9665 77.3692 30.8051 77.4942 31.378C77.6192 31.9405 77.7963 32.4353 78.0254 32.8624V33.128H72.7442C72.4942 32.6072 72.3067 31.9717 72.1817 31.2217C72.0671 30.4613 72.0098 29.6801 72.0098 28.878ZM72.6504 22.7999L72.6817 25.6124H70.3535C69.864 25.6124 69.4473 25.6801 69.1035 25.8155C68.7702 25.9509 68.4994 26.1384 68.291 26.378C68.0931 26.6072 67.9473 26.8676 67.8535 27.1592C67.7702 27.4509 67.7285 27.7582 67.7285 28.0811C67.7285 28.3936 67.8015 28.6749 67.9473 28.9249C68.1035 29.1644 68.3119 29.3519 68.5723 29.4874C68.8327 29.6228 69.1244 29.6905 69.4473 29.6905C70.0306 29.6905 70.5254 29.5811 70.9317 29.3624C71.3483 29.1332 71.666 28.8572 71.8848 28.5342C72.1035 28.2113 72.2129 27.9092 72.2129 27.628L73.3692 29.7842C73.1608 30.2009 72.9213 30.6228 72.6504 31.0499C72.39 31.4769 72.0619 31.8728 71.666 32.2374C71.2806 32.5915 70.8067 32.8832 70.2442 33.1124C69.6817 33.3311 68.9994 33.4405 68.1973 33.4405C67.1556 33.4405 66.1973 33.2269 65.3223 32.7999C64.4577 32.3728 63.765 31.779 63.2442 31.0186C62.7233 30.2478 62.4629 29.3624 62.4629 28.3624C62.4629 27.4874 62.6192 26.7061 62.9317 26.0186C63.2546 25.3311 63.739 24.7478 64.3848 24.2686C65.0306 23.7894 65.8535 23.4249 66.8535 23.1749C67.8535 22.9249 69.0306 22.7999 70.3848 22.7999H72.6504ZM89.1348 16.2217V19.878H78.9473V16.2217H89.1348ZM81.0879 12.0186H86.3535V27.6124C86.3535 28.0603 86.4056 28.4092 86.5098 28.6592C86.614 28.8988 86.791 29.0707 87.041 29.1749C87.3015 29.2686 87.6452 29.3155 88.0723 29.3155C88.3744 29.3155 88.6244 29.3103 88.8223 29.2999C89.0202 29.279 89.2077 29.253 89.3848 29.2217V32.9874C88.9369 33.1332 88.4681 33.2426 87.9785 33.3155C87.489 33.3988 86.9681 33.4405 86.416 33.4405C85.291 33.4405 84.3275 33.2634 83.5254 32.9092C82.7338 32.5551 82.1296 31.9978 81.7129 31.2374C81.2963 30.4769 81.0879 29.4874 81.0879 28.2686V12.0186Z" fill="white"/>
<path d="M105.998 29.0126L109.889 16.6219H110.873L109.842 20.5438L105.67 33.5282H104.67L105.998 29.0126ZM100.967 16.6219L104.467 29.0282L105.53 33.5282H104.53L99.6234 16.6219H100.967ZM116.498 29.0126L119.952 16.6219H121.311L116.389 33.5282H115.389L116.498 29.0126ZM111.045 16.6219L114.92 28.9657L116.248 33.5282H115.248L111.014 20.5438L110.045 16.6219H111.045ZM126.686 16.6219V33.5282H125.436V16.6219H126.686ZM125.045 11.4969C125.045 11.2157 125.139 10.9761 125.327 10.7782C125.524 10.5699 125.774 10.4657 126.077 10.4657C126.368 10.4657 126.613 10.5699 126.811 10.7782C127.009 10.9761 127.108 11.2157 127.108 11.4969C127.108 11.7782 127.009 12.0178 126.811 12.2157C126.613 12.4032 126.368 12.4969 126.077 12.4969C125.774 12.4969 125.524 12.4032 125.327 12.2157C125.139 12.0178 125.045 11.7782 125.045 11.4969ZM138.077 16.6219V17.7469H129.983V16.6219H138.077ZM133.108 12.1532H134.358V29.4501C134.358 30.3563 134.467 31.0438 134.686 31.5126C134.915 31.9709 135.212 32.2834 135.577 32.4501C135.952 32.6063 136.353 32.6844 136.78 32.6844C137.082 32.6844 137.358 32.6688 137.608 32.6376C137.868 32.6063 138.129 32.5699 138.389 32.5282L138.498 33.6219C138.269 33.6949 137.972 33.7469 137.608 33.7782C137.243 33.8199 136.92 33.8407 136.639 33.8407C135.931 33.8407 135.311 33.7105 134.78 33.4501C134.248 33.1897 133.837 32.7417 133.545 32.1063C133.254 31.4605 133.108 30.5751 133.108 29.4501V12.1532ZM143.498 9.5282V33.5282H142.264V9.5282H143.498ZM143.264 23.7782L142.655 23.0594C142.748 22.1636 142.967 21.3094 143.311 20.4969C143.665 19.6844 144.129 18.9657 144.702 18.3407C145.285 17.7157 145.962 17.2209 146.733 16.8563C147.514 16.4917 148.373 16.3094 149.311 16.3094C150.155 16.3094 150.91 16.4292 151.577 16.6688C152.243 16.898 152.806 17.2626 153.264 17.7626C153.733 18.2626 154.087 18.9084 154.327 19.7001C154.566 20.4813 154.686 21.4344 154.686 22.5594V33.5282H153.452V22.5594C153.452 21.2261 153.269 20.1949 152.905 19.4657C152.54 18.7261 152.03 18.2053 151.373 17.9032C150.728 17.6011 149.972 17.4501 149.108 17.4501C148.108 17.4501 147.243 17.674 146.514 18.1219C145.795 18.5594 145.202 19.1167 144.733 19.7938C144.264 20.4605 143.905 21.1532 143.655 21.8719C143.415 22.5907 143.285 23.2261 143.264 23.7782ZM174.858 11.7469L166.764 33.5282H165.42L173.967 10.7782H175.014L174.858 11.7469ZM182.514 33.5282L174.436 11.7469L174.28 10.7782H175.311L183.873 33.5282H182.514ZM180.514 25.7313V26.9032H168.842V25.7313H180.514ZM188.217 20.2313V33.5282H186.983V16.6219H188.202L188.217 20.2313ZM187.983 23.7782L187.373 23.0594C187.467 22.1636 187.686 21.3094 188.03 20.4969C188.384 19.6844 188.847 18.9657 189.42 18.3407C190.004 17.7157 190.681 17.2209 191.452 16.8563C192.233 16.4917 193.092 16.3094 194.03 16.3094C194.873 16.3094 195.629 16.4292 196.295 16.6688C196.962 16.898 197.524 17.2626 197.983 17.7626C198.452 18.2626 198.806 18.9084 199.045 19.7001C199.285 20.4813 199.405 21.4344 199.405 22.5594V33.5282H198.17V22.5594C198.17 21.2261 197.988 20.1949 197.623 19.4657C197.259 18.7261 196.748 18.2053 196.092 17.9032C195.446 17.6011 194.691 17.4501 193.827 17.4501C192.827 17.4501 191.962 17.674 191.233 18.1219C190.514 18.5594 189.92 19.1167 189.452 19.7938C188.983 20.4605 188.623 21.1532 188.373 21.8719C188.134 22.5907 188.004 23.2261 187.983 23.7782ZM215.78 16.6219H216.983V33.2626C216.983 34.7105 216.717 35.9605 216.186 37.0126C215.655 38.0751 214.899 38.8876 213.92 39.4501C212.952 40.023 211.79 40.3094 210.436 40.3094C209.665 40.3094 208.925 40.1949 208.217 39.9657C207.519 39.7365 206.873 39.4032 206.28 38.9657C205.696 38.5386 205.191 38.0334 204.764 37.4501L205.53 36.6688C206.196 37.4917 206.92 38.1167 207.702 38.5438C208.493 38.9709 209.384 39.1844 210.373 39.1844C211.54 39.1844 212.519 38.9449 213.311 38.4657C214.103 37.9865 214.702 37.3042 215.108 36.4188C215.514 35.5438 215.717 34.5022 215.717 33.2938V20.3407L215.78 16.6219ZM203.764 25.2313V24.9032C203.764 23.5803 203.91 22.3928 204.202 21.3407C204.493 20.2782 204.915 19.3772 205.467 18.6376C206.019 17.8876 206.691 17.3147 207.483 16.9188C208.285 16.5126 209.191 16.3094 210.202 16.3094C211.149 16.3094 211.988 16.4605 212.717 16.7626C213.457 17.0542 214.097 17.4761 214.639 18.0282C215.191 18.5699 215.639 19.2105 215.983 19.9501C216.337 20.6792 216.603 21.4865 216.78 22.3719V28.2001C216.644 28.9813 216.41 29.7157 216.077 30.4032C215.743 31.0803 215.3 31.6792 214.748 32.2001C214.196 32.7105 213.54 33.1115 212.78 33.4032C212.019 33.6949 211.149 33.8407 210.17 33.8407C209.17 33.8407 208.274 33.6324 207.483 33.2157C206.691 32.799 206.019 32.2105 205.467 31.4501C204.915 30.6897 204.493 29.7834 204.202 28.7313C203.91 27.6792 203.764 26.5126 203.764 25.2313ZM205.03 24.9032V25.2313C205.03 26.3042 205.134 27.2938 205.342 28.2001C205.561 29.1063 205.884 29.8928 206.311 30.5594C206.748 31.2261 207.3 31.7469 207.967 32.1219C208.634 32.4969 209.41 32.6844 210.295 32.6844C211.441 32.6844 212.405 32.4761 213.186 32.0594C213.967 31.6428 214.592 31.0907 215.061 30.4032C215.53 29.7157 215.858 28.9553 216.045 28.1219V22.6063C215.931 22.0751 215.754 21.5126 215.514 20.9188C215.274 20.3147 214.936 19.7522 214.498 19.2313C214.071 18.7105 213.519 18.2886 212.842 17.9657C212.165 17.6324 211.327 17.4657 210.327 17.4657C209.431 17.4657 208.644 17.6532 207.967 18.0282C207.3 18.4032 206.748 18.924 206.311 19.5907C205.884 20.2574 205.561 21.0438 205.342 21.9501C205.134 22.8563 205.03 23.8407 205.03 24.9032ZM233.311 29.6219V16.6219H234.561V33.5282H233.327L233.311 29.6219ZM233.53 26.7469L234.342 26.7157C234.342 27.7469 234.212 28.6949 233.952 29.5594C233.702 30.424 233.306 31.1792 232.764 31.8251C232.233 32.4605 231.545 32.9553 230.702 33.3094C229.858 33.6636 228.847 33.8407 227.67 33.8407C226.847 33.8407 226.092 33.7261 225.405 33.4969C224.728 33.2574 224.139 32.8824 223.639 32.3719C223.149 31.8615 222.769 31.1949 222.498 30.3719C222.238 29.549 222.108 28.5542 222.108 27.3876V16.6219H223.342V27.4188C223.342 28.398 223.452 29.2261 223.67 29.9032C223.899 30.5803 224.212 31.1219 224.608 31.5282C225.004 31.9344 225.467 32.2313 225.998 32.4188C226.53 32.5959 227.108 32.6844 227.733 32.6844C229.191 32.6844 230.342 32.4032 231.186 31.8407C232.04 31.2782 232.644 30.5438 232.998 29.6376C233.353 28.7313 233.53 27.7678 233.53 26.7469ZM241.186 9.5282V33.5282H239.936V9.5282H241.186ZM257.061 30.4188V21.6844C257.061 20.799 256.873 20.0386 256.498 19.4032C256.123 18.7678 255.577 18.2834 254.858 17.9501C254.139 17.6063 253.259 17.4344 252.217 17.4344C251.248 17.4344 250.379 17.6063 249.608 17.9501C248.847 18.2834 248.248 18.7417 247.811 19.3251C247.373 19.9084 247.155 20.5594 247.155 21.2782L245.905 21.2626C245.905 20.6167 246.056 19.9969 246.358 19.4032C246.67 18.8094 247.108 18.2834 247.67 17.8251C248.243 17.3563 248.915 16.9865 249.686 16.7157C250.467 16.4449 251.321 16.3094 252.248 16.3094C253.436 16.3094 254.483 16.5126 255.389 16.9188C256.306 17.3147 257.019 17.9136 257.53 18.7157C258.04 19.5178 258.295 20.5178 258.295 21.7157V30.0594C258.295 30.6636 258.337 31.273 258.42 31.8876C258.504 32.5022 258.618 32.9969 258.764 33.3719V33.5282H257.405C257.29 33.1324 257.202 32.648 257.139 32.0751C257.087 31.5022 257.061 30.9501 257.061 30.4188ZM257.467 23.9344L257.498 25.0126H253.373C252.332 25.0126 251.399 25.1115 250.577 25.3094C249.754 25.5074 249.056 25.7886 248.483 26.1532C247.91 26.5178 247.472 26.9501 247.17 27.4501C246.868 27.9501 246.717 28.5126 246.717 29.1376C246.717 29.7834 246.889 30.3772 247.233 30.9188C247.577 31.4605 248.061 31.8928 248.686 32.2157C249.311 32.5282 250.035 32.6844 250.858 32.6844C251.983 32.6844 252.978 32.4917 253.842 32.1063C254.717 31.7105 255.452 31.1792 256.045 30.5126C256.639 29.8355 257.071 29.0542 257.342 28.1688L257.889 29.0751C257.712 29.6272 257.436 30.1844 257.061 30.7469C256.686 31.3094 256.202 31.8251 255.608 32.2938C255.014 32.7522 254.316 33.1272 253.514 33.4188C252.712 33.7001 251.8 33.8407 250.78 33.8407C249.707 33.8407 248.769 33.6428 247.967 33.2469C247.175 32.8407 246.561 32.2886 246.123 31.5907C245.686 30.8824 245.467 30.0751 245.467 29.1688C245.467 28.3876 245.644 27.674 245.998 27.0282C246.353 26.3824 246.863 25.8303 247.53 25.3719C248.207 24.9032 249.024 24.549 249.983 24.3094C250.952 24.0594 252.04 23.9344 253.248 23.9344H257.467ZM264.811 19.4969V33.5282H263.577V16.6219H264.795L264.811 19.4969ZM271.248 16.4969L271.17 17.6219C270.983 17.5907 270.795 17.5647 270.608 17.5438C270.42 17.523 270.222 17.5126 270.014 17.5126C269.118 17.5126 268.332 17.6897 267.655 18.0438C266.988 18.398 266.425 18.8824 265.967 19.4969C265.519 20.1115 265.181 20.8251 264.952 21.6376C264.722 22.4501 264.603 23.3199 264.592 24.2469L263.983 24.3719C263.983 23.2157 264.103 22.148 264.342 21.1688C264.592 20.1897 264.967 19.3355 265.467 18.6063C265.967 17.8772 266.597 17.3147 267.358 16.9188C268.118 16.5126 269.014 16.3094 270.045 16.3094C270.295 16.3094 270.524 16.3303 270.733 16.3719C270.941 16.4032 271.113 16.4449 271.248 16.4969Z" fill="white"/>
</svg>
