<svg width="271" height="32" viewBox="0 0 271 32" fill="none" xmlns="http://www.w3.org/2000/svg">
<path d="M19.916 1.37799V24.128H14.4473L6.40042 9.97174V24.128H0.916046V1.37799H6.40042L14.4473 15.5342V1.37799H19.916Z" fill="white"/>
<path d="M33.7598 7.22174H38.541V23.4717C38.541 25.0342 38.1817 26.3572 37.4629 27.4405C36.7442 28.5342 35.739 29.3624 34.4473 29.9249C33.166 30.4978 31.666 30.7842 29.9473 30.7842C29.1869 30.7842 28.4108 30.6853 27.6192 30.4874C26.8275 30.2999 26.0879 30.0186 25.4004 29.6436C24.7129 29.2686 24.1348 28.8051 23.666 28.253L25.8692 25.1592C26.2963 25.6384 26.8327 26.0447 27.4785 26.378C28.1244 26.7217 28.8848 26.8936 29.7598 26.8936C30.5202 26.8936 31.1556 26.7582 31.666 26.4874C32.1869 26.2165 32.5827 25.8207 32.8535 25.2999C33.1244 24.7894 33.2598 24.1697 33.2598 23.4405V11.2217L33.7598 7.22174ZM22.5254 15.878V15.5499C22.5254 14.2686 22.6817 13.1019 22.9942 12.0499C23.3171 10.9874 23.7754 10.0759 24.3692 9.31549C24.9733 8.54466 25.7025 7.95091 26.5567 7.53424C27.4108 7.11757 28.3744 6.90924 29.4473 6.90924C30.6035 6.90924 31.5515 7.1332 32.291 7.58112C33.041 8.01862 33.64 8.6332 34.0879 9.42487C34.5463 10.2165 34.9004 11.1436 35.1504 12.2061C35.4108 13.2582 35.6296 14.3936 35.8067 15.6124V16.003C35.6296 17.1488 35.3848 18.2322 35.0723 19.253C34.7702 20.2634 34.3744 21.1592 33.8848 21.9405C33.3952 22.7217 32.7806 23.3363 32.041 23.7842C31.3119 24.2217 30.4369 24.4405 29.416 24.4405C28.3535 24.4405 27.3952 24.2269 26.541 23.7999C25.6973 23.3728 24.9733 22.7738 24.3692 22.003C23.7754 21.2322 23.3171 20.3259 22.9942 19.2842C22.6817 18.2426 22.5254 17.1072 22.5254 15.878ZM27.791 15.5499V15.878C27.791 16.5134 27.8483 17.1019 27.9629 17.6436C28.0879 18.1853 28.2754 18.6644 28.5254 19.0811C28.7754 19.4874 29.0827 19.8051 29.4473 20.0342C29.8223 20.2634 30.2598 20.378 30.7598 20.378C31.5202 20.378 32.1348 20.2165 32.6035 19.8936C33.0723 19.5707 33.4108 19.1124 33.6192 18.5186C33.8275 17.9249 33.916 17.2269 33.8848 16.4249V15.1905C33.9056 14.503 33.8588 13.8988 33.7442 13.378C33.6296 12.8467 33.4473 12.404 33.1973 12.0499C32.9577 11.6957 32.6348 11.4301 32.2285 11.253C31.8327 11.0655 31.3535 10.9717 30.791 10.9717C30.3015 10.9717 29.8692 11.0863 29.4942 11.3155C29.1192 11.5447 28.8067 11.8676 28.5567 12.2842C28.3067 12.6905 28.114 13.1749 27.9785 13.7374C27.8535 14.2894 27.791 14.8936 27.791 15.5499Z" fill="white"/>
<path d="M50.9004 16.4092H45.2442V12.1749H50.9004C51.6713 12.1749 52.2963 12.0447 52.7754 11.7842C53.2546 11.5238 53.6035 11.1644 53.8223 10.7061C54.0515 10.2374 54.166 9.71132 54.166 9.12799C54.166 8.50299 54.0515 7.92487 53.8223 7.39362C53.6035 6.86237 53.2546 6.43528 52.7754 6.11237C52.2963 5.77903 51.6713 5.61237 50.9004 5.61237H47.3067V24.128H41.8223V1.37799H50.9004C52.7233 1.37799 54.291 1.71132 55.6035 2.37799C56.9265 3.04466 57.9421 3.96132 58.6504 5.12799C59.3588 6.28424 59.7129 7.60716 59.7129 9.09674C59.7129 10.5655 59.3588 11.8467 58.6504 12.9405C57.9421 14.0342 56.9265 14.8884 55.6035 15.503C54.291 16.1072 52.7233 16.4092 50.9004 16.4092Z" fill="white"/>
<path d="M71.0098 19.878V12.9092C71.0098 12.4301 70.9421 12.0186 70.8067 11.6749C70.6713 11.3311 70.4577 11.0655 70.166 10.878C69.8744 10.6801 69.4838 10.5811 68.9942 10.5811C68.5983 10.5811 68.2598 10.6488 67.9785 10.7842C67.6973 10.9197 67.4838 11.1228 67.3379 11.3936C67.1921 11.6644 67.1192 12.0082 67.1192 12.4249H61.8535C61.8535 11.6436 62.0254 10.9197 62.3692 10.253C62.7233 9.57591 63.2233 8.98737 63.8692 8.48737C64.5254 7.98737 65.3067 7.60195 66.2129 7.33112C67.1296 7.04987 68.1504 6.90924 69.2754 6.90924C70.6192 6.90924 71.8171 7.1332 72.8692 7.58112C73.9317 8.02903 74.7702 8.70091 75.3848 9.59674C75.9994 10.4822 76.3067 11.5967 76.3067 12.9405V19.8624C76.3067 20.9665 76.3692 21.8051 76.4942 22.378C76.6192 22.9405 76.7963 23.4353 77.0254 23.8624V24.128H71.7442C71.4942 23.6072 71.3067 22.9717 71.1817 22.2217C71.0671 21.4613 71.0098 20.6801 71.0098 19.878ZM71.6504 13.7999L71.6817 16.6124H69.3535C68.864 16.6124 68.4473 16.6801 68.1035 16.8155C67.7702 16.9509 67.4994 17.1384 67.291 17.378C67.0931 17.6072 66.9473 17.8676 66.8535 18.1592C66.7702 18.4509 66.7285 18.7582 66.7285 19.0811C66.7285 19.3936 66.8015 19.6749 66.9473 19.9249C67.1035 20.1644 67.3119 20.3519 67.5723 20.4874C67.8327 20.6228 68.1244 20.6905 68.4473 20.6905C69.0306 20.6905 69.5254 20.5811 69.9317 20.3624C70.3483 20.1332 70.666 19.8572 70.8848 19.5342C71.1035 19.2113 71.2129 18.9092 71.2129 18.628L72.3692 20.7842C72.1608 21.2009 71.9213 21.6228 71.6504 22.0499C71.39 22.4769 71.0619 22.8728 70.666 23.2374C70.2806 23.5915 69.8067 23.8832 69.2442 24.1124C68.6817 24.3311 67.9994 24.4405 67.1973 24.4405C66.1556 24.4405 65.1973 24.2269 64.3223 23.7999C63.4577 23.3728 62.765 22.779 62.2442 22.0186C61.7233 21.2478 61.4629 20.3624 61.4629 19.3624C61.4629 18.4874 61.6192 17.7061 61.9317 17.0186C62.2546 16.3311 62.739 15.7478 63.3848 15.2686C64.0306 14.7894 64.8535 14.4249 65.8535 14.1749C66.8535 13.9249 68.0306 13.7999 69.3848 13.7999H71.6504Z" fill="white"/>
<path d="M88.1348 7.22174V10.878H77.9473V7.22174H88.1348ZM80.0879 3.01862H85.3535V18.6124C85.3535 19.0603 85.4056 19.4092 85.5098 19.6592C85.614 19.8988 85.791 20.0707 86.041 20.1749C86.3015 20.2686 86.6452 20.3155 87.0723 20.3155C87.3744 20.3155 87.6244 20.3103 87.8223 20.2999C88.0202 20.279 88.2077 20.253 88.3848 20.2217V23.9874C87.9369 24.1332 87.4681 24.2426 86.9785 24.3155C86.489 24.3988 85.9681 24.4405 85.416 24.4405C84.291 24.4405 83.3275 24.2634 82.5254 23.9092C81.7338 23.5551 81.1296 22.9978 80.7129 22.2374C80.2963 21.4769 80.0879 20.4874 80.0879 19.2686V3.01862Z" fill="white"/>
<path d="M104.998 20.0126L108.889 7.62195H109.873L108.842 11.5438L104.67 24.5282H103.67L104.998 20.0126ZM99.9671 7.62195L103.467 20.0282L104.53 24.5282H103.53L98.6234 7.62195H99.9671ZM115.498 20.0126L118.952 7.62195H120.311L115.389 24.5282H114.389L115.498 20.0126ZM110.045 7.62195L113.92 19.9657L115.248 24.5282H114.248L110.014 11.5438L109.045 7.62195H110.045Z" fill="white"/>
<path d="M125.686 7.62195V24.5282H124.436V7.62195H125.686ZM124.045 2.49695C124.045 2.2157 124.139 1.97611 124.327 1.7782C124.524 1.56986 124.774 1.4657 125.077 1.4657C125.368 1.4657 125.613 1.56986 125.811 1.7782C126.009 1.97611 126.108 2.2157 126.108 2.49695C126.108 2.7782 126.009 3.01778 125.811 3.2157C125.613 3.4032 125.368 3.49695 125.077 3.49695C124.774 3.49695 124.524 3.4032 124.327 3.2157C124.139 3.01778 124.045 2.7782 124.045 2.49695Z" fill="white"/>
<path d="M137.077 7.62195V8.74695H128.983V7.62195H137.077ZM132.108 3.1532H133.358V20.4501C133.358 21.3563 133.467 22.0438 133.686 22.5126C133.915 22.9709 134.212 23.2834 134.577 23.4501C134.952 23.6063 135.353 23.6844 135.78 23.6844C136.082 23.6844 136.358 23.6688 136.608 23.6376C136.868 23.6063 137.129 23.5699 137.389 23.5282L137.498 24.6219C137.269 24.6949 136.972 24.7469 136.608 24.7782C136.243 24.8199 135.92 24.8407 135.639 24.8407C134.931 24.8407 134.311 24.7105 133.78 24.4501C133.248 24.1897 132.837 23.7417 132.545 23.1063C132.254 22.4605 132.108 21.5751 132.108 20.4501V3.1532Z" fill="white"/>
<path d="M142.498 0.528198V24.5282H141.264V0.528198H142.498ZM142.264 14.7782L141.655 14.0594C141.748 13.1636 141.967 12.3094 142.311 11.4969C142.665 10.6844 143.129 9.9657 143.702 9.3407C144.285 8.7157 144.962 8.22091 145.733 7.85632C146.514 7.49174 147.373 7.30945 148.311 7.30945C149.155 7.30945 149.91 7.42924 150.577 7.66882C151.243 7.89799 151.806 8.26257 152.264 8.76257C152.733 9.26257 153.087 9.90841 153.327 10.7001C153.566 11.4813 153.686 12.4344 153.686 13.5594V24.5282H152.452V13.5594C152.452 12.2261 152.269 11.1949 151.905 10.4657C151.54 9.72611 151.03 9.20528 150.373 8.9032C149.728 8.60111 148.972 8.45007 148.108 8.45007C147.108 8.45007 146.243 8.67403 145.514 9.12195C144.795 9.55945 144.202 10.1167 143.733 10.7938C143.264 11.4605 142.905 12.1532 142.655 12.8719C142.415 13.5907 142.285 14.2261 142.264 14.7782Z" fill="white"/>
<path d="M173.858 2.74695L165.764 24.5282H164.42L172.967 1.7782H174.014L173.858 2.74695ZM181.514 24.5282L173.436 2.74695L173.28 1.7782H174.311L182.873 24.5282H181.514ZM179.514 16.7313V17.9032H167.842V16.7313H179.514Z" fill="white"/>
<path d="M187.217 11.2313V24.5282H185.983V7.62195H187.202L187.217 11.2313ZM186.983 14.7782L186.373 14.0594C186.467 13.1636 186.686 12.3094 187.03 11.4969C187.384 10.6844 187.847 9.9657 188.42 9.3407C189.004 8.7157 189.681 8.22091 190.452 7.85632C191.233 7.49174 192.092 7.30945 193.03 7.30945C193.873 7.30945 194.629 7.42924 195.295 7.66882C195.962 7.89799 196.524 8.26257 196.983 8.76257C197.452 9.26257 197.806 9.90841 198.045 10.7001C198.285 11.4813 198.405 12.4344 198.405 13.5594V24.5282H197.17V13.5594C197.17 12.2261 196.988 11.1949 196.623 10.4657C196.259 9.72611 195.748 9.20528 195.092 8.9032C194.446 8.60111 193.691 8.45007 192.827 8.45007C191.827 8.45007 190.962 8.67403 190.233 9.12195C189.514 9.55945 188.92 10.1167 188.452 10.7938C187.983 11.4605 187.623 12.1532 187.373 12.8719C187.134 13.5907 187.004 14.2261 186.983 14.7782Z" fill="white"/>
<path d="M214.78 7.62195H215.983V24.2626C215.983 25.7105 215.717 26.9605 215.186 28.0126C214.655 29.0751 213.899 29.8876 212.92 30.4501C211.952 31.023 210.79 31.3094 209.436 31.3094C208.665 31.3094 207.925 31.1949 207.217 30.9657C206.519 30.7365 205.873 30.4032 205.28 29.9657C204.696 29.5386 204.191 29.0334 203.764 28.4501L204.53 27.6688C205.196 28.4917 205.92 29.1167 206.702 29.5438C207.493 29.9709 208.384 30.1844 209.373 30.1844C210.54 30.1844 211.519 29.9449 212.311 29.4657C213.103 28.9865 213.702 28.3042 214.108 27.4188C214.514 26.5438 214.717 25.5022 214.717 24.2938V11.3407L214.78 7.62195ZM202.764 16.2313V15.9032C202.764 14.5803 202.91 13.3928 203.202 12.3407C203.493 11.2782 203.915 10.3772 204.467 9.63757C205.019 8.88757 205.691 8.31466 206.483 7.91882C207.285 7.51257 208.191 7.30945 209.202 7.30945C210.149 7.30945 210.988 7.46049 211.717 7.76257C212.457 8.05424 213.097 8.47611 213.639 9.0282C214.191 9.56986 214.639 10.2105 214.983 10.9501C215.337 11.6792 215.603 12.4865 215.78 13.3719V19.2001C215.644 19.9813 215.41 20.7157 215.077 21.4032C214.743 22.0803 214.3 22.6792 213.748 23.2001C213.196 23.7105 212.54 24.1115 211.78 24.4032C211.019 24.6949 210.149 24.8407 209.17 24.8407C208.17 24.8407 207.274 24.6324 206.483 24.2157C205.691 23.799 205.019 23.2105 204.467 22.4501C203.915 21.6897 203.493 20.7834 203.202 19.7313C202.91 18.6792 202.764 17.5126 202.764 16.2313ZM204.03 15.9032V16.2313C204.03 17.3042 204.134 18.2938 204.342 19.2001C204.561 20.1063 204.884 20.8928 205.311 21.5594C205.748 22.2261 206.3 22.7469 206.967 23.1219C207.634 23.4969 208.41 23.6844 209.295 23.6844C210.441 23.6844 211.405 23.4761 212.186 23.0594C212.967 22.6428 213.592 22.0907 214.061 21.4032C214.53 20.7157 214.858 19.9553 215.045 19.1219V13.6063C214.931 13.0751 214.754 12.5126 214.514 11.9188C214.274 11.3147 213.936 10.7522 213.498 10.2313C213.071 9.71049 212.519 9.28861 211.842 8.9657C211.165 8.63236 210.327 8.4657 209.327 8.4657C208.431 8.4657 207.644 8.6532 206.967 9.0282C206.3 9.4032 205.748 9.92403 205.311 10.5907C204.884 11.2574 204.561 12.0438 204.342 12.9501C204.134 13.8563 204.03 14.8407 204.03 15.9032Z" fill="white"/>
<path d="M232.311 20.6219V7.62195H233.561V24.5282H232.327L232.311 20.6219ZM232.53 17.7469L233.342 17.7157C233.342 18.7469 233.212 19.6949 232.952 20.5594C232.702 21.424 232.306 22.1792 231.764 22.8251C231.233 23.4605 230.545 23.9553 229.702 24.3094C228.858 24.6636 227.847 24.8407 226.67 24.8407C225.847 24.8407 225.092 24.7261 224.405 24.4969C223.728 24.2574 223.139 23.8824 222.639 23.3719C222.149 22.8615 221.769 22.1949 221.498 21.3719C221.238 20.549 221.108 19.5542 221.108 18.3876V7.62195H222.342V18.4188C222.342 19.398 222.452 20.2261 222.67 20.9032C222.899 21.5803 223.212 22.1219 223.608 22.5282C224.004 22.9344 224.467 23.2313 224.998 23.4188C225.53 23.5959 226.108 23.6844 226.733 23.6844C228.191 23.6844 229.342 23.4032 230.186 22.8407C231.04 22.2782 231.644 21.5438 231.998 20.6376C232.353 19.7313 232.53 18.7678 232.53 17.7469Z" fill="white"/>
<path d="M240.186 0.528198V24.5282H238.936V0.528198H240.186Z" fill="white"/>
<path d="M256.061 21.4188V12.6844C256.061 11.799 255.873 11.0386 255.498 10.4032C255.123 9.76778 254.577 9.28341 253.858 8.95007C253.139 8.60632 252.259 8.43445 251.217 8.43445C250.248 8.43445 249.379 8.60632 248.608 8.95007C247.847 9.28341 247.248 9.74174 246.811 10.3251C246.373 10.9084 246.155 11.5594 246.155 12.2782L244.905 12.2626C244.905 11.6167 245.056 10.9969 245.358 10.4032C245.67 9.80945 246.108 9.28341 246.67 8.82507C247.243 8.35632 247.915 7.98653 248.686 7.7157C249.467 7.44486 250.321 7.30945 251.248 7.30945C252.436 7.30945 253.483 7.51257 254.389 7.91882C255.306 8.31466 256.019 8.91361 256.53 9.7157C257.04 10.5178 257.295 11.5178 257.295 12.7157V21.0594C257.295 21.6636 257.337 22.273 257.42 22.8876C257.504 23.5022 257.618 23.9969 257.764 24.3719V24.5282H256.405C256.29 24.1324 256.202 23.648 256.139 23.0751C256.087 22.5022 256.061 21.9501 256.061 21.4188ZM256.467 14.9344L256.498 16.0126H252.373C251.332 16.0126 250.399 16.1115 249.577 16.3094C248.754 16.5074 248.056 16.7886 247.483 17.1532C246.91 17.5178 246.472 17.9501 246.17 18.4501C245.868 18.9501 245.717 19.5126 245.717 20.1376C245.717 20.7834 245.889 21.3772 246.233 21.9188C246.577 22.4605 247.061 22.8928 247.686 23.2157C248.311 23.5282 249.035 23.6844 249.858 23.6844C250.983 23.6844 251.978 23.4917 252.842 23.1063C253.717 22.7105 254.452 22.1792 255.045 21.5126C255.639 20.8355 256.071 20.0542 256.342 19.1688L256.889 20.0751C256.712 20.6272 256.436 21.1844 256.061 21.7469C255.686 22.3094 255.202 22.8251 254.608 23.2938C254.014 23.7522 253.316 24.1272 252.514 24.4188C251.712 24.7001 250.8 24.8407 249.78 24.8407C248.707 24.8407 247.769 24.6428 246.967 24.2469C246.175 23.8407 245.561 23.2886 245.123 22.5907C244.686 21.8824 244.467 21.0751 244.467 20.1688C244.467 19.3876 244.644 18.674 244.998 18.0282C245.353 17.3824 245.863 16.8303 246.53 16.3719C247.207 15.9032 248.024 15.549 248.983 15.3094C249.952 15.0594 251.04 14.9344 252.248 14.9344H256.467Z" fill="white"/>
<path d="M263.811 10.4969V24.5282H262.577V7.62195H263.795L263.811 10.4969ZM270.248 7.49695L270.17 8.62195C269.983 8.5907 269.795 8.56466 269.608 8.54382C269.42 8.52299 269.222 8.51257 269.014 8.51257C268.118 8.51257 267.332 8.68966 266.655 9.04382C265.988 9.39799 265.425 9.88236 264.967 10.4969C264.519 11.1115 264.181 11.8251 263.952 12.6376C263.722 13.4501 263.603 14.3199 263.592 15.2469L262.983 15.3719C262.983 14.2157 263.103 13.148 263.342 12.1688C263.592 11.1897 263.967 10.3355 264.467 9.60632C264.967 8.87716 265.597 8.31466 266.358 7.91882C267.118 7.51257 268.014 7.30945 269.045 7.30945C269.295 7.30945 269.524 7.33028 269.733 7.37195C269.941 7.4032 270.113 7.44486 270.248 7.49695Z" fill="white"/>
</svg>
