<svg width="91" height="45" viewBox="0 0 91 45" fill="none" xmlns="http://www.w3.org/2000/svg">
<path d="M20.916 10.25V33H15.4473L7.40042 18.8438V33H1.91605V10.25H7.40042L15.4473 24.4062V10.25H20.916ZM34.7598 16.0938H39.541V32.3438C39.541 33.9062 39.1817 35.2292 38.4629 36.3125C37.7442 37.4062 36.739 38.2344 35.4473 38.7969C34.166 39.3698 32.666 39.6562 30.9473 39.6562C30.1869 39.6562 29.4108 39.5573 28.6192 39.3594C27.8275 39.1719 27.0879 38.8906 26.4004 38.5156C25.7129 38.1406 25.1348 37.6771 24.666 37.125L26.8692 34.0312C27.2963 34.5104 27.8327 34.9167 28.4785 35.25C29.1244 35.5938 29.8848 35.7656 30.7598 35.7656C31.5202 35.7656 32.1556 35.6302 32.666 35.3594C33.1869 35.0885 33.5827 34.6927 33.8535 34.1719C34.1244 33.6615 34.2598 33.0417 34.2598 32.3125V20.0938L34.7598 16.0938ZM23.5254 24.75V24.4219C23.5254 23.1406 23.6817 21.974 23.9942 20.9219C24.3171 19.8594 24.7754 18.9479 25.3692 18.1875C25.9733 17.4167 26.7025 16.8229 27.5567 16.4062C28.4108 15.9896 29.3744 15.7812 30.4473 15.7812C31.6035 15.7812 32.5515 16.0052 33.291 16.4531C34.041 16.8906 34.64 17.5052 35.0879 18.2969C35.5463 19.0885 35.9004 20.0156 36.1504 21.0781C36.4108 22.1302 36.6296 23.2656 36.8067 24.4844V24.875C36.6296 26.0208 36.3848 27.1042 36.0723 28.125C35.7702 29.1354 35.3744 30.0312 34.8848 30.8125C34.3952 31.5938 33.7806 32.2083 33.041 32.6562C32.3119 33.0938 31.4369 33.3125 30.416 33.3125C29.3535 33.3125 28.3952 33.099 27.541 32.6719C26.6973 32.2448 25.9733 31.6458 25.3692 30.875C24.7754 30.1042 24.3171 29.1979 23.9942 28.1562C23.6817 27.1146 23.5254 25.9792 23.5254 24.75ZM28.791 24.4219V24.75C28.791 25.3854 28.8483 25.974 28.9629 26.5156C29.0879 27.0573 29.2754 27.5365 29.5254 27.9531C29.7754 28.3594 30.0827 28.6771 30.4473 28.9062C30.8223 29.1354 31.2598 29.25 31.7598 29.25C32.5202 29.25 33.1348 29.0885 33.6035 28.7656C34.0723 28.4427 34.4108 27.9844 34.6192 27.3906C34.8275 26.7969 34.916 26.099 34.8848 25.2969V24.0625C34.9056 23.375 34.8588 22.7708 34.7442 22.25C34.6296 21.7188 34.4473 21.276 34.1973 20.9219C33.9577 20.5677 33.6348 20.3021 33.2285 20.125C32.8327 19.9375 32.3535 19.8438 31.791 19.8438C31.3015 19.8438 30.8692 19.9583 30.4942 20.1875C30.1192 20.4167 29.8067 20.7396 29.5567 21.1562C29.3067 21.5625 29.114 22.0469 28.9785 22.6094C28.8535 23.1615 28.791 23.7656 28.791 24.4219ZM51.9004 25.2812H46.2442V21.0469H51.9004C52.6713 21.0469 53.2963 20.9167 53.7754 20.6562C54.2546 20.3958 54.6035 20.0365 54.8223 19.5781C55.0515 19.1094 55.166 18.5833 55.166 18C55.166 17.375 55.0515 16.7969 54.8223 16.2656C54.6035 15.7344 54.2546 15.3073 53.7754 14.9844C53.2963 14.651 52.6713 14.4844 51.9004 14.4844H48.3067V33H42.8223V10.25H51.9004C53.7233 10.25 55.291 10.5833 56.6035 11.25C57.9265 11.9167 58.9421 12.8333 59.6504 14C60.3588 15.1562 60.7129 16.4792 60.7129 17.9688C60.7129 19.4375 60.3588 20.7188 59.6504 21.8125C58.9421 22.9062 57.9265 23.7604 56.6035 24.375C55.291 24.9792 53.7233 25.2812 51.9004 25.2812ZM72.0098 28.75V21.7812C72.0098 21.3021 71.9421 20.8906 71.8067 20.5469C71.6713 20.2031 71.4577 19.9375 71.166 19.75C70.8744 19.5521 70.4838 19.4531 69.9942 19.4531C69.5983 19.4531 69.2598 19.5208 68.9785 19.6562C68.6973 19.7917 68.4838 19.9948 68.3379 20.2656C68.1921 20.5365 68.1192 20.8802 68.1192 21.2969H62.8535C62.8535 20.5156 63.0254 19.7917 63.3692 19.125C63.7233 18.4479 64.2233 17.8594 64.8692 17.3594C65.5254 16.8594 66.3067 16.474 67.2129 16.2031C68.1296 15.9219 69.1504 15.7812 70.2754 15.7812C71.6192 15.7812 72.8171 16.0052 73.8692 16.4531C74.9317 16.901 75.7702 17.5729 76.3848 18.4688C76.9994 19.3542 77.3067 20.4688 77.3067 21.8125V28.7344C77.3067 29.8385 77.3692 30.6771 77.4942 31.25C77.6192 31.8125 77.7963 32.3073 78.0254 32.7344V33H72.7442C72.4942 32.4792 72.3067 31.8438 72.1817 31.0938C72.0671 30.3333 72.0098 29.5521 72.0098 28.75ZM72.6504 22.6719L72.6817 25.4844H70.3535C69.864 25.4844 69.4473 25.5521 69.1035 25.6875C68.7702 25.8229 68.4994 26.0104 68.291 26.25C68.0931 26.4792 67.9473 26.7396 67.8535 27.0312C67.7702 27.3229 67.7285 27.6302 67.7285 27.9531C67.7285 28.2656 67.8015 28.5469 67.9473 28.7969C68.1035 29.0365 68.3119 29.224 68.5723 29.3594C68.8327 29.4948 69.1244 29.5625 69.4473 29.5625C70.0306 29.5625 70.5254 29.4531 70.9317 29.2344C71.3483 29.0052 71.666 28.7292 71.8848 28.4062C72.1035 28.0833 72.2129 27.7812 72.2129 27.5L73.3692 29.6562C73.1608 30.0729 72.9213 30.4948 72.6504 30.9219C72.39 31.349 72.0619 31.7448 71.666 32.1094C71.2806 32.4635 70.8067 32.7552 70.2442 32.9844C69.6817 33.2031 68.9994 33.3125 68.1973 33.3125C67.1556 33.3125 66.1973 33.099 65.3223 32.6719C64.4577 32.2448 63.765 31.651 63.2442 30.8906C62.7233 30.1198 62.4629 29.2344 62.4629 28.2344C62.4629 27.3594 62.6192 26.5781 62.9317 25.8906C63.2546 25.2031 63.739 24.6198 64.3848 24.1406C65.0306 23.6615 65.8535 23.2969 66.8535 23.0469C67.8535 22.7969 69.0306 22.6719 70.3848 22.6719H72.6504ZM89.1348 16.0938V19.75H78.9473V16.0938H89.1348ZM81.0879 11.8906H86.3535V27.4844C86.3535 27.9323 86.4056 28.2812 86.5098 28.5312C86.614 28.7708 86.791 28.9427 87.041 29.0469C87.3015 29.1406 87.6452 29.1875 88.0723 29.1875C88.3744 29.1875 88.6244 29.1823 88.8223 29.1719C89.0202 29.151 89.2077 29.125 89.3848 29.0938V32.8594C88.9369 33.0052 88.4681 33.1146 87.9785 33.1875C87.489 33.2708 86.9681 33.3125 86.416 33.3125C85.291 33.3125 84.3275 33.1354 83.5254 32.7812C82.7338 32.4271 82.1296 31.8698 81.7129 31.1094C81.2963 30.349 81.0879 29.3594 81.0879 28.1406V11.8906Z" fill="white"/>
</svg>
