<svg width="89" height="30" viewBox="0 0 89 30" fill="none" xmlns="http://www.w3.org/2000/svg">
<path d="M19.916 0.25V23H14.4473L6.40042 8.84375V23H0.916046V0.25H6.40042L14.4473 14.4062V0.25H19.916Z" fill="white"/>
<path d="M33.7598 6.09375H38.541V22.3438C38.541 23.9062 38.1817 25.2292 37.4629 26.3125C36.7442 27.4062 35.739 28.2344 34.4473 28.7969C33.166 29.3698 31.666 29.6562 29.9473 29.6562C29.1869 29.6562 28.4108 29.5573 27.6192 29.3594C26.8275 29.1719 26.0879 28.8906 25.4004 28.5156C24.7129 28.1406 24.1348 27.6771 23.666 27.125L25.8692 24.0312C26.2963 24.5104 26.8327 24.9167 27.4785 25.25C28.1244 25.5938 28.8848 25.7656 29.7598 25.7656C30.5202 25.7656 31.1556 25.6302 31.666 25.3594C32.1869 25.0885 32.5827 24.6927 32.8535 24.1719C33.1244 23.6615 33.2598 23.0417 33.2598 22.3125V10.0938L33.7598 6.09375ZM22.5254 14.75V14.4219C22.5254 13.1406 22.6817 11.974 22.9942 10.9219C23.3171 9.85938 23.7754 8.94792 24.3692 8.1875C24.9733 7.41667 25.7025 6.82292 26.5567 6.40625C27.4108 5.98958 28.3744 5.78125 29.4473 5.78125C30.6035 5.78125 31.5515 6.00521 32.291 6.45312C33.041 6.89062 33.64 7.50521 34.0879 8.29688C34.5463 9.08854 34.9004 10.0156 35.1504 11.0781C35.4108 12.1302 35.6296 13.2656 35.8067 14.4844V14.875C35.6296 16.0208 35.3848 17.1042 35.0723 18.125C34.7702 19.1354 34.3744 20.0312 33.8848 20.8125C33.3952 21.5938 32.7806 22.2083 32.041 22.6562C31.3119 23.0938 30.4369 23.3125 29.416 23.3125C28.3535 23.3125 27.3952 23.099 26.541 22.6719C25.6973 22.2448 24.9733 21.6458 24.3692 20.875C23.7754 20.1042 23.3171 19.1979 22.9942 18.1562C22.6817 17.1146 22.5254 15.9792 22.5254 14.75ZM27.791 14.4219V14.75C27.791 15.3854 27.8483 15.974 27.9629 16.5156C28.0879 17.0573 28.2754 17.5365 28.5254 17.9531C28.7754 18.3594 29.0827 18.6771 29.4473 18.9062C29.8223 19.1354 30.2598 19.25 30.7598 19.25C31.5202 19.25 32.1348 19.0885 32.6035 18.7656C33.0723 18.4427 33.4108 17.9844 33.6192 17.3906C33.8275 16.7969 33.916 16.099 33.8848 15.2969V14.0625C33.9056 13.375 33.8588 12.7708 33.7442 12.25C33.6296 11.7188 33.4473 11.276 33.1973 10.9219C32.9577 10.5677 32.6348 10.3021 32.2285 10.125C31.8327 9.9375 31.3535 9.84375 30.791 9.84375C30.3015 9.84375 29.8692 9.95833 29.4942 10.1875C29.1192 10.4167 28.8067 10.7396 28.5567 11.1562C28.3067 11.5625 28.114 12.0469 27.9785 12.6094C27.8535 13.1615 27.791 13.7656 27.791 14.4219Z" fill="white"/>
<path d="M50.9004 15.2812H45.2442V11.0469H50.9004C51.6713 11.0469 52.2963 10.9167 52.7754 10.6562C53.2546 10.3958 53.6035 10.0365 53.8223 9.57812C54.0515 9.10938 54.166 8.58333 54.166 8C54.166 7.375 54.0515 6.79688 53.8223 6.26562C53.6035 5.73438 53.2546 5.30729 52.7754 4.98438C52.2963 4.65104 51.6713 4.48438 50.9004 4.48438H47.3067V23H41.8223V0.25H50.9004C52.7233 0.25 54.291 0.583333 55.6035 1.25C56.9265 1.91667 57.9421 2.83333 58.6504 4C59.3588 5.15625 59.7129 6.47917 59.7129 7.96875C59.7129 9.4375 59.3588 10.7188 58.6504 11.8125C57.9421 12.9062 56.9265 13.7604 55.6035 14.375C54.291 14.9792 52.7233 15.2812 50.9004 15.2812Z" fill="white"/>
<path d="M71.0098 18.75V11.7812C71.0098 11.3021 70.9421 10.8906 70.8067 10.5469C70.6713 10.2031 70.4577 9.9375 70.166 9.75C69.8744 9.55208 69.4838 9.45312 68.9942 9.45312C68.5983 9.45312 68.2598 9.52083 67.9785 9.65625C67.6973 9.79167 67.4838 9.99479 67.3379 10.2656C67.1921 10.5365 67.1192 10.8802 67.1192 11.2969H61.8535C61.8535 10.5156 62.0254 9.79167 62.3692 9.125C62.7233 8.44792 63.2233 7.85938 63.8692 7.35938C64.5254 6.85938 65.3067 6.47396 66.2129 6.20312C67.1296 5.92188 68.1504 5.78125 69.2754 5.78125C70.6192 5.78125 71.8171 6.00521 72.8692 6.45312C73.9317 6.90104 74.7702 7.57292 75.3848 8.46875C75.9994 9.35417 76.3067 10.4688 76.3067 11.8125V18.7344C76.3067 19.8385 76.3692 20.6771 76.4942 21.25C76.6192 21.8125 76.7963 22.3073 77.0254 22.7344V23H71.7442C71.4942 22.4792 71.3067 21.8438 71.1817 21.0938C71.0671 20.3333 71.0098 19.5521 71.0098 18.75ZM71.6504 12.6719L71.6817 15.4844H69.3535C68.864 15.4844 68.4473 15.5521 68.1035 15.6875C67.7702 15.8229 67.4994 16.0104 67.291 16.25C67.0931 16.4792 66.9473 16.7396 66.8535 17.0312C66.7702 17.3229 66.7285 17.6302 66.7285 17.9531C66.7285 18.2656 66.8015 18.5469 66.9473 18.7969C67.1035 19.0365 67.3119 19.224 67.5723 19.3594C67.8327 19.4948 68.1244 19.5625 68.4473 19.5625C69.0306 19.5625 69.5254 19.4531 69.9317 19.2344C70.3483 19.0052 70.666 18.7292 70.8848 18.4062C71.1035 18.0833 71.2129 17.7812 71.2129 17.5L72.3692 19.6562C72.1608 20.0729 71.9213 20.4948 71.6504 20.9219C71.39 21.349 71.0619 21.7448 70.666 22.1094C70.2806 22.4635 69.8067 22.7552 69.2442 22.9844C68.6817 23.2031 67.9994 23.3125 67.1973 23.3125C66.1556 23.3125 65.1973 23.099 64.3223 22.6719C63.4577 22.2448 62.765 21.651 62.2442 20.8906C61.7233 20.1198 61.4629 19.2344 61.4629 18.2344C61.4629 17.3594 61.6192 16.5781 61.9317 15.8906C62.2546 15.2031 62.739 14.6198 63.3848 14.1406C64.0306 13.6615 64.8535 13.2969 65.8535 13.0469C66.8535 12.7969 68.0306 12.6719 69.3848 12.6719H71.6504Z" fill="white"/>
<path d="M88.1348 6.09375V9.75H77.9473V6.09375H88.1348ZM80.0879 1.89062H85.3535V17.4844C85.3535 17.9323 85.4056 18.2812 85.5098 18.5312C85.614 18.7708 85.791 18.9427 86.041 19.0469C86.3015 19.1406 86.6452 19.1875 87.0723 19.1875C87.3744 19.1875 87.6244 19.1823 87.8223 19.1719C88.0202 19.151 88.2077 19.125 88.3848 19.0938V22.8594C87.9369 23.0052 87.4681 23.1146 86.9785 23.1875C86.489 23.2708 85.9681 23.3125 85.416 23.3125C84.291 23.3125 83.3275 23.1354 82.5254 22.7812C81.7338 22.4271 81.1296 21.8698 80.7129 21.1094C80.2963 20.349 80.0879 19.3594 80.0879 18.1406V1.89062Z" fill="white"/>
</svg>
