<svg width="372" height="33" viewBox="0 0 372 33" fill="none" xmlns="http://www.w3.org/2000/svg">
<rect x="0.678772" y="0.47406" width="371" height="32" />
<path d="M13.1006 1.55219H18.585V16.4116C18.585 18.1824 18.2152 19.6824 17.4756 20.9116C16.7361 22.1303 15.6996 23.0522 14.3663 23.6772C13.0329 24.3022 11.4652 24.6147 9.66315 24.6147C7.8819 24.6147 6.31419 24.3022 4.96002 23.6772C3.61627 23.0522 2.56419 22.1303 1.80377 20.9116C1.05377 19.6824 0.678772 18.1824 0.678772 16.4116V1.55219H6.17877V16.4116C6.17877 17.3491 6.31419 18.1147 6.58502 18.7084C6.85586 19.2918 7.25169 19.7189 7.77252 19.9897C8.29336 20.2605 8.92356 20.3959 9.66315 20.3959C10.4131 20.3959 11.0434 20.2605 11.5538 19.9897C12.0642 19.7189 12.4496 19.2918 12.71 18.7084C12.9704 18.1147 13.1006 17.3491 13.1006 16.4116V1.55219Z" fill="white"/>
<path d="M27.3506 7.39594V24.3022H22.0694V7.39594H27.3506ZM21.7569 3.03656C21.7569 2.28656 22.0277 1.67198 22.5694 1.19281C23.1111 0.713643 23.8142 0.47406 24.6788 0.47406C25.5434 0.47406 26.2465 0.713643 26.7881 1.19281C27.3298 1.67198 27.6006 2.28656 27.6006 3.03656C27.6006 3.78656 27.3298 4.40114 26.7881 4.88031C26.2465 5.35948 25.5434 5.59906 24.6788 5.59906C23.8142 5.59906 23.1111 5.35948 22.5694 4.88031C22.0277 4.40114 21.7569 3.78656 21.7569 3.03656Z" fill="white"/>
<path d="M43.1944 1.55219H48.6788V16.4116C48.6788 18.1824 48.309 19.6824 47.5694 20.9116C46.8298 22.1303 45.7934 23.0522 44.46 23.6772C43.1267 24.3022 41.559 24.6147 39.7569 24.6147C37.9756 24.6147 36.4079 24.3022 35.0538 23.6772C33.71 23.0522 32.6579 22.1303 31.8975 20.9116C31.1475 19.6824 30.7725 18.1824 30.7725 16.4116V1.55219H36.2725V16.4116C36.2725 17.3491 36.4079 18.1147 36.6788 18.7084C36.9496 19.2918 37.3454 19.7189 37.8663 19.9897C38.3871 20.2605 39.0173 20.3959 39.7569 20.3959C40.5069 20.3959 41.1371 20.2605 41.6475 19.9897C42.1579 19.7189 42.5434 19.2918 42.8038 18.7084C43.0642 18.1147 43.1944 17.3491 43.1944 16.4116V1.55219Z" fill="white"/>
<path d="M56.3506 7.39594L58.7256 12.0522L61.1788 7.39594H66.6475L62.21 15.6303L66.8819 24.3022H61.3663L58.7256 19.3022L56.1006 24.3022H50.585L55.2569 15.6303L50.835 7.39594H56.3506Z" fill="white"/>
<path d="M79.1049 11.0461V31.2024H77.8549V7.79614H79.058L79.1049 11.0461ZM91.0736 16.0774V16.4055C91.0736 17.6868 90.9278 18.8534 90.6361 19.9055C90.3549 20.9576 89.9382 21.8639 89.3861 22.6243C88.8445 23.3847 88.1778 23.9732 87.3861 24.3899C86.5945 24.8066 85.6934 25.0149 84.683 25.0149C83.7143 25.0149 82.8445 24.8743 82.0736 24.593C81.3028 24.3014 80.6361 23.8951 80.0736 23.3743C79.5111 22.8534 79.058 22.2597 78.7143 21.593C78.3705 20.9159 78.1309 20.192 77.9955 19.4211V13.5461C78.1726 12.6607 78.4382 11.8534 78.7924 11.1243C79.157 10.3847 79.6101 9.74406 80.1518 9.20239C80.7038 8.65031 81.3549 8.22843 82.1049 7.93677C82.8549 7.63468 83.7038 7.48364 84.6518 7.48364C85.6622 7.48364 86.5632 7.68677 87.3549 8.09302C88.157 8.48885 88.8341 9.06177 89.3861 9.81177C89.9382 10.5514 90.3549 11.4524 90.6361 12.5149C90.9278 13.567 91.0736 14.7545 91.0736 16.0774ZM89.808 16.4055V16.0774C89.808 15.0149 89.6986 14.0305 89.4799 13.1243C89.2716 12.218 88.9486 11.4316 88.5111 10.7649C88.0736 10.0982 87.5216 9.57739 86.8549 9.20239C86.1882 8.82739 85.4018 8.63989 84.4955 8.63989C83.5059 8.63989 82.6674 8.80656 81.9799 9.13989C81.2924 9.46281 80.7247 9.88468 80.2768 10.4055C79.8393 10.9264 79.5007 11.4889 79.2611 12.093C79.0216 12.6868 78.8445 13.2493 78.7299 13.7805V19.3274C78.9174 20.1607 79.2507 20.9211 79.7299 21.6086C80.2091 22.2961 80.8445 22.8482 81.6361 23.2649C82.4382 23.6711 83.4018 23.8743 84.5268 23.8743C85.433 23.8743 86.2143 23.6868 86.8705 23.3118C87.5268 22.9368 88.0736 22.4159 88.5111 21.7493C88.9486 21.0826 89.2716 20.2961 89.4799 19.3899C89.6986 18.4732 89.808 17.4784 89.808 16.4055Z" fill="white"/>
<path d="M105.996 21.593V12.8586C105.996 11.9732 105.808 11.2128 105.433 10.5774C105.058 9.94198 104.511 9.4576 103.792 9.12427C103.074 8.78052 102.193 8.60864 101.152 8.60864C100.183 8.60864 99.3132 8.78052 98.5424 9.12427C97.782 9.4576 97.183 9.91593 96.7455 10.4993C96.308 11.0826 96.0893 11.7336 96.0893 12.4524L94.8393 12.4368C94.8393 11.7909 94.9903 11.1711 95.2924 10.5774C95.6049 9.98364 96.0424 9.4576 96.6049 8.99927C97.1778 8.53052 97.8497 8.16073 98.6205 7.88989C99.4018 7.61906 100.256 7.48364 101.183 7.48364C102.371 7.48364 103.417 7.68677 104.324 8.09302C105.24 8.48885 105.954 9.08781 106.464 9.88989C106.975 10.692 107.23 11.692 107.23 12.8899V21.2336C107.23 21.8378 107.272 22.4472 107.355 23.0618C107.438 23.6764 107.553 24.1711 107.699 24.5461V24.7024H106.339C106.225 24.3066 106.136 23.8222 106.074 23.2493C106.022 22.6764 105.996 22.1243 105.996 21.593ZM106.402 15.1086L106.433 16.1868H102.308C101.266 16.1868 100.334 16.2857 99.5111 16.4836C98.6882 16.6816 97.9903 16.9628 97.4174 17.3274C96.8445 17.692 96.407 18.1243 96.1049 18.6243C95.8028 19.1243 95.6518 19.6868 95.6518 20.3118C95.6518 20.9576 95.8236 21.5514 96.1674 22.093C96.5111 22.6347 96.9955 23.067 97.6205 23.3899C98.2455 23.7024 98.9695 23.8586 99.7924 23.8586C100.917 23.8586 101.912 23.6659 102.777 23.2805C103.652 22.8847 104.386 22.3534 104.98 21.6868C105.574 21.0097 106.006 20.2284 106.277 19.343L106.824 20.2493C106.647 20.8014 106.371 21.3586 105.996 21.9211C105.621 22.4836 105.136 22.9993 104.542 23.468C103.949 23.9264 103.251 24.3014 102.449 24.593C101.647 24.8743 100.735 25.0149 99.7143 25.0149C98.6413 25.0149 97.7038 24.817 96.9018 24.4211C96.1101 24.0149 95.4955 23.4628 95.058 22.7649C94.6205 22.0566 94.4018 21.2493 94.4018 20.343C94.4018 19.5618 94.5788 18.8482 94.933 18.2024C95.2872 17.5566 95.7976 17.0045 96.4643 16.5461C97.1413 16.0774 97.9591 15.7232 98.9174 15.4836C99.8861 15.2336 100.975 15.1086 102.183 15.1086H106.402Z" fill="white"/>
<path d="M118.511 7.79614V8.92114H110.417V7.79614H118.511ZM113.542 3.32739H114.792V20.6243C114.792 21.5305 114.902 22.218 115.121 22.6868C115.35 23.1451 115.647 23.4576 116.011 23.6243C116.386 23.7805 116.787 23.8586 117.214 23.8586C117.516 23.8586 117.792 23.843 118.042 23.8118C118.303 23.7805 118.563 23.7441 118.824 23.7024L118.933 24.7961C118.704 24.8691 118.407 24.9211 118.042 24.9524C117.678 24.9941 117.355 25.0149 117.074 25.0149C116.365 25.0149 115.746 24.8847 115.214 24.6243C114.683 24.3639 114.272 23.9159 113.98 23.2805C113.688 22.6347 113.542 21.7493 113.542 20.6243V3.32739Z" fill="white"/>
<path d="M128.699 7.79614V8.92114H120.605V7.79614H128.699ZM123.73 3.32739H124.98V20.6243C124.98 21.5305 125.089 22.218 125.308 22.6868C125.537 23.1451 125.834 23.4576 126.199 23.6243C126.574 23.7805 126.975 23.8586 127.402 23.8586C127.704 23.8586 127.98 23.843 128.23 23.8118C128.49 23.7805 128.751 23.7441 129.011 23.7024L129.121 24.7961C128.891 24.8691 128.594 24.9211 128.23 24.9524C127.865 24.9941 127.542 25.0149 127.261 25.0149C126.553 25.0149 125.933 24.8847 125.402 24.6243C124.871 24.3639 124.459 23.9159 124.167 23.2805C123.876 22.6347 123.73 21.7493 123.73 20.6243V3.32739Z" fill="white"/>
<path d="M139.152 25.0149C138.089 25.0149 137.105 24.8118 136.199 24.4055C135.292 23.9889 134.501 23.4107 133.824 22.6711C133.147 21.9211 132.615 21.0357 132.23 20.0149C131.855 18.9941 131.667 17.8743 131.667 16.6555V15.968C131.667 14.7076 131.855 13.5618 132.23 12.5305C132.615 11.4889 133.136 10.593 133.792 9.84302C134.449 9.0826 135.204 8.49927 136.058 8.09302C136.923 7.68677 137.844 7.48364 138.824 7.48364C139.813 7.48364 140.709 7.66593 141.511 8.03052C142.313 8.3951 143.001 8.90552 143.574 9.56177C144.147 10.218 144.584 10.9993 144.886 11.9055C145.188 12.8118 145.339 13.8118 145.339 14.9055V15.9524H132.449V14.8118H144.105V14.6086C144.094 13.5461 143.876 12.5618 143.449 11.6555C143.032 10.7493 142.433 10.0201 141.652 9.46802C140.871 8.90552 139.928 8.62427 138.824 8.62427C137.938 8.62427 137.131 8.81177 136.402 9.18677C135.683 9.56177 135.063 10.0826 134.542 10.7493C134.022 11.4055 133.621 12.1816 133.339 13.0774C133.058 13.9628 132.917 14.9264 132.917 15.968V16.6555C132.917 17.6555 133.074 18.593 133.386 19.468C133.699 20.343 134.136 21.1139 134.699 21.7805C135.261 22.4368 135.923 22.9524 136.683 23.3274C137.443 23.7024 138.277 23.8899 139.183 23.8899C140.162 23.8899 141.058 23.718 141.871 23.3743C142.683 23.0305 143.423 22.4264 144.089 21.5618L144.902 22.1711C144.527 22.7128 144.074 23.1972 143.542 23.6243C143.011 24.0514 142.381 24.3899 141.652 24.6399C140.933 24.8899 140.1 25.0149 139.152 25.0149Z" fill="white"/>
<path d="M150.433 10.6711V24.7024H149.199V7.79614H150.417L150.433 10.6711ZM156.871 7.67114L156.792 8.79614C156.605 8.76489 156.417 8.73885 156.23 8.71802C156.042 8.69718 155.844 8.68677 155.636 8.68677C154.74 8.68677 153.954 8.86385 153.277 9.21802C152.61 9.57218 152.048 10.0566 151.589 10.6711C151.141 11.2857 150.803 11.9993 150.574 12.8118C150.344 13.6243 150.225 14.4941 150.214 15.4211L149.605 15.5461C149.605 14.3899 149.725 13.3222 149.964 12.343C150.214 11.3639 150.589 10.5097 151.089 9.78052C151.589 9.05135 152.219 8.48885 152.98 8.09302C153.74 7.68677 154.636 7.48364 155.667 7.48364C155.917 7.48364 156.147 7.50448 156.355 7.54614C156.563 7.57739 156.735 7.61906 156.871 7.67114Z" fill="white"/>
<path d="M161.183 11.4055V24.7024H159.949V7.79614H161.167L161.183 11.4055ZM160.949 14.9524L160.339 14.2336C160.433 13.3378 160.652 12.4836 160.996 11.6711C161.35 10.8586 161.813 10.1399 162.386 9.51489C162.969 8.88989 163.647 8.3951 164.417 8.03052C165.199 7.66593 166.058 7.48364 166.996 7.48364C167.839 7.48364 168.594 7.60343 169.261 7.84302C169.928 8.07218 170.49 8.43677 170.949 8.93677C171.417 9.43677 171.772 10.0826 172.011 10.8743C172.251 11.6555 172.371 12.6086 172.371 13.7336V24.7024H171.136V13.7336C171.136 12.4003 170.954 11.3691 170.589 10.6399C170.225 9.90031 169.714 9.37948 169.058 9.07739C168.412 8.77531 167.657 8.62427 166.792 8.62427C165.792 8.62427 164.928 8.84823 164.199 9.29614C163.48 9.73364 162.886 10.2909 162.417 10.968C161.949 11.6347 161.589 12.3274 161.339 13.0461C161.1 13.7649 160.969 14.4003 160.949 14.9524Z" fill="white"/>
<path d="M187.824 20.4993C187.824 19.9993 187.688 19.5045 187.417 19.0149C187.157 18.5253 186.673 18.067 185.964 17.6399C185.266 17.2128 184.251 16.8534 182.917 16.5618C181.969 16.3534 181.131 16.1243 180.402 15.8743C179.683 15.6243 179.079 15.3222 178.589 14.968C178.1 14.6034 177.73 14.1711 177.48 13.6711C177.24 13.1711 177.121 12.5722 177.121 11.8743C177.121 11.2701 177.251 10.7024 177.511 10.1711C177.772 9.63989 178.152 9.17635 178.652 8.78052C179.162 8.37427 179.772 8.05656 180.48 7.82739C181.188 7.59823 181.99 7.48364 182.886 7.48364C184.167 7.48364 185.261 7.69718 186.167 8.12427C187.084 8.54093 187.787 9.11906 188.277 9.85864C188.766 10.5878 189.011 11.4368 189.011 12.4055H187.761C187.761 11.7493 187.574 11.1347 187.199 10.5618C186.824 9.98885 186.272 9.52531 185.542 9.17114C184.824 8.80656 183.938 8.62427 182.886 8.62427C181.824 8.62427 180.959 8.78573 180.292 9.10864C179.626 9.43156 179.136 9.84302 178.824 10.343C178.522 10.8326 178.371 11.3326 178.371 11.843C178.371 12.2493 178.428 12.6295 178.542 12.9836C178.667 13.3274 178.902 13.6451 179.246 13.9368C179.589 14.2284 180.084 14.5097 180.73 14.7805C181.376 15.0409 182.214 15.2857 183.246 15.5149C184.6 15.817 185.704 16.1868 186.558 16.6243C187.412 17.0514 188.042 17.5774 188.449 18.2024C188.855 18.817 189.058 19.5722 189.058 20.468C189.058 21.1347 188.917 21.7493 188.636 22.3118C188.355 22.8639 187.949 23.343 187.417 23.7493C186.897 24.1555 186.261 24.468 185.511 24.6868C184.761 24.9055 183.928 25.0149 183.011 25.0149C181.626 25.0149 180.449 24.7961 179.48 24.3586C178.522 23.9107 177.792 23.3222 177.292 22.593C176.803 21.8639 176.558 21.0774 176.558 20.2336H177.808C177.881 21.1607 178.183 21.8899 178.714 22.4211C179.256 22.9524 179.912 23.3274 180.683 23.5461C181.464 23.7649 182.24 23.8743 183.011 23.8743C184.063 23.8743 184.943 23.7128 185.652 23.3899C186.371 23.0566 186.912 22.6347 187.277 22.1243C187.641 21.6034 187.824 21.0618 187.824 20.4993Z" fill="white"/>
<path d="M206.214 20.1868L210.105 7.79614H211.089L210.058 11.718L205.886 24.7024H204.886L206.214 20.1868ZM201.183 7.79614L204.683 20.2024L205.746 24.7024H204.746L199.839 7.79614H201.183ZM216.714 20.1868L220.167 7.79614H221.527L216.605 24.7024H215.605L216.714 20.1868ZM211.261 7.79614L215.136 20.1399L216.464 24.7024H215.464L211.23 11.718L210.261 7.79614H211.261Z" fill="white"/>
<path d="M226.902 7.79614V24.7024H225.652V7.79614H226.902ZM225.261 2.67114C225.261 2.38989 225.355 2.15031 225.542 1.95239C225.74 1.74406 225.99 1.63989 226.292 1.63989C226.584 1.63989 226.829 1.74406 227.027 1.95239C227.225 2.15031 227.324 2.38989 227.324 2.67114C227.324 2.95239 227.225 3.19198 227.027 3.38989C226.829 3.57739 226.584 3.67114 226.292 3.67114C225.99 3.67114 225.74 3.57739 225.542 3.38989C225.355 3.19198 225.261 2.95239 225.261 2.67114Z" fill="white"/>
<path d="M238.292 7.79614V8.92114H230.199V7.79614H238.292ZM233.324 3.32739H234.574V20.6243C234.574 21.5305 234.683 22.218 234.902 22.6868C235.131 23.1451 235.428 23.4576 235.792 23.6243C236.167 23.7805 236.568 23.8586 236.996 23.8586C237.298 23.8586 237.574 23.843 237.824 23.8118C238.084 23.7805 238.344 23.7441 238.605 23.7024L238.714 24.7961C238.485 24.8691 238.188 24.9211 237.824 24.9524C237.459 24.9941 237.136 25.0149 236.855 25.0149C236.147 25.0149 235.527 24.8847 234.996 24.6243C234.464 24.3639 234.053 23.9159 233.761 23.2805C233.469 22.6347 233.324 21.7493 233.324 20.6243V3.32739Z" fill="white"/>
<path d="M243.714 0.702393V24.7024H242.48V0.702393H243.714ZM243.48 14.9524L242.871 14.2336C242.964 13.3378 243.183 12.4836 243.527 11.6711C243.881 10.8586 244.344 10.1399 244.917 9.51489C245.501 8.88989 246.178 8.3951 246.949 8.03052C247.73 7.66593 248.589 7.48364 249.527 7.48364C250.371 7.48364 251.126 7.60343 251.792 7.84302C252.459 8.07218 253.022 8.43677 253.48 8.93677C253.949 9.43677 254.303 10.0826 254.542 10.8743C254.782 11.6555 254.902 12.6086 254.902 13.7336V24.7024H253.667V13.7336C253.667 12.4003 253.485 11.3691 253.121 10.6399C252.756 9.90031 252.246 9.37948 251.589 9.07739C250.943 8.77531 250.188 8.62427 249.324 8.62427C248.324 8.62427 247.459 8.84823 246.73 9.29614C246.011 9.73364 245.417 10.2909 244.949 10.968C244.48 11.6347 244.121 12.3274 243.871 13.0461C243.631 13.7649 243.501 14.4003 243.48 14.9524Z" fill="white"/>
<path d="M275.074 2.92114L266.98 24.7024H265.636L274.183 1.95239H275.23L275.074 2.92114ZM282.73 24.7024L274.652 2.92114L274.496 1.95239H275.527L284.089 24.7024H282.73ZM280.73 16.9055V18.0774H269.058V16.9055H280.73Z" fill="white"/>
<path d="M288.433 11.4055V24.7024H287.199V7.79614H288.417L288.433 11.4055ZM288.199 14.9524L287.589 14.2336C287.683 13.3378 287.902 12.4836 288.246 11.6711C288.6 10.8586 289.063 10.1399 289.636 9.51489C290.219 8.88989 290.897 8.3951 291.667 8.03052C292.449 7.66593 293.308 7.48364 294.246 7.48364C295.089 7.48364 295.844 7.60343 296.511 7.84302C297.178 8.07218 297.74 8.43677 298.199 8.93677C298.667 9.43677 299.022 10.0826 299.261 10.8743C299.501 11.6555 299.621 12.6086 299.621 13.7336V24.7024H298.386V13.7336C298.386 12.4003 298.204 11.3691 297.839 10.6399C297.475 9.90031 296.964 9.37948 296.308 9.07739C295.662 8.77531 294.907 8.62427 294.042 8.62427C293.042 8.62427 292.178 8.84823 291.449 9.29614C290.73 9.73364 290.136 10.2909 289.667 10.968C289.199 11.6347 288.839 12.3274 288.589 13.0461C288.35 13.7649 288.219 14.4003 288.199 14.9524Z" fill="white"/>
<path d="M315.996 7.79614H317.199V24.4368C317.199 25.8847 316.933 27.1347 316.402 28.1868C315.871 29.2493 315.115 30.0618 314.136 30.6243C313.167 31.1972 312.006 31.4836 310.652 31.4836C309.881 31.4836 309.141 31.3691 308.433 31.1399C307.735 30.9107 307.089 30.5774 306.496 30.1399C305.912 29.7128 305.407 29.2076 304.98 28.6243L305.746 27.843C306.412 28.6659 307.136 29.2909 307.917 29.718C308.709 30.1451 309.6 30.3586 310.589 30.3586C311.756 30.3586 312.735 30.1191 313.527 29.6399C314.318 29.1607 314.917 28.4784 315.324 27.593C315.73 26.718 315.933 25.6764 315.933 24.468V11.5149L315.996 7.79614ZM303.98 16.4055V16.0774C303.98 14.7545 304.126 13.567 304.417 12.5149C304.709 11.4524 305.131 10.5514 305.683 9.81177C306.235 9.06177 306.907 8.48885 307.699 8.09302C308.501 7.68677 309.407 7.48364 310.417 7.48364C311.365 7.48364 312.204 7.63468 312.933 7.93677C313.673 8.22843 314.313 8.65031 314.855 9.20239C315.407 9.74406 315.855 10.3847 316.199 11.1243C316.553 11.8534 316.818 12.6607 316.996 13.5461V19.3743C316.86 20.1555 316.626 20.8899 316.292 21.5774C315.959 22.2545 315.516 22.8534 314.964 23.3743C314.412 23.8847 313.756 24.2857 312.996 24.5774C312.235 24.8691 311.365 25.0149 310.386 25.0149C309.386 25.0149 308.49 24.8066 307.699 24.3899C306.907 23.9732 306.235 23.3847 305.683 22.6243C305.131 21.8639 304.709 20.9576 304.417 19.9055C304.126 18.8534 303.98 17.6868 303.98 16.4055ZM305.246 16.0774V16.4055C305.246 17.4784 305.35 18.468 305.558 19.3743C305.777 20.2805 306.1 21.067 306.527 21.7336C306.964 22.4003 307.516 22.9211 308.183 23.2961C308.85 23.6711 309.626 23.8586 310.511 23.8586C311.657 23.8586 312.621 23.6503 313.402 23.2336C314.183 22.817 314.808 22.2649 315.277 21.5774C315.746 20.8899 316.074 20.1295 316.261 19.2961V13.7805C316.147 13.2493 315.969 12.6868 315.73 12.093C315.49 11.4889 315.152 10.9264 314.714 10.4055C314.287 9.88468 313.735 9.46281 313.058 9.13989C312.381 8.80656 311.542 8.63989 310.542 8.63989C309.647 8.63989 308.86 8.82739 308.183 9.20239C307.516 9.57739 306.964 10.0982 306.527 10.7649C306.1 11.4316 305.777 12.218 305.558 13.1243C305.35 14.0305 305.246 15.0149 305.246 16.0774Z" fill="white"/>
<path d="M333.527 20.7961V7.79614H334.777V24.7024H333.542L333.527 20.7961ZM333.746 17.9211L334.558 17.8899C334.558 18.9211 334.428 19.8691 334.167 20.7336C333.917 21.5982 333.522 22.3534 332.98 22.9993C332.449 23.6347 331.761 24.1295 330.917 24.4836C330.074 24.8378 329.063 25.0149 327.886 25.0149C327.063 25.0149 326.308 24.9003 325.621 24.6711C324.943 24.4316 324.355 24.0566 323.855 23.5461C323.365 23.0357 322.985 22.3691 322.714 21.5461C322.454 20.7232 322.324 19.7284 322.324 18.5618V7.79614H323.558V18.593C323.558 19.5722 323.667 20.4003 323.886 21.0774C324.115 21.7545 324.428 22.2961 324.824 22.7024C325.219 23.1086 325.683 23.4055 326.214 23.593C326.746 23.7701 327.324 23.8586 327.949 23.8586C329.407 23.8586 330.558 23.5774 331.402 23.0149C332.256 22.4524 332.86 21.718 333.214 20.8118C333.568 19.9055 333.746 18.942 333.746 17.9211Z" fill="white"/>
<path d="M341.402 0.702393V24.7024H340.152V0.702393H341.402Z" fill="white"/>
<path d="M357.277 21.593V12.8586C357.277 11.9732 357.089 11.2128 356.714 10.5774C356.339 9.94198 355.792 9.4576 355.074 9.12427C354.355 8.78052 353.475 8.60864 352.433 8.60864C351.464 8.60864 350.594 8.78052 349.824 9.12427C349.063 9.4576 348.464 9.91593 348.027 10.4993C347.589 11.0826 347.371 11.7336 347.371 12.4524L346.121 12.4368C346.121 11.7909 346.272 11.1711 346.574 10.5774C346.886 9.98364 347.324 9.4576 347.886 8.99927C348.459 8.53052 349.131 8.16073 349.902 7.88989C350.683 7.61906 351.537 7.48364 352.464 7.48364C353.652 7.48364 354.699 7.68677 355.605 8.09302C356.522 8.48885 357.235 9.08781 357.746 9.88989C358.256 10.692 358.511 11.692 358.511 12.8899V21.2336C358.511 21.8378 358.553 22.4472 358.636 23.0618C358.719 23.6764 358.834 24.1711 358.98 24.5461V24.7024H357.621C357.506 24.3066 357.417 23.8222 357.355 23.2493C357.303 22.6764 357.277 22.1243 357.277 21.593ZM357.683 15.1086L357.714 16.1868H353.589C352.548 16.1868 351.615 16.2857 350.792 16.4836C349.969 16.6816 349.272 16.9628 348.699 17.3274C348.126 17.692 347.688 18.1243 347.386 18.6243C347.084 19.1243 346.933 19.6868 346.933 20.3118C346.933 20.9576 347.105 21.5514 347.449 22.093C347.792 22.6347 348.277 23.067 348.902 23.3899C349.527 23.7024 350.251 23.8586 351.074 23.8586C352.199 23.8586 353.193 23.6659 354.058 23.2805C354.933 22.8847 355.667 22.3534 356.261 21.6868C356.855 21.0097 357.287 20.2284 357.558 19.343L358.105 20.2493C357.928 20.8014 357.652 21.3586 357.277 21.9211C356.902 22.4836 356.417 22.9993 355.824 23.468C355.23 23.9264 354.532 24.3014 353.73 24.593C352.928 24.8743 352.016 25.0149 350.996 25.0149C349.923 25.0149 348.985 24.817 348.183 24.4211C347.391 24.0149 346.777 23.4628 346.339 22.7649C345.902 22.0566 345.683 21.2493 345.683 20.343C345.683 19.5618 345.86 18.8482 346.214 18.2024C346.568 17.5566 347.079 17.0045 347.746 16.5461C348.423 16.0774 349.24 15.7232 350.199 15.4836C351.167 15.2336 352.256 15.1086 353.464 15.1086H357.683Z" fill="white"/>
<path d="M365.027 10.6711V24.7024H363.792V7.79614H365.011L365.027 10.6711ZM371.464 7.67114L371.386 8.79614C371.199 8.76489 371.011 8.73885 370.824 8.71802C370.636 8.69718 370.438 8.68677 370.23 8.68677C369.334 8.68677 368.548 8.86385 367.871 9.21802C367.204 9.57218 366.641 10.0566 366.183 10.6711C365.735 11.2857 365.397 11.9993 365.167 12.8118C364.938 13.6243 364.818 14.4941 364.808 15.4211L364.199 15.5461C364.199 14.3899 364.318 13.3222 364.558 12.343C364.808 11.3639 365.183 10.5097 365.683 9.78052C366.183 9.05135 366.813 8.48885 367.574 8.09302C368.334 7.68677 369.23 7.48364 370.261 7.48364C370.511 7.48364 370.74 7.50448 370.949 7.54614C371.157 7.57739 371.329 7.61906 371.464 7.67114Z" fill="white"/>
</svg>
