<svg width="248" height="32" viewBox="0 0 248 32" fill="none" xmlns="http://www.w3.org/2000/svg">
<path d="M13.0058 1.39117H18.4902V16.2505C18.4902 18.0214 18.1204 19.5214 17.3808 20.7505C16.6413 21.9693 15.6048 22.8912 14.2715 23.5162C12.9381 24.1412 11.3704 24.4537 9.56834 24.4537C7.78709 24.4537 6.21939 24.1412 4.86522 23.5162C3.52147 22.8912 2.46939 21.9693 1.70897 20.7505C0.958969 19.5214 0.583969 18.0214 0.583969 16.2505V1.39117H6.08397V16.2505C6.08397 17.188 6.21939 17.9537 6.49022 18.5474C6.76105 19.1308 7.15689 19.5578 7.67772 19.8287C8.19855 20.0995 8.82876 20.2349 9.56834 20.2349C10.3183 20.2349 10.9486 20.0995 11.459 19.8287C11.9694 19.5578 12.3548 19.1308 12.6152 18.5474C12.8756 17.9537 13.0058 17.188 13.0058 16.2505V1.39117Z" fill="white"/>
<path d="M27.2558 7.23492V24.1412H21.9746V7.23492H27.2558ZM21.6621 2.87555C21.6621 2.12555 21.9329 1.51097 22.4746 1.0318C23.0163 0.552633 23.7194 0.313049 24.584 0.313049C25.4486 0.313049 26.1517 0.552633 26.6933 1.0318C27.235 1.51097 27.5058 2.12555 27.5058 2.87555C27.5058 3.62555 27.235 4.24013 26.6933 4.7193C26.1517 5.19847 25.4486 5.43805 24.584 5.43805C23.7194 5.43805 23.0163 5.19847 22.4746 4.7193C21.9329 4.24013 21.6621 3.62555 21.6621 2.87555Z" fill="white"/>
<path d="M43.0996 1.39117H48.584V16.2505C48.584 18.0214 48.2142 19.5214 47.4746 20.7505C46.735 21.9693 45.6986 22.8912 44.3652 23.5162C43.0319 24.1412 41.4642 24.4537 39.6621 24.4537C37.8808 24.4537 36.3131 24.1412 34.959 23.5162C33.6152 22.8912 32.5631 21.9693 31.8027 20.7505C31.0527 19.5214 30.6777 18.0214 30.6777 16.2505V1.39117H36.1777V16.2505C36.1777 17.188 36.3131 17.9537 36.584 18.5474C36.8548 19.1308 37.2506 19.5578 37.7715 19.8287C38.2923 20.0995 38.9225 20.2349 39.6621 20.2349C40.4121 20.2349 41.0423 20.0995 41.5527 19.8287C42.0631 19.5578 42.4486 19.1308 42.709 18.5474C42.9694 17.9537 43.0996 17.188 43.0996 16.2505V1.39117Z" fill="white"/>
<path d="M56.2558 7.23492L58.6308 11.8912L61.084 7.23492H66.5527L62.1152 15.4693L66.7871 24.1412H61.2715L58.6308 19.1412L56.0058 24.1412H50.4902L55.1621 15.4693L50.7402 7.23492H56.2558Z" fill="white"/>
<path d="M82.7445 20.0258L86.6351 7.63513H87.6195L86.5882 11.557L82.4163 24.5414H81.4163L82.7445 20.0258ZM77.7132 7.63513L81.2132 20.0414L82.2757 24.5414H81.2757L76.3695 7.63513H77.7132ZM93.2445 20.0258L96.6976 7.63513H98.057L93.1351 24.5414H92.1351L93.2445 20.0258ZM87.7913 7.63513L91.6663 19.9789L92.9945 24.5414H91.9945L87.7601 11.557L86.7913 7.63513H87.7913Z" fill="white"/>
<path d="M103.432 7.63513V24.5414H102.182V7.63513H103.432ZM101.791 2.51013C101.791 2.22888 101.885 1.9893 102.073 1.79138C102.271 1.58305 102.521 1.47888 102.823 1.47888C103.114 1.47888 103.359 1.58305 103.557 1.79138C103.755 1.9893 103.854 2.22888 103.854 2.51013C103.854 2.79138 103.755 3.03097 103.557 3.22888C103.359 3.41638 103.114 3.51013 102.823 3.51013C102.521 3.51013 102.271 3.41638 102.073 3.22888C101.885 3.03097 101.791 2.79138 101.791 2.51013Z" fill="white"/>
<path d="M114.823 7.63513V8.76013H106.729V7.63513H114.823ZM109.854 3.16638H111.104V20.4633C111.104 21.3695 111.213 22.057 111.432 22.5258C111.661 22.9841 111.958 23.2966 112.323 23.4633C112.698 23.6195 113.099 23.6976 113.526 23.6976C113.828 23.6976 114.104 23.682 114.354 23.6508C114.614 23.6195 114.875 23.583 115.135 23.5414L115.244 24.6351C115.015 24.708 114.718 24.7601 114.354 24.7914C113.989 24.833 113.666 24.8539 113.385 24.8539C112.677 24.8539 112.057 24.7237 111.526 24.4633C110.994 24.2028 110.583 23.7549 110.291 23.1195C110 22.4737 109.854 21.5883 109.854 20.4633V3.16638Z" fill="white"/>
<path d="M120.244 0.541382V24.5414H119.01V0.541382H120.244ZM120.01 14.7914L119.401 14.0726C119.494 13.1768 119.713 12.3226 120.057 11.5101C120.411 10.6976 120.875 9.97888 121.448 9.35388C122.031 8.72888 122.708 8.23409 123.479 7.86951C124.26 7.50492 125.119 7.32263 126.057 7.32263C126.901 7.32263 127.656 7.44242 128.323 7.68201C128.989 7.91117 129.552 8.27576 130.01 8.77576C130.479 9.27576 130.833 9.92159 131.073 10.7133C131.312 11.4945 131.432 12.4476 131.432 13.5726V24.5414H130.198V13.5726C130.198 12.2393 130.015 11.208 129.651 10.4789C129.286 9.7393 128.776 9.21847 128.119 8.91638C127.474 8.6143 126.718 8.46326 125.854 8.46326C124.854 8.46326 123.989 8.68722 123.26 9.13513C122.541 9.57263 121.948 10.1299 121.479 10.807C121.01 11.4737 120.651 12.1664 120.401 12.8851C120.161 13.6039 120.031 14.2393 120.01 14.7914Z" fill="white"/>
<path d="M151.604 2.76013L143.51 24.5414H142.166L150.713 1.79138H151.76L151.604 2.76013ZM159.26 24.5414L151.182 2.76013L151.026 1.79138H152.057L160.619 24.5414H159.26ZM157.26 16.7445V17.9164H145.588V16.7445H157.26Z" fill="white"/>
<path d="M164.963 11.2445V24.5414H163.729V7.63513H164.948L164.963 11.2445ZM164.729 14.7914L164.119 14.0726C164.213 13.1768 164.432 12.3226 164.776 11.5101C165.13 10.6976 165.593 9.97888 166.166 9.35388C166.75 8.72888 167.427 8.23409 168.198 7.86951C168.979 7.50492 169.838 7.32263 170.776 7.32263C171.619 7.32263 172.375 7.44242 173.041 7.68201C173.708 7.91117 174.271 8.27576 174.729 8.77576C175.198 9.27576 175.552 9.92159 175.791 10.7133C176.031 11.4945 176.151 12.4476 176.151 13.5726V24.5414H174.916V13.5726C174.916 12.2393 174.734 11.208 174.369 10.4789C174.005 9.7393 173.494 9.21847 172.838 8.91638C172.192 8.6143 171.437 8.46326 170.573 8.46326C169.573 8.46326 168.708 8.68722 167.979 9.13513C167.26 9.57263 166.666 10.1299 166.198 10.807C165.729 11.4737 165.369 12.1664 165.119 12.8851C164.88 13.6039 164.75 14.2393 164.729 14.7914Z" fill="white"/>
<path d="M192.526 7.63513H193.729V24.2758C193.729 25.7237 193.463 26.9737 192.932 28.0258C192.401 29.0883 191.646 29.9008 190.666 30.4633C189.698 31.0362 188.536 31.3226 187.182 31.3226C186.411 31.3226 185.672 31.208 184.963 30.9789C184.265 30.7497 183.619 30.4164 183.026 29.9789C182.442 29.5518 181.937 29.0466 181.51 28.4633L182.276 27.682C182.942 28.5049 183.666 29.1299 184.448 29.557C185.239 29.9841 186.13 30.1976 187.119 30.1976C188.286 30.1976 189.265 29.958 190.057 29.4789C190.849 28.9997 191.448 28.3174 191.854 27.432C192.26 26.557 192.463 25.5153 192.463 24.307V11.3539L192.526 7.63513ZM180.51 16.2445V15.9164C180.51 14.5935 180.656 13.406 180.948 12.3539C181.239 11.2914 181.661 10.3903 182.213 9.65076C182.765 8.90076 183.437 8.32784 184.229 7.93201C185.031 7.52576 185.937 7.32263 186.948 7.32263C187.896 7.32263 188.734 7.47367 189.463 7.77576C190.203 8.06742 190.843 8.4893 191.385 9.04138C191.937 9.58305 192.385 10.2237 192.729 10.9633C193.083 11.6924 193.349 12.4997 193.526 13.3851V19.2133C193.39 19.9945 193.156 20.7289 192.823 21.4164C192.489 22.0935 192.047 22.6924 191.494 23.2133C190.942 23.7237 190.286 24.1247 189.526 24.4164C188.765 24.708 187.896 24.8539 186.916 24.8539C185.916 24.8539 185.021 24.6455 184.229 24.2289C183.437 23.8122 182.765 23.2237 182.213 22.4633C181.661 21.7028 181.239 20.7966 180.948 19.7445C180.656 18.6924 180.51 17.5258 180.51 16.2445ZM181.776 15.9164V16.2445C181.776 17.3174 181.88 18.307 182.088 19.2133C182.307 20.1195 182.63 20.906 183.057 21.5726C183.494 22.2393 184.047 22.7601 184.713 23.1351C185.38 23.5101 186.156 23.6976 187.041 23.6976C188.187 23.6976 189.151 23.4893 189.932 23.0726C190.713 22.656 191.338 22.1039 191.807 21.4164C192.276 20.7289 192.604 19.9685 192.791 19.1351V13.6195C192.677 13.0883 192.5 12.5258 192.26 11.932C192.021 11.3278 191.682 10.7653 191.244 10.2445C190.817 9.72367 190.265 9.3018 189.588 8.97888C188.911 8.64555 188.073 8.47888 187.073 8.47888C186.177 8.47888 185.39 8.66638 184.713 9.04138C184.047 9.41638 183.494 9.93722 183.057 10.6039C182.63 11.2705 182.307 12.057 182.088 12.9633C181.88 13.8695 181.776 14.8539 181.776 15.9164Z" fill="white"/>
<path d="M210.057 20.6351V7.63513H211.307V24.5414H210.073L210.057 20.6351ZM210.276 17.7601L211.088 17.7289C211.088 18.7601 210.958 19.708 210.698 20.5726C210.448 21.4372 210.052 22.1924 209.51 22.8383C208.979 23.4737 208.291 23.9685 207.448 24.3226C206.604 24.6768 205.593 24.8539 204.416 24.8539C203.593 24.8539 202.838 24.7393 202.151 24.5101C201.474 24.2705 200.885 23.8955 200.385 23.3851C199.896 22.8747 199.515 22.208 199.244 21.3851C198.984 20.5622 198.854 19.5674 198.854 18.4008V7.63513H200.088V18.432C200.088 19.4112 200.198 20.2393 200.416 20.9164C200.646 21.5935 200.958 22.1351 201.354 22.5414C201.75 22.9476 202.213 23.2445 202.744 23.432C203.276 23.6091 203.854 23.6976 204.479 23.6976C205.937 23.6976 207.088 23.4164 207.932 22.8539C208.786 22.2914 209.39 21.557 209.744 20.6508C210.099 19.7445 210.276 18.781 210.276 17.7601Z" fill="white"/>
<path d="M217.932 0.541382V24.5414H216.682V0.541382H217.932Z" fill="white"/>
<path d="M233.807 21.432V12.6976C233.807 11.8122 233.619 11.0518 233.244 10.4164C232.869 9.78097 232.323 9.29659 231.604 8.96326C230.885 8.61951 230.005 8.44763 228.963 8.44763C227.994 8.44763 227.125 8.61951 226.354 8.96326C225.593 9.29659 224.994 9.75492 224.557 10.3383C224.119 10.9216 223.901 11.5726 223.901 12.2914L222.651 12.2758C222.651 11.6299 222.802 11.0101 223.104 10.4164C223.416 9.82263 223.854 9.29659 224.416 8.83826C224.989 8.36951 225.661 7.99972 226.432 7.72888C227.213 7.45805 228.067 7.32263 228.994 7.32263C230.182 7.32263 231.229 7.52576 232.135 7.93201C233.052 8.32784 233.765 8.9268 234.276 9.72888C234.786 10.531 235.041 11.531 235.041 12.7289V21.0726C235.041 21.6768 235.083 22.2862 235.166 22.9008C235.25 23.5153 235.364 24.0101 235.51 24.3851V24.5414H234.151C234.036 24.1455 233.948 23.6612 233.885 23.0883C233.833 22.5153 233.807 21.9633 233.807 21.432ZM234.213 14.9476L234.244 16.0258H230.119C229.078 16.0258 228.146 16.1247 227.323 16.3226C226.5 16.5205 225.802 16.8018 225.229 17.1664C224.656 17.531 224.218 17.9633 223.916 18.4633C223.614 18.9633 223.463 19.5258 223.463 20.1508C223.463 20.7966 223.635 21.3903 223.979 21.932C224.323 22.4737 224.807 22.906 225.432 23.2289C226.057 23.5414 226.781 23.6976 227.604 23.6976C228.729 23.6976 229.724 23.5049 230.588 23.1195C231.463 22.7237 232.198 22.1924 232.791 21.5258C233.385 20.8487 233.817 20.0674 234.088 19.182L234.635 20.0883C234.458 20.6403 234.182 21.1976 233.807 21.7601C233.432 22.3226 232.948 22.8383 232.354 23.307C231.76 23.7653 231.062 24.1403 230.26 24.432C229.458 24.7133 228.547 24.8539 227.526 24.8539C226.453 24.8539 225.515 24.656 224.713 24.2601C223.922 23.8539 223.307 23.3018 222.869 22.6039C222.432 21.8955 222.213 21.0883 222.213 20.182C222.213 19.4008 222.39 18.6872 222.744 18.0414C223.099 17.3955 223.609 16.8435 224.276 16.3851C224.953 15.9164 225.771 15.5622 226.729 15.3226C227.698 15.0726 228.786 14.9476 229.994 14.9476H234.213Z" fill="white"/>
<path d="M241.557 10.5101V24.5414H240.323V7.63513H241.541L241.557 10.5101ZM247.994 7.51013L247.916 8.63513C247.729 8.60388 247.541 8.57784 247.354 8.55701C247.166 8.53617 246.968 8.52576 246.76 8.52576C245.864 8.52576 245.078 8.70284 244.401 9.05701C243.734 9.41117 243.172 9.89555 242.713 10.5101C242.265 11.1247 241.927 11.8383 241.698 12.6508C241.468 13.4633 241.349 14.333 241.338 15.2601L240.729 15.3851C240.729 14.2289 240.849 13.1612 241.088 12.182C241.338 11.2028 241.713 10.3487 242.213 9.61951C242.713 8.89034 243.343 8.32784 244.104 7.93201C244.864 7.52576 245.76 7.32263 246.791 7.32263C247.041 7.32263 247.271 7.34347 247.479 7.38513C247.687 7.41638 247.859 7.45805 247.994 7.51013Z" fill="white"/>
</svg>
