<svg width="68" height="33" viewBox="0 0 68 33" fill="none" xmlns="http://www.w3.org/2000/svg">
<rect x="0.583969" y="0.209442" width="67" height="32" />
<path d="M13.0058 1.28757H18.4902V16.1469C18.4902 17.9178 18.1204 19.4178 17.3808 20.6469C16.6413 21.8657 15.6048 22.7876 14.2715 23.4126C12.9381 24.0376 11.3704 24.3501 9.56834 24.3501C7.78709 24.3501 6.21939 24.0376 4.86522 23.4126C3.52147 22.7876 2.46939 21.8657 1.70897 20.6469C0.958969 19.4178 0.583969 17.9178 0.583969 16.1469V1.28757H6.08397V16.1469C6.08397 17.0844 6.21939 17.8501 6.49022 18.4438C6.76105 19.0272 7.15689 19.4542 7.67772 19.7251C8.19855 19.9959 8.82876 20.1313 9.56834 20.1313C10.3183 20.1313 10.9486 19.9959 11.459 19.7251C11.9694 19.4542 12.3548 19.0272 12.6152 18.4438C12.8756 17.8501 13.0058 17.0844 13.0058 16.1469V1.28757Z" fill="white"/>
<path d="M27.2558 7.13132V24.0376H21.9746V7.13132H27.2558ZM21.6621 2.77194C21.6621 2.02194 21.9329 1.40736 22.4746 0.928192C23.0163 0.449025 23.7194 0.209442 24.584 0.209442C25.4486 0.209442 26.1517 0.449025 26.6933 0.928192C27.235 1.40736 27.5058 2.02194 27.5058 2.77194C27.5058 3.52194 27.235 4.13653 26.6933 4.61569C26.1517 5.09486 25.4486 5.33444 24.584 5.33444C23.7194 5.33444 23.0163 5.09486 22.4746 4.61569C21.9329 4.13653 21.6621 3.52194 21.6621 2.77194Z" fill="white"/>
<path d="M43.0996 1.28757H48.584V16.1469C48.584 17.9178 48.2142 19.4178 47.4746 20.6469C46.735 21.8657 45.6986 22.7876 44.3652 23.4126C43.0319 24.0376 41.4642 24.3501 39.6621 24.3501C37.8808 24.3501 36.3131 24.0376 34.959 23.4126C33.6152 22.7876 32.5631 21.8657 31.8027 20.6469C31.0527 19.4178 30.6777 17.9178 30.6777 16.1469V1.28757H36.1777V16.1469C36.1777 17.0844 36.3131 17.8501 36.584 18.4438C36.8548 19.0272 37.2506 19.4542 37.7715 19.7251C38.2923 19.9959 38.9225 20.1313 39.6621 20.1313C40.4121 20.1313 41.0423 19.9959 41.5527 19.7251C42.0631 19.4542 42.4486 19.0272 42.709 18.4438C42.9694 17.8501 43.0996 17.0844 43.0996 16.1469V1.28757Z" fill="white"/>
<path d="M56.2558 7.13132L58.6308 11.7876L61.084 7.13132H66.5527L62.1152 15.3657L66.7871 24.0376H61.2715L58.6308 19.0376L56.0058 24.0376H50.4902L55.1621 15.3657L50.7402 7.13132H56.2558Z" fill="white"/>
</svg>
