<svg width="372" height="32" viewBox="0 0 372 32" fill="none" xmlns="http://www.w3.org/2000/svg">
<path d="M12.7629 1.55219H18.2473V16.4116C18.2473 18.1824 17.8775 19.6824 17.1379 20.9116C16.3983 22.1303 15.3619 23.0522 14.0285 23.6772C12.6952 24.3022 11.1275 24.6147 9.32539 24.6147C7.54414 24.6147 5.97644 24.3022 4.62227 23.6772C3.27852 23.0522 2.22644 22.1303 1.46602 20.9116C0.716019 19.6824 0.341019 18.1824 0.341019 16.4116V1.55219H5.84102V16.4116C5.84102 17.3491 5.97644 18.1147 6.24727 18.7084C6.5181 19.2918 6.91394 19.7189 7.43477 19.9897C7.9556 20.2605 8.58581 20.3959 9.32539 20.3959C10.0754 20.3959 10.7056 20.2605 11.216 19.9897C11.7264 19.7189 12.1119 19.2918 12.3723 18.7084C12.6327 18.1147 12.7629 17.3491 12.7629 16.4116V1.55219Z" fill="white"/>
<path d="M27.0129 7.39594V24.3022H21.7316V7.39594H27.0129ZM21.4191 3.03656C21.4191 2.28656 21.69 1.67198 22.2316 1.19281C22.7733 0.713643 23.4764 0.47406 24.341 0.47406C25.2056 0.47406 25.9087 0.713643 26.4504 1.19281C26.9921 1.67198 27.2629 2.28656 27.2629 3.03656C27.2629 3.78656 26.9921 4.40114 26.4504 4.88031C25.9087 5.35948 25.2056 5.59906 24.341 5.59906C23.4764 5.59906 22.7733 5.35948 22.2316 4.88031C21.69 4.40114 21.4191 3.78656 21.4191 3.03656Z" fill="white"/>
<path d="M42.8566 1.55219H48.341V16.4116C48.341 18.1824 47.9712 19.6824 47.2316 20.9116C46.4921 22.1303 45.4556 23.0522 44.1223 23.6772C42.7889 24.3022 41.2212 24.6147 39.4191 24.6147C37.6379 24.6147 36.0702 24.3022 34.716 23.6772C33.3723 23.0522 32.3202 22.1303 31.5598 20.9116C30.8098 19.6824 30.4348 18.1824 30.4348 16.4116V1.55219H35.9348V16.4116C35.9348 17.3491 36.0702 18.1147 36.341 18.7084C36.6119 19.2918 37.0077 19.7189 37.5285 19.9897C38.0494 20.2605 38.6796 20.3959 39.4191 20.3959C40.1691 20.3959 40.7994 20.2605 41.3098 19.9897C41.8202 19.7189 42.2056 19.2918 42.466 18.7084C42.7264 18.1147 42.8566 17.3491 42.8566 16.4116V1.55219Z" fill="white"/>
<path d="M56.0129 7.39594L58.3879 12.0522L60.841 7.39594H66.3098L61.8723 15.6303L66.5441 24.3022H61.0285L58.3879 19.3022L55.7629 24.3022H50.2473L54.9191 15.6303L50.4973 7.39594H56.0129Z" fill="white"/>
<path d="M78.7671 11.0461V31.2024H77.5171V7.79614H78.7203L78.7671 11.0461ZM90.7359 16.0774V16.4055C90.7359 17.6868 90.5901 18.8534 90.2984 19.9055C90.0171 20.9576 89.6005 21.8639 89.0484 22.6243C88.5067 23.3847 87.8401 23.9732 87.0484 24.3899C86.2567 24.8066 85.3557 25.0149 84.3453 25.0149C83.3765 25.0149 82.5067 24.8743 81.7359 24.593C80.9651 24.3014 80.2984 23.8951 79.7359 23.3743C79.1734 22.8534 78.7203 22.2597 78.3765 21.593C78.0328 20.9159 77.7932 20.192 77.6578 19.4211V13.5461C77.8348 12.6607 78.1005 11.8534 78.4546 11.1243C78.8192 10.3847 79.2723 9.74406 79.814 9.20239C80.3661 8.65031 81.0171 8.22843 81.7671 7.93677C82.5171 7.63468 83.3661 7.48364 84.314 7.48364C85.3244 7.48364 86.2255 7.68677 87.0171 8.09302C87.8192 8.48885 88.4963 9.06177 89.0484 9.81177C89.6005 10.5514 90.0171 11.4524 90.2984 12.5149C90.5901 13.567 90.7359 14.7545 90.7359 16.0774ZM89.4703 16.4055V16.0774C89.4703 15.0149 89.3609 14.0305 89.1421 13.1243C88.9338 12.218 88.6109 11.4316 88.1734 10.7649C87.7359 10.0982 87.1838 9.57739 86.5171 9.20239C85.8505 8.82739 85.064 8.63989 84.1578 8.63989C83.1682 8.63989 82.3296 8.80656 81.6421 9.13989C80.9546 9.46281 80.3869 9.88468 79.939 10.4055C79.5015 10.9264 79.163 11.4889 78.9234 12.093C78.6838 12.6868 78.5067 13.2493 78.3921 13.7805V19.3274C78.5796 20.1607 78.913 20.9211 79.3921 21.6086C79.8713 22.2961 80.5067 22.8482 81.2984 23.2649C82.1005 23.6711 83.064 23.8743 84.189 23.8743C85.0953 23.8743 85.8765 23.6868 86.5328 23.3118C87.189 22.9368 87.7359 22.4159 88.1734 21.7493C88.6109 21.0826 88.9338 20.2961 89.1421 19.3899C89.3609 18.4732 89.4703 17.4784 89.4703 16.4055Z" fill="white"/>
<path d="M105.658 21.593V12.8586C105.658 11.9732 105.47 11.2128 105.095 10.5774C104.72 9.94198 104.173 9.4576 103.455 9.12427C102.736 8.78052 101.856 8.60864 100.814 8.60864C99.8453 8.60864 98.9755 8.78052 98.2046 9.12427C97.4442 9.4576 96.8453 9.91593 96.4078 10.4993C95.9703 11.0826 95.7515 11.7336 95.7515 12.4524L94.5015 12.4368C94.5015 11.7909 94.6526 11.1711 94.9546 10.5774C95.2671 9.98364 95.7046 9.4576 96.2671 8.99927C96.8401 8.53052 97.5119 8.16073 98.2828 7.88989C99.064 7.61906 99.9182 7.48364 100.845 7.48364C102.033 7.48364 103.08 7.68677 103.986 8.09302C104.903 8.48885 105.616 9.08781 106.127 9.88989C106.637 10.692 106.892 11.692 106.892 12.8899V21.2336C106.892 21.8378 106.934 22.4472 107.017 23.0618C107.1 23.6764 107.215 24.1711 107.361 24.5461V24.7024H106.002C105.887 24.3066 105.798 23.8222 105.736 23.2493C105.684 22.6764 105.658 22.1243 105.658 21.593ZM106.064 15.1086L106.095 16.1868H101.97C100.929 16.1868 99.9963 16.2857 99.1734 16.4836C98.3505 16.6816 97.6526 16.9628 97.0796 17.3274C96.5067 17.692 96.0692 18.1243 95.7671 18.6243C95.4651 19.1243 95.314 19.6868 95.314 20.3118C95.314 20.9576 95.4859 21.5514 95.8296 22.093C96.1734 22.6347 96.6578 23.067 97.2828 23.3899C97.9078 23.7024 98.6317 23.8586 99.4546 23.8586C100.58 23.8586 101.574 23.6659 102.439 23.2805C103.314 22.8847 104.048 22.3534 104.642 21.6868C105.236 21.0097 105.668 20.2284 105.939 19.343L106.486 20.2493C106.309 20.8014 106.033 21.3586 105.658 21.9211C105.283 22.4836 104.798 22.9993 104.205 23.468C103.611 23.9264 102.913 24.3014 102.111 24.593C101.309 24.8743 100.397 25.0149 99.3765 25.0149C98.3036 25.0149 97.3661 24.817 96.564 24.4211C95.7723 24.0149 95.1578 23.4628 94.7203 22.7649C94.2828 22.0566 94.064 21.2493 94.064 20.343C94.064 19.5618 94.2411 18.8482 94.5953 18.2024C94.9494 17.5566 95.4598 17.0045 96.1265 16.5461C96.8036 16.0774 97.6213 15.7232 98.5796 15.4836C99.5484 15.2336 100.637 15.1086 101.845 15.1086H106.064Z" fill="white"/>
<path d="M118.173 7.79614V8.92114H110.08V7.79614H118.173ZM113.205 3.32739H114.455V20.6243C114.455 21.5305 114.564 22.218 114.783 22.6868C115.012 23.1451 115.309 23.4576 115.673 23.6243C116.048 23.7805 116.449 23.8586 116.877 23.8586C117.179 23.8586 117.455 23.843 117.705 23.8118C117.965 23.7805 118.225 23.7441 118.486 23.7024L118.595 24.7961C118.366 24.8691 118.069 24.9211 117.705 24.9524C117.34 24.9941 117.017 25.0149 116.736 25.0149C116.028 25.0149 115.408 24.8847 114.877 24.6243C114.345 24.3639 113.934 23.9159 113.642 23.2805C113.35 22.6347 113.205 21.7493 113.205 20.6243V3.32739Z" fill="white"/>
<path d="M128.361 7.79614V8.92114H120.267V7.79614H128.361ZM123.392 3.32739H124.642V20.6243C124.642 21.5305 124.752 22.218 124.97 22.6868C125.199 23.1451 125.496 23.4576 125.861 23.6243C126.236 23.7805 126.637 23.8586 127.064 23.8586C127.366 23.8586 127.642 23.843 127.892 23.8118C128.153 23.7805 128.413 23.7441 128.673 23.7024L128.783 24.7961C128.554 24.8691 128.257 24.9211 127.892 24.9524C127.528 24.9941 127.205 25.0149 126.923 25.0149C126.215 25.0149 125.595 24.8847 125.064 24.6243C124.533 24.3639 124.121 23.9159 123.83 23.2805C123.538 22.6347 123.392 21.7493 123.392 20.6243V3.32739Z" fill="white"/>
<path d="M138.814 25.0149C137.752 25.0149 136.767 24.8118 135.861 24.4055C134.955 23.9889 134.163 23.4107 133.486 22.6711C132.809 21.9211 132.278 21.0357 131.892 20.0149C131.517 18.9941 131.33 17.8743 131.33 16.6555V15.968C131.33 14.7076 131.517 13.5618 131.892 12.5305C132.278 11.4889 132.798 10.593 133.455 9.84302C134.111 9.0826 134.866 8.49927 135.72 8.09302C136.585 7.68677 137.507 7.48364 138.486 7.48364C139.475 7.48364 140.371 7.66593 141.173 8.03052C141.975 8.3951 142.663 8.90552 143.236 9.56177C143.809 10.218 144.246 10.9993 144.548 11.9055C144.85 12.8118 145.002 13.8118 145.002 14.9055V15.9524H132.111V14.8118H143.767V14.6086C143.757 13.5461 143.538 12.5618 143.111 11.6555C142.694 10.7493 142.095 10.0201 141.314 9.46802C140.533 8.90552 139.59 8.62427 138.486 8.62427C137.6 8.62427 136.793 8.81177 136.064 9.18677C135.345 9.56177 134.725 10.0826 134.205 10.7493C133.684 11.4055 133.283 12.1816 133.002 13.0774C132.72 13.9628 132.58 14.9264 132.58 15.968V16.6555C132.58 17.6555 132.736 18.593 133.048 19.468C133.361 20.343 133.798 21.1139 134.361 21.7805C134.923 22.4368 135.585 22.9524 136.345 23.3274C137.106 23.7024 137.939 23.8899 138.845 23.8899C139.824 23.8899 140.72 23.718 141.533 23.3743C142.345 23.0305 143.085 22.4264 143.752 21.5618L144.564 22.1711C144.189 22.7128 143.736 23.1972 143.205 23.6243C142.673 24.0514 142.043 24.3899 141.314 24.6399C140.595 24.8899 139.762 25.0149 138.814 25.0149Z" fill="white"/>
<path d="M150.095 10.6711V24.7024H148.861V7.79614H150.08L150.095 10.6711ZM156.533 7.67114L156.455 8.79614C156.267 8.76489 156.08 8.73885 155.892 8.71802C155.705 8.69718 155.507 8.68677 155.298 8.68677C154.403 8.68677 153.616 8.86385 152.939 9.21802C152.272 9.57218 151.71 10.0566 151.252 10.6711C150.804 11.2857 150.465 11.9993 150.236 12.8118C150.007 13.6243 149.887 14.4941 149.877 15.4211L149.267 15.5461C149.267 14.3899 149.387 13.3222 149.627 12.343C149.877 11.3639 150.252 10.5097 150.752 9.78052C151.252 9.05135 151.882 8.48885 152.642 8.09302C153.403 7.68677 154.298 7.48364 155.33 7.48364C155.58 7.48364 155.809 7.50448 156.017 7.54614C156.225 7.57739 156.397 7.61906 156.533 7.67114Z" fill="white"/>
<path d="M160.845 11.4055V24.7024H159.611V7.79614H160.83L160.845 11.4055ZM160.611 14.9524L160.002 14.2336C160.095 13.3378 160.314 12.4836 160.658 11.6711C161.012 10.8586 161.475 10.1399 162.048 9.51489C162.632 8.88989 163.309 8.3951 164.08 8.03052C164.861 7.66593 165.72 7.48364 166.658 7.48364C167.502 7.48364 168.257 7.60343 168.923 7.84302C169.59 8.07218 170.153 8.43677 170.611 8.93677C171.08 9.43677 171.434 10.0826 171.673 10.8743C171.913 11.6555 172.033 12.6086 172.033 13.7336V24.7024H170.798V13.7336C170.798 12.4003 170.616 11.3691 170.252 10.6399C169.887 9.90031 169.377 9.37948 168.72 9.07739C168.074 8.77531 167.319 8.62427 166.455 8.62427C165.455 8.62427 164.59 8.84823 163.861 9.29614C163.142 9.73364 162.548 10.2909 162.08 10.968C161.611 11.6347 161.252 12.3274 161.002 13.0461C160.762 13.7649 160.632 14.4003 160.611 14.9524Z" fill="white"/>
<path d="M187.486 20.4993C187.486 19.9993 187.35 19.5045 187.08 19.0149C186.819 18.5253 186.335 18.067 185.627 17.6399C184.929 17.2128 183.913 16.8534 182.58 16.5618C181.632 16.3534 180.793 16.1243 180.064 15.8743C179.345 15.6243 178.741 15.3222 178.252 14.968C177.762 14.6034 177.392 14.1711 177.142 13.6711C176.903 13.1711 176.783 12.5722 176.783 11.8743C176.783 11.2701 176.913 10.7024 177.173 10.1711C177.434 9.63989 177.814 9.17635 178.314 8.78052C178.824 8.37427 179.434 8.05656 180.142 7.82739C180.85 7.59823 181.653 7.48364 182.548 7.48364C183.83 7.48364 184.923 7.69718 185.83 8.12427C186.746 8.54093 187.449 9.11906 187.939 9.85864C188.429 10.5878 188.673 11.4368 188.673 12.4055H187.423C187.423 11.7493 187.236 11.1347 186.861 10.5618C186.486 9.98885 185.934 9.52531 185.205 9.17114C184.486 8.80656 183.6 8.62427 182.548 8.62427C181.486 8.62427 180.621 8.78573 179.955 9.10864C179.288 9.43156 178.798 9.84302 178.486 10.343C178.184 10.8326 178.033 11.3326 178.033 11.843C178.033 12.2493 178.09 12.6295 178.205 12.9836C178.33 13.3274 178.564 13.6451 178.908 13.9368C179.252 14.2284 179.746 14.5097 180.392 14.7805C181.038 15.0409 181.877 15.2857 182.908 15.5149C184.262 15.817 185.366 16.1868 186.22 16.6243C187.074 17.0514 187.705 17.5774 188.111 18.2024C188.517 18.817 188.72 19.5722 188.72 20.468C188.72 21.1347 188.58 21.7493 188.298 22.3118C188.017 22.8639 187.611 23.343 187.08 23.7493C186.559 24.1555 185.923 24.468 185.173 24.6868C184.423 24.9055 183.59 25.0149 182.673 25.0149C181.288 25.0149 180.111 24.7961 179.142 24.3586C178.184 23.9107 177.455 23.3222 176.955 22.593C176.465 21.8639 176.22 21.0774 176.22 20.2336H177.47C177.543 21.1607 177.845 21.8899 178.377 22.4211C178.918 22.9524 179.574 23.3274 180.345 23.5461C181.127 23.7649 181.903 23.8743 182.673 23.8743C183.725 23.8743 184.606 23.7128 185.314 23.3899C186.033 23.0566 186.574 22.6347 186.939 22.1243C187.304 21.6034 187.486 21.0618 187.486 20.4993Z" fill="white"/>
<path d="M205.877 20.1868L209.767 7.79614H210.752L209.72 11.718L205.548 24.7024H204.548L205.877 20.1868ZM200.845 7.79614L204.345 20.2024L205.408 24.7024H204.408L199.502 7.79614H200.845ZM216.377 20.1868L219.83 7.79614H221.189L216.267 24.7024H215.267L216.377 20.1868ZM210.923 7.79614L214.798 20.1399L216.127 24.7024H215.127L210.892 11.718L209.923 7.79614H210.923Z" fill="white"/>
<path d="M226.564 7.79614V24.7024H225.314V7.79614H226.564ZM224.923 2.67114C224.923 2.38989 225.017 2.15031 225.205 1.95239C225.403 1.74406 225.653 1.63989 225.955 1.63989C226.246 1.63989 226.491 1.74406 226.689 1.95239C226.887 2.15031 226.986 2.38989 226.986 2.67114C226.986 2.95239 226.887 3.19198 226.689 3.38989C226.491 3.57739 226.246 3.67114 225.955 3.67114C225.653 3.67114 225.403 3.57739 225.205 3.38989C225.017 3.19198 224.923 2.95239 224.923 2.67114Z" fill="white"/>
<path d="M237.955 7.79614V8.92114H229.861V7.79614H237.955ZM232.986 3.32739H234.236V20.6243C234.236 21.5305 234.345 22.218 234.564 22.6868C234.793 23.1451 235.09 23.4576 235.455 23.6243C235.83 23.7805 236.231 23.8586 236.658 23.8586C236.96 23.8586 237.236 23.843 237.486 23.8118C237.746 23.7805 238.007 23.7441 238.267 23.7024L238.377 24.7961C238.147 24.8691 237.85 24.9211 237.486 24.9524C237.121 24.9941 236.798 25.0149 236.517 25.0149C235.809 25.0149 235.189 24.8847 234.658 24.6243C234.127 24.3639 233.715 23.9159 233.423 23.2805C233.132 22.6347 232.986 21.7493 232.986 20.6243V3.32739Z" fill="white"/>
<path d="M243.377 0.702393V24.7024H242.142V0.702393H243.377ZM243.142 14.9524L242.533 14.2336C242.627 13.3378 242.845 12.4836 243.189 11.6711C243.543 10.8586 244.007 10.1399 244.58 9.51489C245.163 8.88989 245.84 8.3951 246.611 8.03052C247.392 7.66593 248.252 7.48364 249.189 7.48364C250.033 7.48364 250.788 7.60343 251.455 7.84302C252.121 8.07218 252.684 8.43677 253.142 8.93677C253.611 9.43677 253.965 10.0826 254.205 10.8743C254.444 11.6555 254.564 12.6086 254.564 13.7336V24.7024H253.33V13.7336C253.33 12.4003 253.147 11.3691 252.783 10.6399C252.418 9.90031 251.908 9.37948 251.252 9.07739C250.606 8.77531 249.85 8.62427 248.986 8.62427C247.986 8.62427 247.121 8.84823 246.392 9.29614C245.673 9.73364 245.08 10.2909 244.611 10.968C244.142 11.6347 243.783 12.3274 243.533 13.0461C243.293 13.7649 243.163 14.4003 243.142 14.9524Z" fill="white"/>
<path d="M274.736 2.92114L266.642 24.7024H265.298L273.845 1.95239H274.892L274.736 2.92114ZM282.392 24.7024L274.314 2.92114L274.158 1.95239H275.189L283.752 24.7024H282.392ZM280.392 16.9055V18.0774H268.72V16.9055H280.392Z" fill="white"/>
<path d="M288.095 11.4055V24.7024H286.861V7.79614H288.08L288.095 11.4055ZM287.861 14.9524L287.252 14.2336C287.345 13.3378 287.564 12.4836 287.908 11.6711C288.262 10.8586 288.725 10.1399 289.298 9.51489C289.882 8.88989 290.559 8.3951 291.33 8.03052C292.111 7.66593 292.97 7.48364 293.908 7.48364C294.752 7.48364 295.507 7.60343 296.173 7.84302C296.84 8.07218 297.403 8.43677 297.861 8.93677C298.33 9.43677 298.684 10.0826 298.923 10.8743C299.163 11.6555 299.283 12.6086 299.283 13.7336V24.7024H298.048V13.7336C298.048 12.4003 297.866 11.3691 297.502 10.6399C297.137 9.90031 296.627 9.37948 295.97 9.07739C295.324 8.77531 294.569 8.62427 293.705 8.62427C292.705 8.62427 291.84 8.84823 291.111 9.29614C290.392 9.73364 289.798 10.2909 289.33 10.968C288.861 11.6347 288.502 12.3274 288.252 13.0461C288.012 13.7649 287.882 14.4003 287.861 14.9524Z" fill="white"/>
<path d="M315.658 7.79614H316.861V24.4368C316.861 25.8847 316.595 27.1347 316.064 28.1868C315.533 29.2493 314.778 30.0618 313.798 30.6243C312.83 31.1972 311.668 31.4836 310.314 31.4836C309.543 31.4836 308.804 31.3691 308.095 31.1399C307.397 30.9107 306.752 30.5774 306.158 30.1399C305.574 29.7128 305.069 29.2076 304.642 28.6243L305.408 27.843C306.074 28.6659 306.798 29.2909 307.58 29.718C308.371 30.1451 309.262 30.3586 310.252 30.3586C311.418 30.3586 312.397 30.1191 313.189 29.6399C313.981 29.1607 314.58 28.4784 314.986 27.593C315.392 26.718 315.595 25.6764 315.595 24.468V11.5149L315.658 7.79614ZM303.642 16.4055V16.0774C303.642 14.7545 303.788 13.567 304.08 12.5149C304.371 11.4524 304.793 10.5514 305.345 9.81177C305.897 9.06177 306.569 8.48885 307.361 8.09302C308.163 7.68677 309.069 7.48364 310.08 7.48364C311.028 7.48364 311.866 7.63468 312.595 7.93677C313.335 8.22843 313.975 8.65031 314.517 9.20239C315.069 9.74406 315.517 10.3847 315.861 11.1243C316.215 11.8534 316.481 12.6607 316.658 13.5461V19.3743C316.522 20.1555 316.288 20.8899 315.955 21.5774C315.621 22.2545 315.179 22.8534 314.627 23.3743C314.074 23.8847 313.418 24.2857 312.658 24.5774C311.897 24.8691 311.028 25.0149 310.048 25.0149C309.048 25.0149 308.153 24.8066 307.361 24.3899C306.569 23.9732 305.897 23.3847 305.345 22.6243C304.793 21.8639 304.371 20.9576 304.08 19.9055C303.788 18.8534 303.642 17.6868 303.642 16.4055ZM304.908 16.0774V16.4055C304.908 17.4784 305.012 18.468 305.22 19.3743C305.439 20.2805 305.762 21.067 306.189 21.7336C306.627 22.4003 307.179 22.9211 307.845 23.2961C308.512 23.6711 309.288 23.8586 310.173 23.8586C311.319 23.8586 312.283 23.6503 313.064 23.2336C313.845 22.817 314.47 22.2649 314.939 21.5774C315.408 20.8899 315.736 20.1295 315.923 19.2961V13.7805C315.809 13.2493 315.632 12.6868 315.392 12.093C315.153 11.4889 314.814 10.9264 314.377 10.4055C313.949 9.88468 313.397 9.46281 312.72 9.13989C312.043 8.80656 311.205 8.63989 310.205 8.63989C309.309 8.63989 308.522 8.82739 307.845 9.20239C307.179 9.57739 306.627 10.0982 306.189 10.7649C305.762 11.4316 305.439 12.218 305.22 13.1243C305.012 14.0305 304.908 15.0149 304.908 16.0774Z" fill="white"/>
<path d="M333.189 20.7961V7.79614H334.439V24.7024H333.205L333.189 20.7961ZM333.408 17.9211L334.22 17.8899C334.22 18.9211 334.09 19.8691 333.83 20.7336C333.58 21.5982 333.184 22.3534 332.642 22.9993C332.111 23.6347 331.423 24.1295 330.58 24.4836C329.736 24.8378 328.725 25.0149 327.548 25.0149C326.725 25.0149 325.97 24.9003 325.283 24.6711C324.606 24.4316 324.017 24.0566 323.517 23.5461C323.028 23.0357 322.647 22.3691 322.377 21.5461C322.116 20.7232 321.986 19.7284 321.986 18.5618V7.79614H323.22V18.593C323.22 19.5722 323.33 20.4003 323.548 21.0774C323.778 21.7545 324.09 22.2961 324.486 22.7024C324.882 23.1086 325.345 23.4055 325.877 23.593C326.408 23.7701 326.986 23.8586 327.611 23.8586C329.069 23.8586 330.22 23.5774 331.064 23.0149C331.918 22.4524 332.522 21.718 332.877 20.8118C333.231 19.9055 333.408 18.942 333.408 17.9211Z" fill="white"/>
<path d="M341.064 0.702393V24.7024H339.814V0.702393H341.064Z" fill="white"/>
<path d="M356.939 21.593V12.8586C356.939 11.9732 356.752 11.2128 356.377 10.5774C356.002 9.94198 355.455 9.4576 354.736 9.12427C354.017 8.78052 353.137 8.60864 352.095 8.60864C351.127 8.60864 350.257 8.78052 349.486 9.12427C348.725 9.4576 348.127 9.91593 347.689 10.4993C347.252 11.0826 347.033 11.7336 347.033 12.4524L345.783 12.4368C345.783 11.7909 345.934 11.1711 346.236 10.5774C346.548 9.98364 346.986 9.4576 347.548 8.99927C348.121 8.53052 348.793 8.16073 349.564 7.88989C350.345 7.61906 351.199 7.48364 352.127 7.48364C353.314 7.48364 354.361 7.68677 355.267 8.09302C356.184 8.48885 356.897 9.08781 357.408 9.88989C357.918 10.692 358.173 11.692 358.173 12.8899V21.2336C358.173 21.8378 358.215 22.4472 358.298 23.0618C358.382 23.6764 358.496 24.1711 358.642 24.5461V24.7024H357.283C357.168 24.3066 357.08 23.8222 357.017 23.2493C356.965 22.6764 356.939 22.1243 356.939 21.593ZM357.345 15.1086L357.377 16.1868H353.252C352.21 16.1868 351.278 16.2857 350.455 16.4836C349.632 16.6816 348.934 16.9628 348.361 17.3274C347.788 17.692 347.35 18.1243 347.048 18.6243C346.746 19.1243 346.595 19.6868 346.595 20.3118C346.595 20.9576 346.767 21.5514 347.111 22.093C347.455 22.6347 347.939 23.067 348.564 23.3899C349.189 23.7024 349.913 23.8586 350.736 23.8586C351.861 23.8586 352.856 23.6659 353.72 23.2805C354.595 22.8847 355.33 22.3534 355.923 21.6868C356.517 21.0097 356.949 20.2284 357.22 19.343L357.767 20.2493C357.59 20.8014 357.314 21.3586 356.939 21.9211C356.564 22.4836 356.08 22.9993 355.486 23.468C354.892 23.9264 354.194 24.3014 353.392 24.593C352.59 24.8743 351.679 25.0149 350.658 25.0149C349.585 25.0149 348.647 24.817 347.845 24.4211C347.054 24.0149 346.439 23.4628 346.002 22.7649C345.564 22.0566 345.345 21.2493 345.345 20.343C345.345 19.5618 345.522 18.8482 345.877 18.2024C346.231 17.5566 346.741 17.0045 347.408 16.5461C348.085 16.0774 348.903 15.7232 349.861 15.4836C350.83 15.2336 351.918 15.1086 353.127 15.1086H357.345Z" fill="white"/>
<path d="M364.689 10.6711V24.7024H363.455V7.79614H364.673L364.689 10.6711ZM371.127 7.67114L371.048 8.79614C370.861 8.76489 370.673 8.73885 370.486 8.71802C370.298 8.69718 370.1 8.68677 369.892 8.68677C368.996 8.68677 368.21 8.86385 367.533 9.21802C366.866 9.57218 366.304 10.0566 365.845 10.6711C365.397 11.2857 365.059 11.9993 364.83 12.8118C364.6 13.6243 364.481 14.4941 364.47 15.4211L363.861 15.5461C363.861 14.3899 363.981 13.3222 364.22 12.343C364.47 11.3639 364.845 10.5097 365.345 9.78052C365.845 9.05135 366.475 8.48885 367.236 8.09302C367.996 7.68677 368.892 7.48364 369.923 7.48364C370.173 7.48364 370.403 7.50448 370.611 7.54614C370.819 7.57739 370.991 7.61906 371.127 7.67114Z" fill="white"/>
</svg>
