<svg width="67" height="25" viewBox="0 0 67 25" fill="none" xmlns="http://www.w3.org/2000/svg">
<path d="M13.0058 1.11386H18.4902V15.9732C18.4902 17.7441 18.1204 19.2441 17.3808 20.4732C16.6413 21.692 15.6048 22.6139 14.2715 23.2389C12.9381 23.8639 11.3704 24.1764 9.56834 24.1764C7.78709 24.1764 6.21939 23.8639 4.86522 23.2389C3.52147 22.6139 2.46939 21.692 1.70897 20.4732C0.958969 19.2441 0.583969 17.7441 0.583969 15.9732V1.11386H6.08397V15.9732C6.08397 16.9107 6.21939 17.6764 6.49022 18.2701C6.76105 18.8534 7.15689 19.2805 7.67772 19.5514C8.19855 19.8222 8.82876 19.9576 9.56834 19.9576C10.3183 19.9576 10.9486 19.8222 11.459 19.5514C11.9694 19.2805 12.3548 18.8534 12.6152 18.2701C12.8756 17.6764 13.0058 16.9107 13.0058 15.9732V1.11386Z" fill="white"/>
<path d="M27.2558 6.95761V23.8639H21.9746V6.95761H27.2558ZM21.6621 2.59824C21.6621 1.84824 21.9329 1.23365 22.4746 0.754486C23.0163 0.275319 23.7194 0.0357361 24.584 0.0357361C25.4486 0.0357361 26.1517 0.275319 26.6933 0.754486C27.235 1.23365 27.5058 1.84824 27.5058 2.59824C27.5058 3.34824 27.235 3.96282 26.6933 4.44199C26.1517 4.92115 25.4486 5.16074 24.584 5.16074C23.7194 5.16074 23.0163 4.92115 22.4746 4.44199C21.9329 3.96282 21.6621 3.34824 21.6621 2.59824Z" fill="white"/>
<path d="M43.0996 1.11386H48.584V15.9732C48.584 17.7441 48.2142 19.2441 47.4746 20.4732C46.735 21.692 45.6986 22.6139 44.3652 23.2389C43.0319 23.8639 41.4642 24.1764 39.6621 24.1764C37.8808 24.1764 36.3131 23.8639 34.959 23.2389C33.6152 22.6139 32.5631 21.692 31.8027 20.4732C31.0527 19.2441 30.6777 17.7441 30.6777 15.9732V1.11386H36.1777V15.9732C36.1777 16.9107 36.3131 17.6764 36.584 18.2701C36.8548 18.8534 37.2506 19.2805 37.7715 19.5514C38.2923 19.8222 38.9225 19.9576 39.6621 19.9576C40.4121 19.9576 41.0423 19.8222 41.5527 19.5514C42.0631 19.2805 42.4486 18.8534 42.709 18.2701C42.9694 17.6764 43.0996 16.9107 43.0996 15.9732V1.11386Z" fill="white"/>
<path d="M56.2558 6.95761L58.6308 11.6139L61.084 6.95761H66.5527L62.1152 15.192L66.7871 23.8639H61.2715L58.6308 18.8639L56.0058 23.8639H50.4902L55.1621 15.192L50.7402 6.95761H56.2558Z" fill="white"/>
</svg>
