<svg width="24" height="24" viewBox="0 0 24 24" fill="none" xmlns="http://www.w3.org/2000/svg">
<path fill-rule="evenodd" clip-rule="evenodd" d="M12.0002 5.5C9.06662 5.5 7.23361 6.94454 6.49989 9.83362C7.60004 8.38908 8.88341 7.84748 10.35 8.2084C11.1867 8.41428 11.7851 9.01225 12.4468 9.6743C13.5254 10.7524 14.7739 12 17.5001 12C20.4333 12 22.2667 10.5555 23 7.66681C21.9003 9.11135 20.6169 9.65294 19.1503 9.2916C18.3132 9.08572 17.7148 8.48774 17.0531 7.82613C15.9745 6.74721 14.7265 5.5 12.0002 5.5ZM6.49989 12C3.56673 12 1.73329 13.4445 1 16.3336C2.10015 14.8891 3.38352 14.3475 4.84967 14.7084C5.68685 14.9143 6.28521 15.5123 6.94694 16.1743C8.02553 17.2524 9.27355 18.5 12.0002 18.5C14.9334 18.5 16.7668 17.0559 17.5001 14.1668C16.4 15.6113 15.1166 16.1529 13.65 15.792C12.8133 15.5857 12.2149 14.9877 11.5532 14.3261C10.4746 13.2481 9.22613 12 6.49989 12Z" fill="#38BDF8"/>
</svg>
