<svg width="24" height="24" viewBox="0 0 24 24" fill="none" xmlns="http://www.w3.org/2000/svg">
  <path opacity="0.6" d="M9.52305 3H2V7.65447H9.52305V3Z" fill="white"/>
  <path opacity="0.3" d="M21.9903 3H9.52307V7.65447H21.9903V3Z" fill="white"/>
  <path d="M12.8407 3.67615H12.1138V6.97783H12.8407V3.67615Z" fill="white"/>
  <path d="M7.25132 4.80322H2V5.85376H7.25132V4.80322Z" fill="white"/>
  <path opacity="0.3" d="M22 9.67358H13.265V14.3266H22V9.67358Z" fill="white"/>
  <path opacity="0.6" d="M13.2651 9.67358H2V14.3266H13.2651V9.67358Z" fill="white"/>
  <path d="M19.7823 10.2731H19.0553V13.5751H19.7823V10.2731Z" fill="white"/>
  <path d="M16.053 11.4752H2V12.5258H16.053V11.4752Z" fill="white"/>
  <path opacity="0.3" d="M22.0001 16.3458H17.5322V21H22.0001V16.3458Z" fill="white"/>
  <path opacity="0.6" d="M17.5321 16.3458H2V21H17.5321V16.3458Z" fill="white"/>
  <path d="M14.75 17.0005H14.0233V20.3022H14.75V17.0005Z" fill="white"/>
  <path d="M11.8809 18.1262H2.00525V19.1768H11.8809V18.1262Z" fill="white"/>
</svg>
