<?xml version="1.0" encoding="UTF-8" standalone="no"?>
<!DOCTYPE svg PUBLIC "-//W3C//DTD SVG 1.1//EN"
 "http://www.w3.org/Graphics/SVG/1.1/DTD/svg11.dtd">
<!-- Generated by graphviz version 5.0.0 (20220707.1540)
 -->
<!-- Title: dependencies Pages: 1 -->
<svg width="2235pt" height="318pt"
 viewBox="0.00 0.00 2235.00 317.80" xmlns="http://www.w3.org/2000/svg" xmlns:xlink="http://www.w3.org/1999/xlink">
<g id="graph0" class="graph" transform="scale(1 1) rotate(0) translate(4 313.8)">
<title>dependencies</title>
<polygon fill="white" stroke="transparent" points="-4,4 -4,-313.8 2231,-313.8 2231,4 -4,4"/>
<text text-anchor="middle" x="1113.5" y="-8.2" font-family="sans-serif" font-size="14.00">dependencies</text>
<g id="clust49" class="cluster">
<title>cluster_UiBulletChartModule</title>
<polygon fill="none" stroke="black" stroke-dasharray="1,5" points="8,-32.8 8,-301.8 973,-301.8 973,-32.8 8,-32.8"/>
</g>
<g id="clust50" class="cluster">
<title>cluster_UiBulletChartModule_declarations</title>
<polygon fill="none" stroke="black" points="16,-105.8 16,-157.8 779,-157.8 779,-105.8 16,-105.8"/>
</g>
<g id="clust51" class="cluster">
<title>cluster_UiBulletChartModule_BulletChartComponent_providers</title>
<polygon fill="none" stroke="black" points="605,-40.8 605,-92.8 791,-92.8 791,-40.8 605,-40.8"/>
</g>
<g id="clust55" class="cluster">
<title>cluster_UiBulletChartModule_imports</title>
<polygon fill="none" stroke="black" points="787,-105.8 787,-157.8 965,-157.8 965,-105.8 787,-105.8"/>
</g>
<g id="clust56" class="cluster">
<title>cluster_UiBulletChartModule_exports</title>
<polygon fill="none" stroke="black" points="102,-241.8 102,-293.8 879,-293.8 879,-241.8 102,-241.8"/>
</g>
<g id="clust59" class="cluster">
<title>cluster_UiColorPickerModule</title>
<polygon fill="none" stroke="black" stroke-dasharray="1,5" points="1389,-32.8 1389,-233.8 1587,-233.8 1587,-32.8 1389,-32.8"/>
</g>
<g id="clust60" class="cluster">
<title>cluster_UiColorPickerModule_declarations</title>
<polygon fill="none" stroke="black" points="1399,-40.8 1399,-92.8 1577,-92.8 1577,-40.8 1399,-40.8"/>
</g>
<g id="clust63" class="cluster">
<title>cluster_UiColorPickerModule_exports</title>
<polygon fill="none" stroke="black" points="1397,-173.8 1397,-225.8 1579,-225.8 1579,-173.8 1397,-173.8"/>
</g>
<g id="clust66" class="cluster">
<title>cluster_UiPopoverModule</title>
<polygon fill="none" stroke="black" stroke-dasharray="1,5" points="1595,-32.8 1595,-301.8 2219,-301.8 2219,-32.8 1595,-32.8"/>
</g>
<g id="clust67" class="cluster">
<title>cluster_UiPopoverModule_declarations</title>
<polygon fill="none" stroke="black" points="1603,-105.8 1603,-157.8 2091,-157.8 2091,-105.8 1603,-105.8"/>
</g>
<g id="clust69" class="cluster">
<title>cluster_UiPopoverModule_UiPopoverContent_providers</title>
<polygon fill="none" stroke="black" points="1603,-40.8 1603,-92.8 2211,-92.8 2211,-40.8 1603,-40.8"/>
</g>
<g id="clust73" class="cluster">
<title>cluster_UiPopoverModule_exports</title>
<polygon fill="none" stroke="black" points="1656,-241.8 1656,-293.8 2158,-293.8 2158,-241.8 1656,-241.8"/>
</g>
<g id="clust76" class="cluster">
<title>cluster_UiResizeObserverModule</title>
<polygon fill="none" stroke="black" stroke-dasharray="1,5" points="981,-165.8 981,-233.8 1381,-233.8 1381,-165.8 981,-165.8"/>
</g>
<g id="clust77" class="cluster">
<title>cluster_UiResizeObserverModule_declarations</title>
<polygon fill="none" stroke="black" points="1187,-173.8 1187,-225.8 1373,-225.8 1373,-173.8 1187,-173.8"/>
</g>
<g id="clust80" class="cluster">
<title>cluster_UiResizeObserverModule_exports</title>
<polygon fill="none" stroke="black" points="989,-173.8 989,-225.8 1179,-225.8 1179,-173.8 989,-173.8"/>
</g>
<!-- BulletChartComponent -->
<g id="node1" class="node">
<title>BulletChartComponent</title>
<polygon fill="#ffffb3" stroke="black" points="771.16,-149.8 624.84,-149.8 624.84,-113.8 771.16,-113.8 771.16,-149.8"/>
<text text-anchor="middle" x="698" y="-127.6" font-family="Times,serif" font-size="14.00">BulletChartComponent</text>
</g>
<!-- UiBulletChartModule -->
<g id="node5" class="node">
<title>UiBulletChartModule</title>
<polygon fill="#8dd3c7" stroke="black" points="576.38,-217.8 573.38,-221.8 552.38,-221.8 549.38,-217.8 437.62,-217.8 437.62,-181.8 576.38,-181.8 576.38,-217.8"/>
<text text-anchor="middle" x="507" y="-195.6" font-family="Times,serif" font-size="14.00">UiBulletChartModule</text>
</g>
<!-- BulletChartComponent&#45;&gt;UiBulletChartModule -->
<g id="edge1" class="edge">
<title>BulletChartComponent&#45;&gt;UiBulletChartModule</title>
<path fill="none" stroke="black" d="M663.89,-149.91C663.89,-169.14 663.89,-196.8 663.89,-196.8 663.89,-196.8 586.73,-196.8 586.73,-196.8"/>
<polygon fill="black" stroke="black" points="586.73,-193.3 576.73,-196.8 586.73,-200.3 586.73,-193.3"/>
</g>
<!-- BulletChartDescriptionDirective -->
<g id="node2" class="node">
<title>BulletChartDescriptionDirective</title>
<polygon fill="#ffffb3" stroke="black" points="606.22,-149.8 407.78,-149.8 407.78,-113.8 606.22,-113.8 606.22,-149.8"/>
<text text-anchor="middle" x="507" y="-127.6" font-family="Times,serif" font-size="14.00">BulletChartDescriptionDirective</text>
</g>
<!-- BulletChartDescriptionDirective&#45;&gt;UiBulletChartModule -->
<g id="edge3" class="edge">
<title>BulletChartDescriptionDirective&#45;&gt;UiBulletChartModule</title>
<path fill="none" stroke="black" d="M507,-150.02C507,-150.02 507,-171.53 507,-171.53"/>
<polygon fill="black" stroke="black" points="503.5,-171.53 507,-181.53 510.5,-171.53 503.5,-171.53"/>
</g>
<!-- BulletChartTitleDirective -->
<g id="node3" class="node">
<title>BulletChartTitleDirective</title>
<polygon fill="#ffffb3" stroke="black" points="389.84,-149.8 230.16,-149.8 230.16,-113.8 389.84,-113.8 389.84,-149.8"/>
<text text-anchor="middle" x="310" y="-127.6" font-family="Times,serif" font-size="14.00">BulletChartTitleDirective</text>
</g>
<!-- BulletChartTitleDirective&#45;&gt;UiBulletChartModule -->
<g id="edge4" class="edge">
<title>BulletChartTitleDirective&#45;&gt;UiBulletChartModule</title>
<path fill="none" stroke="black" d="M354.62,-149.82C354.62,-167.17 354.62,-190.8 354.62,-190.8 354.62,-190.8 427.5,-190.8 427.5,-190.8"/>
<polygon fill="black" stroke="black" points="427.5,-194.3 437.5,-190.8 427.5,-187.3 427.5,-194.3"/>
</g>
<!-- BulletChartTooltipComponent -->
<g id="node4" class="node">
<title>BulletChartTooltipComponent</title>
<polygon fill="#ffffb3" stroke="black" points="211.88,-149.8 24.12,-149.8 24.12,-113.8 211.88,-113.8 211.88,-149.8"/>
<text text-anchor="middle" x="118" y="-127.6" font-family="Times,serif" font-size="14.00">BulletChartTooltipComponent</text>
</g>
<!-- BulletChartTooltipComponent&#45;&gt;UiBulletChartModule -->
<g id="edge5" class="edge">
<title>BulletChartTooltipComponent&#45;&gt;UiBulletChartModule</title>
<path fill="none" stroke="black" d="M161.12,-150.02C161.12,-170.17 161.12,-199.8 161.12,-199.8 161.12,-199.8 427.42,-199.8 427.42,-199.8"/>
<polygon fill="black" stroke="black" points="427.42,-203.3 437.42,-199.8 427.42,-196.3 427.42,-203.3"/>
</g>
<!-- BulletChartComponent  -->
<g id="node8" class="node">
<title>BulletChartComponent </title>
<polygon fill="#fb8072" stroke="black" points="871.16,-285.8 720.84,-285.8 720.84,-249.8 871.16,-249.8 871.16,-285.8"/>
<text text-anchor="middle" x="796" y="-263.6" font-family="Times,serif" font-size="14.00">BulletChartComponent </text>
</g>
<!-- UiBulletChartModule&#45;&gt;BulletChartComponent  -->
<g id="edge7" class="edge">
<title>UiBulletChartModule&#45;&gt;BulletChartComponent </title>
<path fill="none" stroke="black" stroke-dasharray="5,2" d="M576.49,-210.8C647.09,-210.8 746.12,-210.8 746.12,-210.8 746.12,-210.8 746.12,-239.76 746.12,-239.76"/>
<polygon fill="black" stroke="black" points="742.63,-239.76 746.12,-249.76 749.63,-239.76 742.63,-239.76"/>
</g>
<!-- BulletChartDescriptionDirective  -->
<g id="node9" class="node">
<title>BulletChartDescriptionDirective </title>
<polygon fill="#fb8072" stroke="black" points="703.22,-285.8 500.78,-285.8 500.78,-249.8 703.22,-249.8 703.22,-285.8"/>
<text text-anchor="middle" x="602" y="-263.6" font-family="Times,serif" font-size="14.00">BulletChartDescriptionDirective </text>
</g>
<!-- UiBulletChartModule&#45;&gt;BulletChartDescriptionDirective  -->
<g id="edge8" class="edge">
<title>UiBulletChartModule&#45;&gt;BulletChartDescriptionDirective </title>
<path fill="none" stroke="black" stroke-dasharray="5,2" d="M538.66,-218.02C538.66,-218.02 538.66,-239.53 538.66,-239.53"/>
<polygon fill="black" stroke="black" points="535.16,-239.53 538.66,-249.53 542.16,-239.53 535.16,-239.53"/>
</g>
<!-- BulletChartTitleDirective  -->
<g id="node10" class="node">
<title>BulletChartTitleDirective </title>
<polygon fill="#fb8072" stroke="black" points="482.84,-285.8 319.16,-285.8 319.16,-249.8 482.84,-249.8 482.84,-285.8"/>
<text text-anchor="middle" x="401" y="-263.6" font-family="Times,serif" font-size="14.00">BulletChartTitleDirective </text>
</g>
<!-- UiBulletChartModule&#45;&gt;BulletChartTitleDirective  -->
<g id="edge9" class="edge">
<title>UiBulletChartModule&#45;&gt;BulletChartTitleDirective </title>
<path fill="none" stroke="black" stroke-dasharray="5,2" d="M460.12,-218.02C460.12,-218.02 460.12,-239.53 460.12,-239.53"/>
<polygon fill="black" stroke="black" points="456.62,-239.53 460.12,-249.53 463.62,-239.53 456.62,-239.53"/>
</g>
<!-- BulletChartTooltipComponent  -->
<g id="node11" class="node">
<title>BulletChartTooltipComponent </title>
<polygon fill="#fb8072" stroke="black" points="301.88,-285.8 110.12,-285.8 110.12,-249.8 301.88,-249.8 301.88,-285.8"/>
<text text-anchor="middle" x="206" y="-263.6" font-family="Times,serif" font-size="14.00">BulletChartTooltipComponent </text>
</g>
<!-- UiBulletChartModule&#45;&gt;BulletChartTooltipComponent  -->
<g id="edge10" class="edge">
<title>UiBulletChartModule&#45;&gt;BulletChartTooltipComponent </title>
<path fill="none" stroke="black" stroke-dasharray="5,2" d="M437.58,-208.8C366.35,-208.8 265.88,-208.8 265.88,-208.8 265.88,-208.8 265.88,-239.78 265.88,-239.78"/>
<polygon fill="black" stroke="black" points="262.38,-239.78 265.88,-249.78 269.38,-239.78 262.38,-239.78"/>
</g>
<!-- BulletChartService -->
<g id="node6" class="node">
<title>BulletChartService</title>
<ellipse fill="#fdb462" stroke="black" cx="698" cy="-66.8" rx="85.11" ry="18"/>
<text text-anchor="middle" x="698" y="-62.6" font-family="Times,serif" font-size="14.00">BulletChartService</text>
</g>
<!-- BulletChartService&#45;&gt;BulletChartComponent -->
<g id="edge2" class="edge">
<title>BulletChartService&#45;&gt;BulletChartComponent</title>
<path fill="none" stroke="black" d="M698,-84.91C698,-84.91 698,-103.79 698,-103.79"/>
<polygon fill="black" stroke="black" points="694.5,-103.79 698,-113.79 701.5,-103.79 694.5,-103.79"/>
</g>
<!-- UiResizeObserverModule -->
<g id="node7" class="node">
<title>UiResizeObserverModule</title>
<polygon fill="#8dd3c7" stroke="black" points="957.18,-149.8 954.18,-153.8 933.18,-153.8 930.18,-149.8 794.82,-149.8 794.82,-113.8 957.18,-113.8 957.18,-149.8"/>
<text text-anchor="middle" x="876" y="-127.6" font-family="Times,serif" font-size="14.00">UiResizeObserverModule</text>
</g>
<!-- UiResizeObserverModule&#45;&gt;UiBulletChartModule -->
<g id="edge6" class="edge">
<title>UiResizeObserverModule&#45;&gt;UiBulletChartModule</title>
<path fill="none" stroke="black" d="M832.99,-149.97C832.99,-171.3 832.99,-203.8 832.99,-203.8 832.99,-203.8 586.53,-203.8 586.53,-203.8"/>
<polygon fill="black" stroke="black" points="586.53,-200.3 576.53,-203.8 586.53,-207.3 586.53,-200.3"/>
</g>
<!-- UiResizeObserverDirective  -->
<g id="node26" class="node">
<title>UiResizeObserverDirective </title>
<polygon fill="#fb8072" stroke="black" points="1171.21,-217.8 996.79,-217.8 996.79,-181.8 1171.21,-181.8 1171.21,-217.8"/>
<text text-anchor="middle" x="1084" y="-195.6" font-family="Times,serif" font-size="14.00">UiResizeObserverDirective </text>
</g>
<!-- UiResizeObserverModule&#45;&gt;UiResizeObserverDirective  -->
<g id="edge23" class="edge">
<title>UiResizeObserverModule&#45;&gt;UiResizeObserverDirective </title>
<path fill="none" stroke="black" stroke-dasharray="5,2" d="M914.08,-149.83C914.08,-166.86 914.08,-189.8 914.08,-189.8 914.08,-189.8 986.55,-189.8 986.55,-189.8"/>
<polygon fill="black" stroke="black" points="986.55,-193.3 996.55,-189.8 986.55,-186.3 986.55,-193.3"/>
</g>
<!-- UiColorPickerComponent -->
<g id="node12" class="node">
<title>UiColorPickerComponent</title>
<polygon fill="#ffffb3" stroke="black" points="1569.49,-84.8 1406.51,-84.8 1406.51,-48.8 1569.49,-48.8 1569.49,-84.8"/>
<text text-anchor="middle" x="1488" y="-62.6" font-family="Times,serif" font-size="14.00">UiColorPickerComponent</text>
</g>
<!-- UiColorPickerModule -->
<g id="node13" class="node">
<title>UiColorPickerModule</title>
<polygon fill="#8dd3c7" stroke="black" points="1558.71,-149.8 1555.71,-153.8 1534.71,-153.8 1531.71,-149.8 1417.29,-149.8 1417.29,-113.8 1558.71,-113.8 1558.71,-149.8"/>
<text text-anchor="middle" x="1488" y="-127.6" font-family="Times,serif" font-size="14.00">UiColorPickerModule</text>
</g>
<!-- UiColorPickerComponent&#45;&gt;UiColorPickerModule -->
<g id="edge11" class="edge">
<title>UiColorPickerComponent&#45;&gt;UiColorPickerModule</title>
<path fill="none" stroke="black" d="M1488,-84.91C1488,-84.91 1488,-103.79 1488,-103.79"/>
<polygon fill="black" stroke="black" points="1484.5,-103.79 1488,-113.79 1491.5,-103.79 1484.5,-103.79"/>
</g>
<!-- UiColorPickerComponent  -->
<g id="node14" class="node">
<title>UiColorPickerComponent </title>
<polygon fill="#fb8072" stroke="black" points="1571.49,-217.8 1404.51,-217.8 1404.51,-181.8 1571.49,-181.8 1571.49,-217.8"/>
<text text-anchor="middle" x="1488" y="-195.6" font-family="Times,serif" font-size="14.00">UiColorPickerComponent </text>
</g>
<!-- UiColorPickerModule&#45;&gt;UiColorPickerComponent  -->
<g id="edge12" class="edge">
<title>UiColorPickerModule&#45;&gt;UiColorPickerComponent </title>
<path fill="none" stroke="black" stroke-dasharray="5,2" d="M1488,-150.02C1488,-150.02 1488,-171.53 1488,-171.53"/>
<polygon fill="black" stroke="black" points="1484.5,-171.53 1488,-181.53 1491.5,-171.53 1484.5,-171.53"/>
</g>
<!-- UiPopover -->
<g id="node15" class="node">
<title>UiPopover</title>
<polygon fill="#ffffb3" stroke="black" points="2083.16,-149.8 2006.84,-149.8 2006.84,-113.8 2083.16,-113.8 2083.16,-149.8"/>
<text text-anchor="middle" x="2045" y="-127.6" font-family="Times,serif" font-size="14.00">UiPopover</text>
</g>
<!-- UiPopoverModule -->
<g id="node19" class="node">
<title>UiPopoverModule</title>
<polygon fill="#8dd3c7" stroke="black" points="1952.21,-217.8 1949.21,-221.8 1928.21,-221.8 1925.21,-217.8 1831.79,-217.8 1831.79,-181.8 1952.21,-181.8 1952.21,-217.8"/>
<text text-anchor="middle" x="1892" y="-195.6" font-family="Times,serif" font-size="14.00">UiPopoverModule</text>
</g>
<!-- UiPopover&#45;&gt;UiPopoverModule -->
<g id="edge13" class="edge">
<title>UiPopover&#45;&gt;UiPopoverModule</title>
<path fill="none" stroke="black" d="M2029.46,-150.07C2029.46,-168.36 2029.46,-193.8 2029.46,-193.8 2029.46,-193.8 1962.29,-193.8 1962.29,-193.8"/>
<polygon fill="black" stroke="black" points="1962.29,-190.3 1952.29,-193.8 1962.29,-197.3 1962.29,-190.3"/>
</g>
<!-- UiPopoverContent -->
<g id="node16" class="node">
<title>UiPopoverContent</title>
<polygon fill="#ffffb3" stroke="black" points="1988.49,-149.8 1867.51,-149.8 1867.51,-113.8 1988.49,-113.8 1988.49,-149.8"/>
<text text-anchor="middle" x="1928" y="-127.6" font-family="Times,serif" font-size="14.00">UiPopoverContent</text>
</g>
<!-- UiPopoverContent&#45;&gt;UiPopoverModule -->
<g id="edge14" class="edge">
<title>UiPopoverContent&#45;&gt;UiPopoverModule</title>
<path fill="none" stroke="black" d="M1909.81,-150.02C1909.81,-150.02 1909.81,-171.53 1909.81,-171.53"/>
<polygon fill="black" stroke="black" points="1906.31,-171.53 1909.81,-181.53 1913.31,-171.53 1906.31,-171.53"/>
</g>
<!-- UiPopoverItem -->
<g id="node17" class="node">
<title>UiPopoverItem</title>
<polygon fill="#ffffb3" stroke="black" points="1849.32,-149.8 1746.68,-149.8 1746.68,-113.8 1849.32,-113.8 1849.32,-149.8"/>
<text text-anchor="middle" x="1798" y="-127.6" font-family="Times,serif" font-size="14.00">UiPopoverItem</text>
</g>
<!-- UiPopoverItem&#45;&gt;UiPopoverModule -->
<g id="edge16" class="edge">
<title>UiPopoverItem&#45;&gt;UiPopoverModule</title>
<path fill="none" stroke="black" d="M1840.53,-150.02C1840.53,-150.02 1840.53,-171.53 1840.53,-171.53"/>
<polygon fill="black" stroke="black" points="1837.03,-171.53 1840.53,-181.53 1844.03,-171.53 1837.03,-171.53"/>
</g>
<!-- UiPopoverTrigger -->
<g id="node18" class="node">
<title>UiPopoverTrigger</title>
<polygon fill="#ffffb3" stroke="black" points="1729.14,-149.8 1610.86,-149.8 1610.86,-113.8 1729.14,-113.8 1729.14,-149.8"/>
<text text-anchor="middle" x="1670" y="-127.6" font-family="Times,serif" font-size="14.00">UiPopoverTrigger</text>
</g>
<!-- UiPopoverTrigger&#45;&gt;UiPopoverModule -->
<g id="edge17" class="edge">
<title>UiPopoverTrigger&#45;&gt;UiPopoverModule</title>
<path fill="none" stroke="black" d="M1696.62,-150.07C1696.62,-168.36 1696.62,-193.8 1696.62,-193.8 1696.62,-193.8 1821.79,-193.8 1821.79,-193.8"/>
<polygon fill="black" stroke="black" points="1821.79,-197.3 1831.79,-193.8 1821.79,-190.3 1821.79,-197.3"/>
</g>
<!-- UiPopover  -->
<g id="node21" class="node">
<title>UiPopover </title>
<polygon fill="#fb8072" stroke="black" points="2150.16,-285.8 2069.84,-285.8 2069.84,-249.8 2150.16,-249.8 2150.16,-285.8"/>
<text text-anchor="middle" x="2110" y="-263.6" font-family="Times,serif" font-size="14.00">UiPopover </text>
</g>
<!-- UiPopoverModule&#45;&gt;UiPopover  -->
<g id="edge18" class="edge">
<title>UiPopoverModule&#45;&gt;UiPopover </title>
<path fill="none" stroke="black" stroke-dasharray="5,2" d="M1952.2,-205.8C2006.07,-205.8 2076.62,-205.8 2076.62,-205.8 2076.62,-205.8 2076.62,-239.53 2076.62,-239.53"/>
<polygon fill="black" stroke="black" points="2073.13,-239.53 2076.62,-249.53 2080.13,-239.53 2073.13,-239.53"/>
</g>
<!-- UiPopoverContent  -->
<g id="node22" class="node">
<title>UiPopoverContent </title>
<polygon fill="#fb8072" stroke="black" points="2052.49,-285.8 1927.51,-285.8 1927.51,-249.8 2052.49,-249.8 2052.49,-285.8"/>
<text text-anchor="middle" x="1990" y="-263.6" font-family="Times,serif" font-size="14.00">UiPopoverContent </text>
</g>
<!-- UiPopoverModule&#45;&gt;UiPopoverContent  -->
<g id="edge19" class="edge">
<title>UiPopoverModule&#45;&gt;UiPopoverContent </title>
<path fill="none" stroke="black" stroke-dasharray="5,2" d="M1939.93,-218.02C1939.93,-218.02 1939.93,-239.53 1939.93,-239.53"/>
<polygon fill="black" stroke="black" points="1936.43,-239.53 1939.93,-249.53 1943.43,-239.53 1936.43,-239.53"/>
</g>
<!-- UiPopoverItem  -->
<g id="node23" class="node">
<title>UiPopoverItem </title>
<polygon fill="#fb8072" stroke="black" points="1909.82,-285.8 1804.18,-285.8 1804.18,-249.8 1909.82,-249.8 1909.82,-285.8"/>
<text text-anchor="middle" x="1857" y="-263.6" font-family="Times,serif" font-size="14.00">UiPopoverItem </text>
</g>
<!-- UiPopoverModule&#45;&gt;UiPopoverItem  -->
<g id="edge20" class="edge">
<title>UiPopoverModule&#45;&gt;UiPopoverItem </title>
<path fill="none" stroke="black" stroke-dasharray="5,2" d="M1870.9,-218.02C1870.9,-218.02 1870.9,-239.53 1870.9,-239.53"/>
<polygon fill="black" stroke="black" points="1867.4,-239.53 1870.9,-249.53 1874.4,-239.53 1867.4,-239.53"/>
</g>
<!-- UiPopoverTrigger  -->
<g id="node24" class="node">
<title>UiPopoverTrigger </title>
<polygon fill="#fb8072" stroke="black" points="1786.14,-285.8 1663.86,-285.8 1663.86,-249.8 1786.14,-249.8 1786.14,-285.8"/>
<text text-anchor="middle" x="1725" y="-263.6" font-family="Times,serif" font-size="14.00">UiPopoverTrigger </text>
</g>
<!-- UiPopoverModule&#45;&gt;UiPopoverTrigger  -->
<g id="edge21" class="edge">
<title>UiPopoverModule&#45;&gt;UiPopoverTrigger </title>
<path fill="none" stroke="black" stroke-dasharray="5,2" d="M1831.8,-205.8C1799.58,-205.8 1766.46,-205.8 1766.46,-205.8 1766.46,-205.8 1766.46,-239.53 1766.46,-239.53"/>
<polygon fill="black" stroke="black" points="1762.96,-239.53 1766.46,-249.53 1769.96,-239.53 1762.96,-239.53"/>
</g>
<!-- { provide: UI_POPOVER_CONTENT, useExisting: UiPopoverContent } -->
<g id="node20" class="node">
<title>{ provide: UI_POPOVER_CONTENT, useExisting: UiPopoverContent }</title>
<ellipse fill="#fdb462" stroke="black" cx="1907" cy="-66.8" rx="296.11" ry="18"/>
<text text-anchor="middle" x="1907" y="-62.6" font-family="Times,serif" font-size="14.00">{ provide: UI_POPOVER_CONTENT, useExisting: UiPopoverContent }</text>
</g>
<!-- { provide: UI_POPOVER_CONTENT, useExisting: UiPopoverContent }&#45;&gt;UiPopoverContent -->
<g id="edge15" class="edge">
<title>{ provide: UI_POPOVER_CONTENT, useExisting: UiPopoverContent }&#45;&gt;UiPopoverContent</title>
<path fill="none" stroke="black" d="M1928,-84.91C1928,-84.91 1928,-103.79 1928,-103.79"/>
<polygon fill="black" stroke="black" points="1924.5,-103.79 1928,-113.79 1931.5,-103.79 1924.5,-103.79"/>
</g>
<!-- UiResizeObserverDirective -->
<g id="node25" class="node">
<title>UiResizeObserverDirective</title>
<polygon fill="#ffffb3" stroke="black" points="1365.21,-217.8 1194.79,-217.8 1194.79,-181.8 1365.21,-181.8 1365.21,-217.8"/>
<text text-anchor="middle" x="1280" y="-195.6" font-family="Times,serif" font-size="14.00">UiResizeObserverDirective</text>
</g>
<!-- UiResizeObserverDirective&#45;&gt;UiResizeObserverModule -->
<g id="edge22" class="edge">
<title>UiResizeObserverDirective&#45;&gt;UiResizeObserverModule</title>
<path fill="none" stroke="black" d="M1280,-181.58C1280,-161.43 1280,-131.8 1280,-131.8 1280,-131.8 967.27,-131.8 967.27,-131.8"/>
<polygon fill="black" stroke="black" points="967.27,-128.3 957.27,-131.8 967.27,-135.3 967.27,-128.3"/>
</g>
</g>
</svg>
